SplineFontDB: 3.2
FontName: Pretension-Medium
FullName: Pretension Medium
FamilyName: Pretension Medium
Weight: Medium
Copyright: Copyright 2016 The Inter Project Authors
Version: 4.000;git-a52131595
ItalicAngle: 0
UnderlinePosition: -342
UnderlineWidth: 159
Ascent: 1638
Descent: 410
InvalidEm: 0
sfntRevision: 0x00040000
LayerCount: 2
Layer: 0 1 "Back" 1
Layer: 1 1 "Fore" 0
XUID: [1021 89 -1234937351 10889563]
StyleMap: 0x0040
FSType: 0
OS2Version: 4
OS2_WeightWidthSlopeOnly: 0
OS2_UseTypoMetrics: 1
CreationTime: 1700438797
ModificationTime: 1707762345
PfmFamily: 17
TTFWeight: 500
TTFWidth: 5
LineGap: 0
VLineGap: 0
Panose: 2 0 5 3 0 0 0 2 0 4
OS2TypoAscent: 1984
OS2TypoAOffset: 0
OS2TypoDescent: -494
OS2TypoDOffset: 0
OS2TypoLinegap: 0
OS2WinAscent: 1984
OS2WinAOffset: 0
OS2WinDescent: 494
OS2WinDOffset: 0
HheadAscent: 1984
HheadAOffset: 0
HheadDescent: -494
HheadDOffset: 0
OS2SubXSize: 1331
OS2SubYSize: 1229
OS2SubXOff: 0
OS2SubYOff: 154
OS2SupXSize: 1331
OS2SupYSize: 1229
OS2SupXOff: 0
OS2SupYOff: 717
OS2StrikeYSize: 159
OS2StrikeYPos: 653
OS2CapHeight: 1490
OS2XHeight: 1087
OS2Vendor: 'RSMS'
OS2CodePages: 0000019f.00000000
OS2UnicodeRanges: e0000aff.5200a1ff.00000021.00000000
Lookup: 1 0 0 "'aalt' Access All Alternates in Latin lookup 0" { "'aalt' Access All Alternates in Latin lookup 0 subtable"  } ['aalt' ('DFLT' <'dflt' > 'latn' <'CAT ' 'MOL ' 'ROM ' 'dflt' > ) ]
Lookup: 3 0 0 "'aalt' Access All Alternates in Latin lookup 1" { "'aalt' Access All Alternates in Latin lookup 1 subtable"  } ['aalt' ('DFLT' <'dflt' > 'latn' <'CAT ' 'MOL ' 'ROM ' 'dflt' > ) ]
Lookup: 1 0 0 "Single Substitution lookup 2" { "Single Substitution lookup 2 subtable"  } []
Lookup: 4 0 0 "'ccmp' Glyph Composition/Decomposition in Latin lookup 3" { "'ccmp' Glyph Composition/Decomposition in Latin lookup 3 subtable"  } ['ccmp' ('DFLT' <'dflt' > 'latn' <'CAT ' 'MOL ' 'ROM ' 'dflt' > ) ]

StartChar: .notdef
Encoding: 1114112 -1 0
Width: 1344
Flags: W
LayerCount: 2
Fore
SplineSet
1016 -416 m 1,0,-1
 328 -416 l 1,1,-1
 328 1856 l 1,2,-1
 1016 1856 l 1,3,-1
 1016 -416 l 1,0,-1
512 -192 m 1,4,-1
 512 -256 l 1,5,-1
 832 -256 l 1,6,-1
 832 -192 l 1,7,-1
 617 -192 l 1,8,-1
 832 -65 l 1,9,-1
 832 0 l 1,10,-1
 512 0 l 1,11,-1
 512 -64 l 1,12,-1
 728 -64 l 1,13,-1
 512 -192 l 1,4,-1
512 320 m 1,14,-1
 512 64 l 1,15,-1
 832 64 l 1,16,-1
 832 320 l 1,17,-1
 512 320 l 1,14,-1
768 128 m 1,18,-1
 576 128 l 1,19,-1
 576 256 l 1,20,-1
 768 256 l 1,21,-1
 768 128 l 1,18,-1
512 704 m 1,22,-1
 512 448 l 1,23,-1
 832 448 l 1,24,-1
 832 704 l 1,25,-1
 640 704 l 1,26,-1
 640 576 l 1,27,-1
 704 576 l 1,28,-1
 704 640 l 1,29,-1
 768 640 l 1,30,-1
 768 512 l 1,31,-1
 576 512 l 1,32,-1
 576 704 l 1,33,-1
 512 704 l 1,22,-1
512 832 m 1,34,-1
 512 768 l 1,35,-1
 832 768 l 1,36,-1
 832 992 l 1,37,-1
 768 992 l 1,38,-1
 768 832 l 1,39,-1
 512 832 l 1,34,-1
512 960 m 1,40,-1
 512 896 l 1,41,-1
 704 896 l 1,42,-1
 704 1056 l 1,43,-1
 832 1056 l 1,44,-1
 832 1120 l 1,45,-1
 512 1120 l 1,46,-1
 512 1056 l 1,47,-1
 640 1056 l 1,48,-1
 640 960 l 1,49,-1
 512 960 l 1,40,-1
640 1248 m 1,50,-1
 576 1248 l 1,51,-1
 576 1344 l 1,52,-1
 640 1344 l 1,53,-1
 640 1248 l 1,50,-1
512 1408 m 1,54,-1
 512 1184 l 1,55,-1
 832 1184 l 1,56,-1
 832 1248 l 1,57,-1
 704 1248 l 1,58,-1
 704 1408 l 1,59,-1
 512 1408 l 1,54,-1
512 1536 m 1,60,-1
 512 1472 l 1,61,-1
 832 1472 l 1,62,-1
 832 1536 l 1,63,-1
 688 1536 l 1,64,-1
 688 1632 l 1,65,-1
 832 1632 l 1,66,-1
 832 1696 l 1,67,-1
 512 1696 l 1,68,-1
 512 1632 l 1,69,-1
 624 1632 l 1,70,-1
 624 1536 l 1,71,-1
 512 1536 l 1,60,-1
EndSplineSet
EndChar

StartChar: A
Encoding: 65 65 2
Width: 1416
GlyphClass: 2
Flags: W
AnchorPoint: "Anchor-4" 1382 0 basechar 0
AnchorPoint: "Anchor-1" 708 1490 basechar 0
AnchorPoint: "Anchor-0" 708 0 basechar 0
LayerCount: 2
Fore
SplineSet
34 0 m 1,0,-1
 570 1490 l 1,1,-1
 844 1490 l 1,2,-1
 1382 0 l 1,3,-1
 1138 0 l 1,4,-1
 849 835 l 2,5,6
 815 939 815 939 774.5 1071 c 128,-1,7
 734 1203 734 1203 678 1393 c 1,8,-1
 733 1393 l 1,9,10
 679 1202 679 1202 638.5 1069.5 c 128,-1,11
 598 937 598 937 564 835 c 2,12,-1
 275 0 l 1,13,-1
 34 0 l 1,0,-1
327 390 m 1,14,-1
 327 579 l 1,15,-1
 1088 579 l 1,16,-1
 1088 390 l 1,17,-1
 327 390 l 1,14,-1
EndSplineSet
Substitution2: "'c2sc' Capitals to Small Capitals in Latin lookup 68 subtable" a.sc
Substitution2: "'ss06' Style Set 6 in Latin lookup 52 subtable" A.squared
Substitution2: "'ss05' Style Set 5 in Latin lookup 51 subtable" uni24B6
Substitution2: "Single Substitution lookup 44 subtable" ordfeminine
AlternateSubs2: "'aalt' Access All Alternates in Latin lookup 1 subtable" ordfeminine a.sc
Position2: "'cpsp' Capital Spacing in Latin lookup 0 subtable" dx=0 dy=0 dh=0 dv=0
EndChar

StartChar: uni023A
Encoding: 570 570 46
Width: 1416
GlyphClass: 2
Flags: W
AnchorPoint: "Anchor-4" 1382 0 basechar 0
AnchorPoint: "Anchor-1" 708 1490 basechar 0
AnchorPoint: "Anchor-0" 708 0 basechar 0
LayerCount: 2
Fore
SplineSet
1129 1678 m 1,0,-1
 483 -190 l 1,1,-1
 333 -190 l 1,2,-1
 979 1678 l 1,3,-1
 1129 1678 l 1,0,-1
34 0 m 1,4,-1
 570 1490 l 1,5,-1
 844 1490 l 1,6,-1
 1382 0 l 1,7,-1
 1138 0 l 1,8,-1
 849 835 l 2,9,10
 815 939 815 939 774.5 1071 c 128,-1,11
 734 1203 734 1203 678 1393 c 1,12,-1
 733 1393 l 1,13,14
 679 1202 679 1202 638.5 1069.5 c 128,-1,15
 598 937 598 937 564 835 c 2,16,-1
 275 0 l 1,17,-1
 34 0 l 1,4,-1
327 390 m 1,18,-1
 327 579 l 1,19,-1
 1088 579 l 1,20,-1
 1088 390 l 1,21,-1
 327 390 l 1,18,-1
EndSplineSet
Position2: "'cpsp' Capital Spacing in Latin lookup 0 subtable" dx=0 dy=0 dh=0 dv=0
EndChar

StartChar: Lambda
Encoding: 923 923 60
Width: 1416
GlyphClass: 2
Flags: W
AnchorPoint: "Anchor-1" 708 1490 basechar 0
AnchorPoint: "Anchor-0" 708 0 basechar 0
LayerCount: 2
Fore
SplineSet
34 0 m 1,0,-1
 570 1490 l 1,1,-1
 844 1490 l 1,2,-1
 1382 0 l 1,3,-1
 1138 0 l 1,4,-1
 849 835 l 2,5,6
 815 939 815 939 774.5 1071 c 128,-1,7
 734 1203 734 1203 678 1393 c 1,8,-1
 733 1393 l 1,9,10
 679 1202 679 1202 638.5 1069.5 c 128,-1,11
 598 937 598 937 564 835 c 2,12,-1
 275 0 l 1,13,-1
 34 0 l 1,0,-1
EndSplineSet
Position2: "'cpsp' Capital Spacing in Latin lookup 0 subtable" dx=0 dy=0 dh=0 dv=0
EndChar

StartChar: AE
Encoding: 198 198 61
Width: 2035
GlyphClass: 2
Flags: W
AnchorPoint: "Anchor-1" 1326 1490 basechar 0
LayerCount: 2
Fore
SplineSet
34 0 m 1,0,-1
 709 1490 l 1,1,-1
 1934 1490 l 1,2,-1
 1934 1295 l 1,3,-1
 1190 1295 l 1,4,-1
 1190 846 l 1,5,-1
 1881 846 l 1,6,-1
 1881 652 l 1,7,-1
 1190 652 l 1,8,-1
 1190 195 l 1,9,-1
 1938 195 l 1,10,-1
 1938 0 l 1,11,-1
 971 0 l 1,12,-1
 971 1320 l 1,13,-1
 859 1320 l 1,14,-1
 275 0 l 1,15,-1
 34 0 l 1,0,-1
375 406 m 1,16,-1
 375 588 l 1,17,-1
 1075 588 l 1,18,-1
 1075 406 l 1,19,-1
 375 406 l 1,16,-1
EndSplineSet
Position2: "'cpsp' Capital Spacing in Latin lookup 0 subtable" dx=0 dy=0 dh=0 dv=0
EndChar

StartChar: B
Encoding: 66 66 65
Width: 1329
GlyphClass: 2
Flags: W
AnchorPoint: "Anchor-1" 640 1490 basechar 0
AnchorPoint: "Anchor-0" 646 0 basechar 0
LayerCount: 2
Fore
SplineSet
150 0 m 1,0,-1
 150 1490 l 1,1,-1
 704 1490 l 2,2,3
 860 1490 860 1490 966.5 1439.5 c 128,-1,4
 1073 1389 1073 1389 1127.5 1301 c 128,-1,5
 1182 1213 1182 1213 1182 1099 c 0,6,7
 1182 1009 1182 1009 1149.5 945.5 c 128,-1,8
 1117 882 1117 882 1061 841 c 128,-1,9
 1005 800 1005 800 931 779 c 1,10,-1
 931 771 l 1,11,12
 1012 763 1012 763 1082.5 719.5 c 128,-1,13
 1153 676 1153 676 1197 598.5 c 128,-1,14
 1241 521 1241 521 1241 411 c 0,15,16
 1241 290 1241 290 1184.5 197.5 c 128,-1,17
 1128 105 1128 105 1013.5 52.5 c 128,-1,18
 899 0 899 0 725 0 c 2,19,-1
 150 0 l 1,0,-1
375 192 m 1,20,-1
 705 192 l 2,21,22
 862 192 862 192 938 252.5 c 128,-1,23
 1014 313 1014 313 1014 416 c 0,24,25
 1014 490 1014 490 978 546.5 c 128,-1,26
 942 603 942 603 875.5 635 c 128,-1,27
 809 667 809 667 714 667 c 2,28,-1
 375 667 l 1,29,-1
 375 192 l 1,20,-1
375 846 m 1,30,-1
 692 846 l 2,31,32
 771 846 771 846 831.5 874.5 c 128,-1,33
 892 903 892 903 925.5 955 c 128,-1,34
 959 1007 959 1007 959 1078 c 0,35,36
 959 1176 959 1176 891.5 1237.5 c 128,-1,37
 824 1299 824 1299 695 1299 c 2,38,-1
 375 1299 l 1,39,-1
 375 846 l 1,30,-1
EndSplineSet
Substitution2: "'ss06' Style Set 6 in Latin lookup 52 subtable" B.squared
Substitution2: "'ss05' Style Set 5 in Latin lookup 51 subtable" uni24B7
Position2: "'cpsp' Capital Spacing in Latin lookup 0 subtable" dx=0 dy=0 dh=0 dv=0
EndChar

StartChar: uni0181
Encoding: 385 385 70
Width: 1645
GlyphClass: 2
Flags: W
AnchorPoint: "Anchor-1" 956 1490 basechar 0
AnchorPoint: "Anchor-0" 962 0 basechar 0
LayerCount: 2
Fore
SplineSet
48 1071 m 1,0,-1
 48 1194 l 2,1,2
 48 1342 48 1342 127 1416 c 128,-1,3
 206 1490 206 1490 365 1490 c 2,4,-1
 466 1490 l 1,5,-1
 466 1297 l 1,6,-1
 378 1297 l 2,7,8
 315 1297 315 1297 286 1269.5 c 128,-1,9
 257 1242 257 1242 257 1183 c 2,10,-1
 257 1071 l 1,11,-1
 48 1071 l 1,0,-1
466 0 m 1,12,-1
 466 1490 l 1,13,-1
 1020 1490 l 2,14,15
 1176 1490 1176 1490 1282.5 1439.5 c 128,-1,16
 1389 1389 1389 1389 1443.5 1301 c 128,-1,17
 1498 1213 1498 1213 1498 1099 c 0,18,19
 1498 1009 1498 1009 1465.5 945.5 c 128,-1,20
 1433 882 1433 882 1377 841 c 128,-1,21
 1321 800 1321 800 1247 779 c 1,22,-1
 1247 771 l 1,23,24
 1328 763 1328 763 1398.5 719.5 c 128,-1,25
 1469 676 1469 676 1513 598.5 c 128,-1,26
 1557 521 1557 521 1557 411 c 0,27,28
 1557 290 1557 290 1500.5 197.5 c 128,-1,29
 1444 105 1444 105 1329.5 52.5 c 128,-1,30
 1215 0 1215 0 1041 0 c 2,31,-1
 466 0 l 1,12,-1
691 192 m 1,32,-1
 1021 192 l 2,33,34
 1178 192 1178 192 1254 252.5 c 128,-1,35
 1330 313 1330 313 1330 416 c 0,36,37
 1330 490 1330 490 1294 546.5 c 128,-1,38
 1258 603 1258 603 1191.5 635 c 128,-1,39
 1125 667 1125 667 1030 667 c 2,40,-1
 691 667 l 1,41,-1
 691 192 l 1,32,-1
691 846 m 1,42,-1
 1008 846 l 2,43,44
 1087 846 1087 846 1147.5 874.5 c 128,-1,45
 1208 903 1208 903 1241.5 955 c 128,-1,46
 1275 1007 1275 1007 1275 1078 c 0,47,48
 1275 1176 1275 1176 1207.5 1237.5 c 128,-1,49
 1140 1299 1140 1299 1011 1299 c 2,50,-1
 691 1299 l 1,51,-1
 691 846 l 1,42,-1
EndSplineSet
Position2: "'cpsp' Capital Spacing in Latin lookup 0 subtable" dx=0 dy=0 dh=0 dv=0
EndChar

StartChar: C
Encoding: 67 67 73
Width: 1492
GlyphClass: 2
Flags: W
AnchorPoint: "Anchor-3" 769 -3 basechar 0
AnchorPoint: "Anchor-1" 772 1490 basechar 0
LayerCount: 2
Fore
SplineSet
780 -22 m 0,0,1
 581 -22 581 -22 426.5 72 c 128,-1,2
 272 166 272 166 184.5 338.5 c 128,-1,3
 97 511 97 511 97 744 c 0,4,5
 97 979 97 979 185 1151.5 c 128,-1,6
 273 1324 273 1324 427.5 1418 c 128,-1,7
 582 1512 582 1512 780 1512 c 0,8,9
 900 1512 900 1512 1004.5 1477 c 128,-1,10
 1109 1442 1109 1442 1191.5 1375.5 c 128,-1,11
 1274 1309 1274 1309 1328 1214.5 c 128,-1,12
 1382 1120 1382 1120 1402 1001 c 1,13,-1
 1174 1001 l 1,14,15
 1159 1075 1159 1075 1123 1132 c 128,-1,16
 1087 1189 1087 1189 1035.5 1228 c 128,-1,17
 984 1267 984 1267 919.5 1287 c 128,-1,18
 855 1307 855 1307 782 1307 c 0,19,20
 645 1307 645 1307 541.5 1239 c 128,-1,21
 438 1171 438 1171 380 1045 c 128,-1,22
 322 919 322 919 322 744 c 0,23,24
 322 570 322 570 380 444 c 128,-1,25
 438 318 438 318 541.5 250.5 c 128,-1,26
 645 183 645 183 782 183 c 0,27,28
 855 183 855 183 919 203.5 c 128,-1,29
 983 224 983 224 1035 262.5 c 128,-1,30
 1087 301 1087 301 1123 358 c 128,-1,31
 1159 415 1159 415 1174 489 c 1,32,-1
 1402 489 l 1,33,34
 1384 374 1384 374 1330.5 280.5 c 128,-1,35
 1277 187 1277 187 1195 119 c 128,-1,36
 1113 51 1113 51 1008 14.5 c 128,-1,37
 903 -22 903 -22 780 -22 c 0,0,1
EndSplineSet
Substitution2: "'ss06' Style Set 6 in Latin lookup 52 subtable" C.squared
Substitution2: "'ss05' Style Set 5 in Latin lookup 51 subtable" uni24B8
Position2: "'cpsp' Capital Spacing in Latin lookup 0 subtable" dx=0 dy=0 dh=0 dv=0
EndChar

StartChar: uni0187
Encoding: 391 391 74
Width: 1492
GlyphClass: 2
Flags: W
AnchorPoint: "Anchor-3" 769 -3 basechar 0
AnchorPoint: "Anchor-1" 772 1490 basechar 0
LayerCount: 2
Fore
SplineSet
1191 1001 m 1,0,-1
 1191 1408 l 2,1,2
 1191 1543 1191 1543 1269 1612.5 c 128,-1,3
 1347 1682 1347 1682 1501 1682 c 0,4,5
 1539 1682 1539 1682 1569.5 1680.5 c 128,-1,6
 1600 1679 1600 1679 1621 1676 c 1,7,-1
 1621 1502 l 1,8,9
 1604 1503 1604 1503 1578 1503.5 c 128,-1,10
 1552 1504 1552 1504 1534 1504 c 0,11,12
 1464 1504 1464 1504 1433 1481 c 128,-1,13
 1402 1458 1402 1458 1402 1406 c 2,14,-1
 1402 1001 l 1,15,-1
 1191 1001 l 1,0,-1
780 -22 m 0,16,17
 581 -22 581 -22 426.5 72 c 128,-1,18
 272 166 272 166 184.5 338.5 c 128,-1,19
 97 511 97 511 97 744 c 0,20,21
 97 979 97 979 185 1151.5 c 128,-1,22
 273 1324 273 1324 427.5 1418 c 128,-1,23
 582 1512 582 1512 780 1512 c 0,24,25
 900 1512 900 1512 1004.5 1477 c 128,-1,26
 1109 1442 1109 1442 1191.5 1375.5 c 128,-1,27
 1274 1309 1274 1309 1328 1214.5 c 128,-1,28
 1382 1120 1382 1120 1402 1001 c 1,29,-1
 1174 1001 l 1,30,31
 1159 1075 1159 1075 1123 1132 c 128,-1,32
 1087 1189 1087 1189 1035.5 1228 c 128,-1,33
 984 1267 984 1267 919.5 1287 c 128,-1,34
 855 1307 855 1307 782 1307 c 0,35,36
 645 1307 645 1307 541.5 1239 c 128,-1,37
 438 1171 438 1171 380 1045 c 128,-1,38
 322 919 322 919 322 744 c 0,39,40
 322 570 322 570 380 444 c 128,-1,41
 438 318 438 318 541.5 250.5 c 128,-1,42
 645 183 645 183 782 183 c 0,43,44
 855 183 855 183 919 203.5 c 128,-1,45
 983 224 983 224 1035 262.5 c 128,-1,46
 1087 301 1087 301 1123 358 c 128,-1,47
 1159 415 1159 415 1174 489 c 1,48,-1
 1402 489 l 1,49,50
 1384 374 1384 374 1330.5 280.5 c 128,-1,51
 1277 187 1277 187 1195 119 c 128,-1,52
 1113 51 1113 51 1008 14.5 c 128,-1,53
 903 -22 903 -22 780 -22 c 0,16,17
EndSplineSet
Position2: "'cpsp' Capital Spacing in Latin lookup 0 subtable" dx=0 dy=0 dh=0 dv=0
EndChar

StartChar: uni023B
Encoding: 571 571 81
Width: 1492
GlyphClass: 2
Flags: W
AnchorPoint: "Anchor-3" 769 -3 basechar 0
AnchorPoint: "Anchor-1" 772 1490 basechar 0
LayerCount: 2
Fore
SplineSet
335 -190 m 1,0,-1
 980 1678 l 1,1,-1
 1153 1678 l 1,2,-1
 509 -190 l 1,3,-1
 335 -190 l 1,0,-1
780 -22 m 0,4,5
 581 -22 581 -22 426.5 72 c 128,-1,6
 272 166 272 166 184.5 338.5 c 128,-1,7
 97 511 97 511 97 744 c 0,8,9
 97 979 97 979 185 1151.5 c 128,-1,10
 273 1324 273 1324 427.5 1418 c 128,-1,11
 582 1512 582 1512 780 1512 c 0,12,13
 900 1512 900 1512 1004.5 1477 c 128,-1,14
 1109 1442 1109 1442 1191.5 1375.5 c 128,-1,15
 1274 1309 1274 1309 1328 1214.5 c 128,-1,16
 1382 1120 1382 1120 1402 1001 c 1,17,-1
 1174 1001 l 1,18,19
 1159 1075 1159 1075 1123 1132 c 128,-1,20
 1087 1189 1087 1189 1035.5 1228 c 128,-1,21
 984 1267 984 1267 919.5 1287 c 128,-1,22
 855 1307 855 1307 782 1307 c 0,23,24
 645 1307 645 1307 541.5 1239 c 128,-1,25
 438 1171 438 1171 380 1045 c 128,-1,26
 322 919 322 919 322 744 c 0,27,28
 322 570 322 570 380 444 c 128,-1,29
 438 318 438 318 541.5 250.5 c 128,-1,30
 645 183 645 183 782 183 c 0,31,32
 855 183 855 183 919 203.5 c 128,-1,33
 983 224 983 224 1035 262.5 c 128,-1,34
 1087 301 1087 301 1123 358 c 128,-1,35
 1159 415 1159 415 1174 489 c 1,36,-1
 1402 489 l 1,37,38
 1384 374 1384 374 1330.5 280.5 c 128,-1,39
 1277 187 1277 187 1195 119 c 128,-1,40
 1113 51 1113 51 1008 14.5 c 128,-1,41
 903 -22 903 -22 780 -22 c 0,4,5
EndSplineSet
Ligature2: "'ccmp' Glyph Composition/Decomposition in Latin lookup 6 subtable" C uni0338
Position2: "'cpsp' Capital Spacing in Latin lookup 0 subtable" dx=0 dy=0 dh=0 dv=0
EndChar

StartChar: uni0186
Encoding: 390 390 82
Width: 1492
GlyphClass: 2
Flags: W
AnchorPoint: "Anchor-3" 723 1494 basechar 0
AnchorPoint: "Anchor-1" 721 0 basechar 0
LayerCount: 2
Fore
SplineSet
712 1512 m 0,0,1
 911 1512 911 1512 1065.5 1418 c 128,-1,2
 1220 1324 1220 1324 1308 1151.5 c 128,-1,3
 1396 979 1396 979 1396 746 c 256,4,5
 1396 513 1396 513 1308 340 c 128,-1,6
 1220 167 1220 167 1066 72.5 c 128,-1,7
 912 -22 912 -22 712 -22 c 0,8,9
 593 -22 593 -22 488.5 13 c 128,-1,10
 384 48 384 48 301 115 c 128,-1,11
 218 182 218 182 164.5 276.5 c 128,-1,12
 111 371 111 371 91 490 c 1,13,-1
 319 490 l 1,14,15
 334 416 334 416 369.5 359 c 128,-1,16
 405 302 405 302 456.5 262.5 c 128,-1,17
 508 223 508 223 573 203 c 128,-1,18
 638 183 638 183 711 183 c 0,19,20
 848 183 848 183 951.5 251.5 c 128,-1,21
 1055 320 1055 320 1112.5 446 c 128,-1,22
 1170 572 1170 572 1170 746 c 0,23,24
 1170 921 1170 921 1112.5 1047 c 128,-1,25
 1055 1173 1055 1173 951.5 1240 c 128,-1,26
 848 1307 848 1307 711 1307 c 0,27,28
 638 1307 638 1307 574 1287 c 128,-1,29
 510 1267 510 1267 458 1228 c 128,-1,30
 406 1189 406 1189 370 1132 c 128,-1,31
 334 1075 334 1075 319 1002 c 1,32,-1
 91 1002 l 1,33,34
 109 1117 109 1117 162.5 1210.5 c 128,-1,35
 216 1304 216 1304 297.5 1372 c 128,-1,36
 379 1440 379 1440 484.5 1476 c 128,-1,37
 590 1512 590 1512 712 1512 c 0,0,1
EndSplineSet
Position2: "'cpsp' Capital Spacing in Latin lookup 0 subtable" dx=0 dy=0 dh=0 dv=0
EndChar

StartChar: D
Encoding: 68 68 84
Width: 1449
GlyphClass: 2
Flags: W
AnchorPoint: "Anchor-1" 600 1490 basechar 0
AnchorPoint: "Anchor-0" 620 0 basechar 0
LayerCount: 2
Fore
SplineSet
634 0 m 2,0,-1
 266 0 l 1,1,-1
 266 196 l 1,2,-1
 621 196 l 2,3,4
 792 196 792 196 905 261 c 128,-1,5
 1018 326 1018 326 1073.5 449.5 c 128,-1,6
 1129 573 1129 573 1129 747 c 256,7,8
 1129 921 1129 921 1073.5 1043.5 c 128,-1,9
 1018 1166 1018 1166 908.5 1230 c 128,-1,10
 799 1294 799 1294 635 1294 c 2,11,-1
 259 1294 l 1,12,-1
 259 1490 l 1,13,-1
 649 1490 l 2,14,15
 869 1490 869 1490 1026 1400.5 c 128,-1,16
 1183 1311 1183 1311 1267.5 1144.5 c 128,-1,17
 1352 978 1352 978 1352 747 c 0,18,19
 1352 515 1352 515 1267 347.5 c 128,-1,20
 1182 180 1182 180 1021.5 90 c 128,-1,21
 861 0 861 0 634 0 c 2,0,-1
376 1490 m 1,22,-1
 376 0 l 1,23,-1
 150 0 l 1,24,-1
 150 1490 l 1,25,-1
 376 1490 l 1,22,-1
EndSplineSet
Substitution2: "'ss06' Style Set 6 in Latin lookup 52 subtable" D.squared
Substitution2: "'ss05' Style Set 5 in Latin lookup 51 subtable" uni24B9
Position2: "'cpsp' Capital Spacing in Latin lookup 0 subtable" dx=0 dy=0 dh=0 dv=0
EndChar

StartChar: uni018A
Encoding: 394 394 85
Width: 1765
GlyphClass: 2
Flags: W
AnchorPoint: "Anchor-1" 916 1490 basechar 0
AnchorPoint: "Anchor-0" 936 0 basechar 0
LayerCount: 2
Fore
SplineSet
48 1071 m 1,0,-1
 48 1194 l 2,1,2
 48 1342 48 1342 127 1416 c 128,-1,3
 206 1490 206 1490 365 1490 c 2,4,-1
 466 1490 l 1,5,-1
 466 1297 l 1,6,-1
 378 1297 l 2,7,8
 315 1297 315 1297 286 1269.5 c 128,-1,9
 257 1242 257 1242 257 1183 c 2,10,-1
 257 1071 l 1,11,-1
 48 1071 l 1,0,-1
950 0 m 2,12,-1
 582 0 l 1,13,-1
 582 196 l 1,14,-1
 937 196 l 2,15,16
 1108 196 1108 196 1221 261 c 128,-1,17
 1334 326 1334 326 1389.5 449.5 c 128,-1,18
 1445 573 1445 573 1445 747 c 256,19,20
 1445 921 1445 921 1389.5 1043.5 c 128,-1,21
 1334 1166 1334 1166 1224.5 1230 c 128,-1,22
 1115 1294 1115 1294 951 1294 c 2,23,-1
 575 1294 l 1,24,-1
 575 1490 l 1,25,-1
 965 1490 l 2,26,27
 1185 1490 1185 1490 1342.5 1400.5 c 128,-1,28
 1500 1311 1500 1311 1584 1144.5 c 128,-1,29
 1668 978 1668 978 1668 747 c 0,30,31
 1668 515 1668 515 1583 347.5 c 128,-1,32
 1498 180 1498 180 1337.5 90 c 128,-1,33
 1177 0 1177 0 950 0 c 2,12,-1
692 1490 m 1,34,-1
 692 0 l 1,35,-1
 466 0 l 1,36,-1
 466 1490 l 1,37,-1
 692 1490 l 1,34,-1
EndSplineSet
Position2: "'cpsp' Capital Spacing in Latin lookup 0 subtable" dx=0 dy=0 dh=0 dv=0
EndChar

StartChar: E
Encoding: 69 69 95
Width: 1221
GlyphClass: 2
Flags: W
AnchorPoint: "Anchor-4" 1124 0 basechar 0
AnchorPoint: "Anchor-3" 642 0 basechar 0
AnchorPoint: "Anchor-1" 638 1490 basechar 0
AnchorPoint: "Anchor-0" 638 0 basechar 0
LayerCount: 2
Fore
SplineSet
150 0 m 1,0,-1
 150 1490 l 1,1,-1
 1121 1490 l 1,2,-1
 1121 1295 l 1,3,-1
 376 1295 l 1,4,-1
 376 853 l 1,5,-1
 1066 853 l 1,6,-1
 1066 660 l 1,7,-1
 376 660 l 1,8,-1
 376 195 l 1,9,-1
 1124 195 l 1,10,-1
 1124 0 l 1,11,-1
 150 0 l 1,0,-1
EndSplineSet
Substitution2: "'ss06' Style Set 6 in Latin lookup 52 subtable" E.squared
Substitution2: "'ss05' Style Set 5 in Latin lookup 51 subtable" uni24BA
Position2: "'cpsp' Capital Spacing in Latin lookup 0 subtable" dx=0 dy=0 dh=0 dv=0
EndChar

StartChar: uni0246
Encoding: 582 582 121
Width: 1221
GlyphClass: 2
Flags: W
AnchorPoint: "Anchor-4" 1124 0 basechar 0
AnchorPoint: "Anchor-3" 642 0 basechar 0
AnchorPoint: "Anchor-1" 638 1490 basechar 0
AnchorPoint: "Anchor-0" 638 0 basechar 0
LayerCount: 2
Fore
SplineSet
307 -190 m 1,0,-1
 847 1678 l 1,1,-1
 1011 1678 l 1,2,-1
 473 -190 l 1,3,-1
 307 -190 l 1,0,-1
150 0 m 1,4,-1
 150 1490 l 1,5,-1
 1121 1490 l 1,6,-1
 1121 1295 l 1,7,-1
 376 1295 l 1,8,-1
 376 853 l 1,9,-1
 1066 853 l 1,10,-1
 1066 660 l 1,11,-1
 376 660 l 1,12,-1
 376 195 l 1,13,-1
 1124 195 l 1,14,-1
 1124 0 l 1,15,-1
 150 0 l 1,4,-1
EndSplineSet
Position2: "'cpsp' Capital Spacing in Latin lookup 0 subtable" dx=0 dy=0 dh=0 dv=0
EndChar

StartChar: Eturn
Encoding: 398 398 122
Width: 1221
GlyphClass: 2
Flags: W
AnchorPoint: "Anchor-4" 97 1490 basechar 0
AnchorPoint: "Anchor-3" 604 0 basechar 0
AnchorPoint: "Anchor-1" 607 1490 basechar 0
AnchorPoint: "Anchor-0" 601 0 basechar 0
LayerCount: 2
Fore
SplineSet
1071 1490 m 1,0,-1
 1071 0 l 1,1,-1
 101 0 l 1,2,-1
 101 195 l 1,3,-1
 845 195 l 1,4,-1
 845 638 l 1,5,-1
 154 638 l 1,6,-1
 154 832 l 1,7,-1
 845 832 l 1,8,-1
 845 1295 l 1,9,-1
 97 1295 l 1,10,-1
 97 1490 l 1,11,-1
 1071 1490 l 1,0,-1
EndSplineSet
Position2: "'cpsp' Capital Spacing in Latin lookup 0 subtable" dx=0 dy=0 dh=0 dv=0
EndChar

StartChar: F
Encoding: 70 70 137
Width: 1180
GlyphClass: 2
Flags: W
AnchorPoint: "Anchor-1" 625 1490 basechar 0
AnchorPoint: "Anchor-0" 264 0 basechar 0
LayerCount: 2
Fore
SplineSet
150 0 m 1,0,-1
 150 1490 l 1,1,-1
 1099 1490 l 1,2,-1
 1099 1295 l 1,3,-1
 376 1295 l 1,4,-1
 376 832 l 1,5,-1
 1037 832 l 1,6,-1
 1037 639 l 1,7,-1
 376 639 l 1,8,-1
 376 0 l 1,9,-1
 150 0 l 1,0,-1
EndSplineSet
Substitution2: "'ss06' Style Set 6 in Latin lookup 52 subtable" F.squared
Substitution2: "'ss05' Style Set 5 in Latin lookup 51 subtable" uni24BB
Position2: "'cpsp' Capital Spacing in Latin lookup 0 subtable" dx=0 dy=0 dh=0 dv=0
EndChar

StartChar: uni0191
Encoding: 401 401 138
Width: 1180
GlyphClass: 2
Flags: W
AnchorPoint: "Anchor-1" 625 1490 basechar 0
AnchorPoint: "Anchor-0" 264 0 basechar 0
LayerCount: 2
Fore
SplineSet
-60 -418 m 1,0,-1
 -60 -233 l 1,1,2
 -43 -235 -43 -235 -17 -235.5 c 128,-1,3
 9 -236 9 -236 27 -236 c 0,4,5
 97 -236 97 -236 123.5 -213 c 128,-1,6
 150 -190 150 -190 150 -139 c 2,7,-1
 150 127 l 1,8,-1
 376 127 l 1,9,-1
 376 -149 l 2,10,11
 376 -284 376 -284 297 -353.5 c 128,-1,12
 218 -423 218 -423 65 -423 c 0,13,14
 26 -423 26 -423 -6.5 -422 c 128,-1,15
 -39 -421 -39 -421 -60 -418 c 1,0,-1
150 0 m 1,16,-1
 150 1490 l 1,17,-1
 1099 1490 l 1,18,-1
 1099 1295 l 1,19,-1
 376 1295 l 1,20,-1
 376 832 l 1,21,-1
 1037 832 l 1,22,-1
 1037 639 l 1,23,-1
 376 639 l 1,24,-1
 376 0 l 1,25,-1
 150 0 l 1,16,-1
EndSplineSet
Position2: "'cpsp' Capital Spacing in Latin lookup 0 subtable" dx=0 dy=0 dh=0 dv=0
EndChar

StartChar: Fturn
Encoding: 8498 8498 140
Width: 1180
GlyphClass: 2
Flags: W
AnchorPoint: "Anchor-1" 898 1490 basechar 0
AnchorPoint: "Anchor-0" 550 0 basechar 0
LayerCount: 2
Fore
SplineSet
1030 1490 m 1,0,-1
 1030 0 l 1,1,-1
 81 0 l 1,2,-1
 81 195 l 1,3,-1
 804 195 l 1,4,-1
 804 659 l 1,5,-1
 143 659 l 1,6,-1
 143 852 l 1,7,-1
 804 852 l 1,8,-1
 804 1490 l 1,9,-1
 1030 1490 l 1,0,-1
EndSplineSet
Position2: "'cpsp' Capital Spacing in Latin lookup 0 subtable" dx=0 dy=0 dh=0 dv=0
EndChar

StartChar: G
Encoding: 1114113 -1 141
Width: 1515
GlyphClass: 2
Flags: W
AnchorPoint: "Anchor-1" 769 1490 basechar 0
AnchorPoint: "Anchor-0" 766 0 basechar 0
LayerCount: 2
Fore
SplineSet
781 -22 m 0,0,1
 579 -22 579 -22 425 73.5 c 128,-1,2
 271 169 271 169 184 341.5 c 128,-1,3
 97 514 97 514 97 744 c 0,4,5
 97 979 97 979 185 1151.5 c 128,-1,6
 273 1324 273 1324 426.5 1418 c 128,-1,7
 580 1512 580 1512 775 1512 c 0,8,9
 897 1512 897 1512 1002.5 1475.5 c 128,-1,10
 1108 1439 1108 1439 1191 1372.5 c 128,-1,11
 1274 1306 1274 1306 1328.5 1214 c 128,-1,12
 1383 1122 1383 1122 1401 1011 c 1,13,-1
 1171 1011 l 1,14,15
 1153 1078 1153 1078 1118 1132.5 c 128,-1,16
 1083 1187 1083 1187 1032 1226 c 128,-1,17
 981 1265 981 1265 917 1286 c 128,-1,18
 853 1307 853 1307 778 1307 c 0,19,20
 645 1307 645 1307 542 1239.5 c 128,-1,21
 439 1172 439 1172 380.5 1046 c 128,-1,22
 322 920 322 920 322 744 c 0,23,24
 322 571 322 571 380.5 445 c 128,-1,25
 439 319 439 319 543 251 c 128,-1,26
 647 183 647 183 783 183 c 0,27,28
 902 183 902 183 994.5 233 c 128,-1,29
 1087 283 1087 283 1139 372.5 c 128,-1,30
 1191 462 1191 462 1191 583 c 1,31,-1
 1253 576 l 1,32,-1
 824 576 l 1,33,-1
 824 762 l 1,34,-1
 1412 762 l 1,35,-1
 1412 592 l 2,36,37
 1412 409 1412 409 1330 270.5 c 128,-1,38
 1248 132 1248 132 1105.5 55 c 128,-1,39
 963 -22 963 -22 781 -22 c 0,0,1
EndSplineSet
Substitution2: "'c2sc' Capitals to Small Capitals in Latin lookup 68 subtable" g.sc
Substitution2: "'cv10' Character Variants 10 in Latin lookup 64 subtable" G.1
Substitution2: "'ss06' Style Set 6 in Latin lookup 52 subtable" G.squared
Substitution2: "'ss05' Style Set 5 in Latin lookup 51 subtable" uni24BC
Substitution2: "'salt' Stylistic Alternatives in Latin lookup 46 subtable" G.1
Substitution2: "'aalt' Access All Alternates in Latin lookup 0 subtable" g.sc
Position2: "'cpsp' Capital Spacing in Latin lookup 0 subtable" dx=0 dy=0 dh=0 dv=0
EndChar

StartChar: uni0193
Encoding: 1114115 -1 143
Width: 1515
GlyphClass: 2
Flags: W
AnchorPoint: "Anchor-1" 769 1490 basechar 0
AnchorPoint: "Anchor-0" 766 0 basechar 0
LayerCount: 2
Fore
SplineSet
1190 1011 m 1,0,-1
 1190 1407 l 2,1,2
 1190 1542 1190 1542 1268.5 1611 c 128,-1,3
 1347 1680 1347 1680 1500 1680 c 0,4,5
 1539 1680 1539 1680 1569.5 1678.5 c 128,-1,6
 1600 1677 1600 1677 1621 1675 c 1,7,-1
 1621 1500 l 1,8,9
 1604 1501 1604 1501 1577.5 1501.5 c 128,-1,10
 1551 1502 1551 1502 1533 1502 c 0,11,12
 1463 1502 1463 1502 1432 1478.5 c 128,-1,13
 1401 1455 1401 1455 1401 1405 c 2,14,-1
 1401 1011 l 1,15,-1
 1190 1011 l 1,0,-1
781 -22 m 0,16,17
 579 -22 579 -22 425 73.5 c 128,-1,18
 271 169 271 169 184 341.5 c 128,-1,19
 97 514 97 514 97 744 c 0,20,21
 97 979 97 979 185 1151.5 c 128,-1,22
 273 1324 273 1324 426.5 1418 c 128,-1,23
 580 1512 580 1512 775 1512 c 0,24,25
 897 1512 897 1512 1002.5 1475.5 c 128,-1,26
 1108 1439 1108 1439 1191 1372.5 c 128,-1,27
 1274 1306 1274 1306 1328.5 1214 c 128,-1,28
 1383 1122 1383 1122 1401 1011 c 1,29,-1
 1171 1011 l 1,30,31
 1153 1078 1153 1078 1118 1132.5 c 128,-1,32
 1083 1187 1083 1187 1032 1226 c 128,-1,33
 981 1265 981 1265 917 1286 c 128,-1,34
 853 1307 853 1307 778 1307 c 0,35,36
 645 1307 645 1307 542 1239.5 c 128,-1,37
 439 1172 439 1172 380.5 1046 c 128,-1,38
 322 920 322 920 322 744 c 0,39,40
 322 571 322 571 380.5 445 c 128,-1,41
 439 319 439 319 543 251 c 128,-1,42
 647 183 647 183 783 183 c 0,43,44
 902 183 902 183 994.5 233 c 128,-1,45
 1087 283 1087 283 1139 372.5 c 128,-1,46
 1191 462 1191 462 1191 583 c 1,47,-1
 1253 576 l 1,48,-1
 824 576 l 1,49,-1
 824 762 l 1,50,-1
 1412 762 l 1,51,-1
 1412 592 l 2,52,53
 1412 409 1412 409 1330 270.5 c 128,-1,54
 1248 132 1248 132 1105.5 55 c 128,-1,55
 963 -22 963 -22 781 -22 c 0,16,17
EndSplineSet
Substitution2: "'c2sc' Capitals to Small Capitals in Latin lookup 68 subtable" uni0260.sc
Substitution2: "'cv10' Character Variants 10 in Latin lookup 64 subtable" uni0193.1
Substitution2: "'salt' Stylistic Alternatives in Latin lookup 46 subtable" uni0193.1
Substitution2: "'aalt' Access All Alternates in Latin lookup 0 subtable" uni0260.sc
Position2: "'cpsp' Capital Spacing in Latin lookup 0 subtable" dx=0 dy=0 dh=0 dv=0
EndChar

StartChar: G.1
Encoding: 57346 57346 151
AltUni2: 000047.ffffffff.0
Width: 1538
GlyphClass: 2
Flags: W
AnchorPoint: "Anchor-1" 770 1490 basechar 0
AnchorPoint: "Anchor-0" 767 0 basechar 0
LayerCount: 2
Fore
SplineSet
765 -22 m 0,0,1
 572 -22 572 -22 421.5 73.5 c 128,-1,2
 271 169 271 169 184 341.5 c 128,-1,3
 97 514 97 514 97 744 c 0,4,5
 97 979 97 979 185 1151.5 c 128,-1,6
 273 1324 273 1324 426.5 1418 c 128,-1,7
 580 1512 580 1512 775 1512 c 0,8,9
 897 1512 897 1512 1002.5 1475.5 c 128,-1,10
 1108 1439 1108 1439 1191 1372.5 c 128,-1,11
 1274 1306 1274 1306 1328.5 1214 c 128,-1,12
 1383 1122 1383 1122 1401 1011 c 1,13,-1
 1171 1011 l 1,14,15
 1153 1078 1153 1078 1118 1132.5 c 128,-1,16
 1083 1187 1083 1187 1032 1226 c 128,-1,17
 981 1265 981 1265 917 1286 c 128,-1,18
 853 1307 853 1307 778 1307 c 0,19,20
 645 1307 645 1307 542 1239.5 c 128,-1,21
 439 1172 439 1172 380.5 1046 c 128,-1,22
 322 920 322 920 322 744 c 0,23,24
 322 571 322 571 380.5 445 c 128,-1,25
 439 319 439 319 543 251 c 128,-1,26
 647 183 647 183 784 183 c 0,27,28
 905 183 905 183 997 234 c 128,-1,29
 1089 285 1089 285 1141.5 379 c 128,-1,30
 1194 473 1194 473 1194 603 c 1,31,-1
 1271 603 l 1,32,-1
 1271 482 l 2,33,34
 1271 385 1271 385 1241 294.5 c 128,-1,35
 1211 204 1211 204 1148.5 133 c 128,-1,36
 1086 62 1086 62 990.5 20 c 128,-1,37
 895 -22 895 -22 765 -22 c 0,0,1
1247 0 m 1,38,-1
 1214 328 l 1,39,-1
 1214 576 l 1,40,-1
 824 576 l 1,41,-1
 824 762 l 1,42,-1
 1413 762 l 1,43,-1
 1413 0 l 1,44,-1
 1247 0 l 1,38,-1
EndSplineSet
Substitution2: "'ss06' Style Set 6 in Latin lookup 52 subtable" G.1.squared
EndChar

StartChar: uni0193.1
Encoding: 57348 57348 153
AltUni2: 000193.ffffffff.0
Width: 1538
GlyphClass: 2
Flags: W
AnchorPoint: "Anchor-1" 770 1490 basechar 0
AnchorPoint: "Anchor-0" 767 0 basechar 0
LayerCount: 2
Fore
SplineSet
1190 1011 m 1,0,-1
 1190 1407 l 2,1,2
 1190 1542 1190 1542 1268.5 1611 c 128,-1,3
 1347 1680 1347 1680 1500 1680 c 0,4,5
 1539 1680 1539 1680 1569.5 1678.5 c 128,-1,6
 1600 1677 1600 1677 1621 1675 c 1,7,-1
 1621 1500 l 1,8,9
 1604 1501 1604 1501 1577.5 1501.5 c 128,-1,10
 1551 1502 1551 1502 1533 1502 c 0,11,12
 1463 1502 1463 1502 1432 1478.5 c 128,-1,13
 1401 1455 1401 1455 1401 1405 c 2,14,-1
 1401 1011 l 1,15,-1
 1190 1011 l 1,0,-1
765 -22 m 0,16,17
 572 -22 572 -22 421.5 73.5 c 128,-1,18
 271 169 271 169 184 341.5 c 128,-1,19
 97 514 97 514 97 744 c 0,20,21
 97 979 97 979 185 1151.5 c 128,-1,22
 273 1324 273 1324 426.5 1418 c 128,-1,23
 580 1512 580 1512 775 1512 c 0,24,25
 897 1512 897 1512 1002.5 1475.5 c 128,-1,26
 1108 1439 1108 1439 1191 1372.5 c 128,-1,27
 1274 1306 1274 1306 1328.5 1214 c 128,-1,28
 1383 1122 1383 1122 1401 1011 c 1,29,-1
 1171 1011 l 1,30,31
 1153 1078 1153 1078 1118 1132.5 c 128,-1,32
 1083 1187 1083 1187 1032 1226 c 128,-1,33
 981 1265 981 1265 917 1286 c 128,-1,34
 853 1307 853 1307 778 1307 c 0,35,36
 645 1307 645 1307 542 1239.5 c 128,-1,37
 439 1172 439 1172 380.5 1046 c 128,-1,38
 322 920 322 920 322 744 c 0,39,40
 322 571 322 571 380.5 445 c 128,-1,41
 439 319 439 319 543 251 c 128,-1,42
 647 183 647 183 784 183 c 0,43,44
 905 183 905 183 997 234 c 128,-1,45
 1089 285 1089 285 1141.5 379 c 128,-1,46
 1194 473 1194 473 1194 603 c 1,47,-1
 1271 603 l 1,48,-1
 1271 482 l 2,49,50
 1271 385 1271 385 1241 294.5 c 128,-1,51
 1211 204 1211 204 1148.5 133 c 128,-1,52
 1086 62 1086 62 990.5 20 c 128,-1,53
 895 -22 895 -22 765 -22 c 0,16,17
1247 0 m 1,54,-1
 1214 328 l 1,55,-1
 1214 576 l 1,56,-1
 824 576 l 1,57,-1
 824 762 l 1,58,-1
 1413 762 l 1,59,-1
 1413 0 l 1,60,-1
 1247 0 l 1,54,-1
EndSplineSet
EndChar

StartChar: H
Encoding: 72 72 161
Width: 1491
GlyphClass: 2
Flags: W
AnchorPoint: "Anchor-3" 263 1 basechar 0
AnchorPoint: "Anchor-1" 746 1490 basechar 0
AnchorPoint: "Anchor-0" 746 0 basechar 0
LayerCount: 2
Fore
SplineSet
150 0 m 1,0,-1
 150 1490 l 1,1,-1
 376 1490 l 1,2,-1
 376 860 l 1,3,-1
 1115 860 l 1,4,-1
 1115 1490 l 1,5,-1
 1340 1490 l 1,6,-1
 1340 0 l 1,7,-1
 1115 0 l 1,8,-1
 1115 665 l 1,9,-1
 376 665 l 1,10,-1
 376 0 l 1,11,-1
 150 0 l 1,0,-1
EndSplineSet
Substitution2: "'c2sc' Capitals to Small Capitals in Latin lookup 68 subtable" h.sc
Substitution2: "'ss06' Style Set 6 in Latin lookup 52 subtable" H.squared
Substitution2: "'ss05' Style Set 5 in Latin lookup 51 subtable" uni24BD
Substitution2: "'aalt' Access All Alternates in Latin lookup 0 subtable" h.sc
Position2: "'cpsp' Capital Spacing in Latin lookup 0 subtable" dx=0 dy=0 dh=0 dv=0
EndChar

StartChar: Hbar
Encoding: 294 294 169
Width: 1569
GlyphClass: 2
Flags: W
AnchorPoint: "Anchor-3" 303 1 basechar 0
AnchorPoint: "Anchor-1" 785 1490 basechar 0
AnchorPoint: "Anchor-0" 785 0 basechar 0
LayerCount: 2
Fore
SplineSet
1499 1193 m 1,0,-1
 1499 1033 l 1,1,-1
 69 1033 l 1,2,-1
 69 1193 l 1,3,-1
 1499 1193 l 1,0,-1
190 0 m 1,4,-1
 190 1490 l 1,5,-1
 416 1490 l 1,6,-1
 416 860 l 1,7,-1
 1155 860 l 1,8,-1
 1155 1490 l 1,9,-1
 1380 1490 l 1,10,-1
 1380 0 l 1,11,-1
 1155 0 l 1,12,-1
 1155 665 l 1,13,-1
 416 665 l 1,14,-1
 416 0 l 1,15,-1
 190 0 l 1,4,-1
EndSplineSet
Position2: "'cpsp' Capital Spacing in Latin lookup 0 subtable" dx=0 dy=0 dh=0 dv=0
EndChar

StartChar: uni04C7
Encoding: 1223 1223 170
Width: 1491
GlyphClass: 2
Flags: W
AnchorPoint: "Anchor-3" 263 1 basechar 0
AnchorPoint: "Anchor-1" 746 1490 basechar 0
AnchorPoint: "Anchor-0" 746 0 basechar 0
LayerCount: 2
Fore
SplineSet
904 -418 m 1,0,-1
 904 -233 l 1,1,2
 922 -235 922 -235 948 -235.5 c 128,-1,3
 974 -236 974 -236 992 -236 c 0,4,5
 1061 -236 1061 -236 1088 -213 c 128,-1,6
 1115 -190 1115 -190 1115 -139 c 2,7,-1
 1115 127 l 1,8,-1
 1340 127 l 1,9,-1
 1340 -149 l 2,10,11
 1340 -284 1340 -284 1261.5 -353.5 c 128,-1,12
 1183 -423 1183 -423 1029 -423 c 0,13,14
 991 -423 991 -423 958.5 -422 c 128,-1,15
 926 -421 926 -421 904 -418 c 1,0,-1
150 0 m 1,16,-1
 150 1490 l 1,17,-1
 376 1490 l 1,18,-1
 376 860 l 1,19,-1
 1115 860 l 1,20,-1
 1115 1490 l 1,21,-1
 1340 1490 l 1,22,-1
 1340 0 l 1,23,-1
 1115 0 l 1,24,-1
 1115 665 l 1,25,-1
 376 665 l 1,26,-1
 376 0 l 1,27,-1
 150 0 l 1,16,-1
EndSplineSet
Position2: "'cpsp' Capital Spacing in Latin lookup 0 subtable" dx=0 dy=0 dh=0 dv=0
EndChar

StartChar: uni04A4
Encoding: 1188 1188 173
Width: 1995
GlyphClass: 2
Flags: W
AnchorPoint: "Anchor-3" 263 1 basechar 0
AnchorPoint: "Anchor-1" 746 1490 basechar 0
AnchorPoint: "Anchor-0" 746 0 basechar 0
LayerCount: 2
Fore
SplineSet
1926 1490 m 1,0,-1
 1926 1300 l 1,1,-1
 1288 1300 l 1,2,-1
 1121 1490 l 1,3,-1
 1926 1490 l 1,0,-1
150 0 m 1,4,-1
 150 1490 l 1,5,-1
 376 1490 l 1,6,-1
 376 860 l 1,7,-1
 1115 860 l 1,8,-1
 1115 1490 l 1,9,-1
 1340 1490 l 1,10,-1
 1340 0 l 1,11,-1
 1115 0 l 1,12,-1
 1115 665 l 1,13,-1
 376 665 l 1,14,-1
 376 0 l 1,15,-1
 150 0 l 1,4,-1
EndSplineSet
Position2: "'cpsp' Capital Spacing in Latin lookup 0 subtable" dx=0 dy=0 dh=0 dv=0
EndChar

StartChar: uni01F6
Encoding: 502 502 174
Width: 2217
Flags: W
LayerCount: 2
Fore
SplineSet
1602 -20 m 0,0,1
 1455 -20 1455 -20 1345.5 35 c 128,-1,2
 1236 90 1236 90 1175.5 194.5 c 128,-1,3
 1115 299 1115 299 1115 445 c 2,4,-1
 1115 657 l 1,5,-1
 376 657 l 1,6,-1
 376 0 l 1,7,-1
 150 0 l 1,8,-1
 150 1490 l 1,9,-1
 376 1490 l 1,10,-1
 376 852 l 1,11,-1
 1115 852 l 1,12,-1
 1115 1490 l 1,13,-1
 1341 1490 l 1,14,-1
 1341 451 l 2,15,16
 1341 360 1341 360 1371.5 298 c 128,-1,17
 1402 236 1402 236 1461 205 c 128,-1,18
 1520 174 1520 174 1602 174 c 0,19,20
 1686 174 1686 174 1744.5 205 c 128,-1,21
 1803 236 1803 236 1833 298 c 128,-1,22
 1863 360 1863 360 1863 451 c 2,23,-1
 1863 1082 l 1,24,-1
 2083 1082 l 1,25,-1
 2083 445 l 2,26,27
 2084 298 2084 298 2024 193.5 c 128,-1,28
 1964 89 1964 89 1855.5 34.5 c 128,-1,29
 1747 -20 1747 -20 1602 -20 c 0,0,1
EndSplineSet
Position2: "'cpsp' Capital Spacing in Latin lookup 0 subtable" dx=0 dy=0 dh=0 dv=0
EndChar

StartChar: I
Encoding: 73 73 197
Width: 526
GlyphClass: 2
Flags: W
AnchorPoint: "Anchor-4" 376 0 basechar 0
AnchorPoint: "Anchor-1" 264 1490 basechar 0
AnchorPoint: "Anchor-0" 263 0 basechar 0
LayerCount: 2
Fore
SplineSet
376 1490 m 1,0,-1
 376 0 l 1,1,-1
 150 0 l 1,2,-1
 150 1490 l 1,3,-1
 376 1490 l 1,0,-1
EndSplineSet
Substitution2: "'c2sc' Capitals to Small Capitals in Latin lookup 68 subtable" i.sc
Substitution2: "'cv08' Character Variants 08 in Latin lookup 62 subtable" I.1
Substitution2: "'ss06' Style Set 6 in Latin lookup 52 subtable" I.squared
Substitution2: "'ss05' Style Set 5 in Latin lookup 51 subtable" uni24BE
Substitution2: "'ss04' Style Set 4 in Latin lookup 50 subtable" I.1
Substitution2: "'ss02' Style Set 2 in Latin lookup 48 subtable" I.1
Substitution2: "'salt' Stylistic Alternatives in Latin lookup 46 subtable" I.1
Substitution2: "'aalt' Access All Alternates in Latin lookup 0 subtable" i.sc
Position2: "'cpsp' Capital Spacing in Latin lookup 0 subtable" dx=0 dy=0 dh=0 dv=0
EndChar

StartChar: I.1
Encoding: 57356 57356 235
Width: 829
GlyphClass: 2
Flags: W
AnchorPoint: "Anchor-4" 749 0 basechar 0
AnchorPoint: "Anchor-1" 415 1490 basechar 0
AnchorPoint: "Anchor-0" 415 0 basechar 0
LayerCount: 2
Fore
SplineSet
80 0 m 1,0,-1
 80 193 l 1,1,-1
 302 193 l 1,2,-1
 302 1297 l 1,3,-1
 80 1297 l 1,4,-1
 80 1490 l 1,5,-1
 749 1490 l 1,6,-1
 749 1297 l 1,7,-1
 527 1297 l 1,8,-1
 527 193 l 1,9,-1
 749 193 l 1,10,-1
 749 0 l 1,11,-1
 80 0 l 1,0,-1
EndSplineSet
EndChar

StartChar: J
Encoding: 74 74 267
Width: 1146
GlyphClass: 2
Flags: W
AnchorPoint: "Anchor-1" 887 1490 basechar 0
LayerCount: 2
Fore
SplineSet
539 -20 m 0,0,1
 333 -20 333 -20 206.5 97.5 c 128,-1,2
 80 215 80 215 80 433 c 2,3,-1
 80 518 l 1,4,-1
 303 518 l 1,5,-1
 303 432 l 2,6,7
 303 306 303 306 367 240 c 128,-1,8
 431 174 431 174 538 174 c 256,9,10
 645 174 645 174 709.5 240 c 128,-1,11
 774 306 774 306 774 432 c 2,12,-1
 774 1490 l 1,13,-1
 999 1490 l 1,14,-1
 999 432 l 2,15,16
 999 215 999 215 873 97.5 c 128,-1,17
 747 -20 747 -20 539 -20 c 0,0,1
EndSplineSet
Substitution2: "'ss06' Style Set 6 in Latin lookup 52 subtable" J.squared
Substitution2: "'ss05' Style Set 5 in Latin lookup 51 subtable" uni24BF
Position2: "'cpsp' Capital Spacing in Latin lookup 0 subtable" dx=0 dy=0 dh=0 dv=0
EndChar

StartChar: K
Encoding: 75 75 272
Width: 1372
GlyphClass: 2
Flags: W
AnchorPoint: "Anchor-1" 694 1490 basechar 0
AnchorPoint: "Anchor-0" 694 0 basechar 0
LayerCount: 2
Fore
SplineSet
309 392 m 1,0,-1
 309 649 l 1,1,2
 360 716 360 716 409.5 777.5 c 128,-1,3
 459 839 459 839 512 900 c 128,-1,4
 565 961 565 961 621 1025 c 2,5,-1
 1042 1490 l 1,6,-1
 1328 1490 l 1,7,-1
 694 794 l 1,8,-1
 680 797 l 1,9,-1
 309 392 l 1,0,-1
150 0 m 1,10,-1
 150 1490 l 1,11,-1
 376 1490 l 1,12,-1
 376 1011 l 1,13,-1
 374 672 l 1,14,-1
 376 563 l 1,15,-1
 376 0 l 1,16,-1
 150 0 l 1,10,-1
1069 0 m 1,17,-1
 559 733 l 1,18,-1
 697 906 l 1,19,-1
 1334 0 l 1,20,-1
 1069 0 l 1,17,-1
EndSplineSet
Substitution2: "'ss06' Style Set 6 in Latin lookup 52 subtable" K.squared
Substitution2: "'ss05' Style Set 5 in Latin lookup 51 subtable" uni24C0
Position2: "'cpsp' Capital Spacing in Latin lookup 0 subtable" dx=0 dy=0 dh=0 dv=0
EndChar

StartChar: uni04A0
Encoding: 1184 1184 278
Width: 1711
GlyphClass: 2
Flags: W
AnchorPoint: "Anchor-1" 1013 1490 basechar 0
LayerCount: 2
Fore
SplineSet
598 1490 m 1,0,-1
 598 1298 l 1,1,-1
 69 1298 l 1,2,-1
 69 1490 l 1,3,-1
 598 1490 l 1,0,-1
489 0 m 1,4,-1
 489 1490 l 1,5,-1
 715 1490 l 1,6,-1
 715 857 l 1,7,-1
 907 857 l 1,8,-1
 1379 1490 l 1,9,-1
 1648 1490 l 1,10,-1
 1097 767 l 1,11,-1
 1673 0 l 1,12,-1
 1405 0 l 1,13,-1
 913 661 l 1,14,-1
 715 661 l 1,15,-1
 715 0 l 1,16,-1
 489 0 l 1,4,-1
EndSplineSet
Position2: "'cpsp' Capital Spacing in Latin lookup 0 subtable" dx=0 dy=0 dh=0 dv=0
EndChar

StartChar: uni0198
Encoding: 408 408 280
Width: 1388
Flags: W
LayerCount: 2
Fore
SplineSet
150 0 m 1,0,-1
 150 1490 l 1,1,-1
 375 1490 l 1,2,-1
 375 783 l 1,3,-1
 393 783 l 1,4,-1
 951 1391 l 2,5,6
 1015 1459 1015 1459 1088.5 1487 c 128,-1,7
 1162 1515 1162 1515 1238.5 1505.5 c 128,-1,8
 1315 1496 1315 1496 1386 1449 c 1,9,-1
 1304 1286 l 1,10,11
 1251 1317 1251 1317 1203 1306.5 c 128,-1,12
 1155 1296 1155 1296 1101 1239 c 2,13,-1
 701 814 l 1,14,-1
 1322 0 l 1,15,-1
 1051 0 l 1,16,-1
 560 655 l 1,17,-1
 375 450 l 1,18,-1
 375 0 l 1,19,-1
 150 0 l 1,0,-1
EndSplineSet
Position2: "'cpsp' Capital Spacing in Latin lookup 0 subtable" dx=0 dy=0 dh=0 dv=0
EndChar

StartChar: L
Encoding: 76 76 282
Width: 1134
GlyphClass: 2
Flags: W
AnchorPoint: "Anchor-1" 263 1490 basechar 0
AnchorPoint: "Anchor-0" 601 0 basechar 0
LayerCount: 2
Fore
SplineSet
150 0 m 1,0,-1
 150 1490 l 1,1,-1
 376 1490 l 1,2,-1
 376 195 l 1,3,-1
 1065 195 l 1,4,-1
 1065 0 l 1,5,-1
 150 0 l 1,0,-1
EndSplineSet
Substitution2: "'c2sc' Capitals to Small Capitals in Latin lookup 68 subtable" l.sc
Substitution2: "'ss06' Style Set 6 in Latin lookup 52 subtable" L.squared
Substitution2: "'ss05' Style Set 5 in Latin lookup 51 subtable" uni24C1
Substitution2: "'aalt' Access All Alternates in Latin lookup 0 subtable" l.sc
Position2: "'cpsp' Capital Spacing in Latin lookup 0 subtable" dx=0 dy=0 dh=0 dv=0
EndChar

StartChar: M
Encoding: 77 77 293
Width: 1825
GlyphClass: 2
Flags: W
AnchorPoint: "Anchor-1" 912 1490 basechar 0
AnchorPoint: "Anchor-0" 912 0 basechar 0
LayerCount: 2
Fore
SplineSet
150 0 m 1,0,-1
 150 1490 l 1,1,-1
 475 1490 l 1,2,-1
 804 626 l 2,3,4
 818 589 818 589 836.5 532.5 c 128,-1,5
 855 476 855 476 874.5 412.5 c 128,-1,6
 894 349 894 349 911 290 c 128,-1,7
 928 231 928 231 940 187 c 1,8,-1
 889 187 l 1,9,10
 901 230 901 230 918.5 289 c 128,-1,11
 936 348 936 348 955.5 411.5 c 128,-1,12
 975 475 975 475 993 531.5 c 128,-1,13
 1011 588 1011 588 1025 626 c 2,14,-1
 1350 1490 l 1,15,-1
 1675 1490 l 1,16,-1
 1675 0 l 1,17,-1
 1452 0 l 1,18,-1
 1452 807 l 2,19,20
 1452 855 1452 855 1453 916.5 c 128,-1,21
 1454 978 1454 978 1455.5 1046.5 c 128,-1,22
 1457 1115 1457 1115 1459 1184.5 c 128,-1,23
 1461 1254 1461 1254 1462 1318 c 1,24,-1
 1485 1318 l 1,25,26
 1463 1245 1463 1245 1439 1170.5 c 128,-1,27
 1415 1096 1415 1096 1392.5 1027.5 c 128,-1,28
 1370 959 1370 959 1350.5 902.5 c 128,-1,29
 1331 846 1331 846 1316 807 c 2,30,-1
 1008 0 l 1,31,-1
 818 0 l 1,32,-1
 505 807 l 2,33,34
 491 846 491 846 471.5 902 c 128,-1,35
 452 958 452 958 429 1025.5 c 128,-1,36
 406 1093 406 1093 381.5 1168 c 128,-1,37
 357 1243 357 1243 332 1318 c 1,38,-1
 361 1318 l 1,39,40
 363 1256 363 1256 364.5 1187.5 c 128,-1,41
 366 1119 366 1119 367.5 1050.5 c 128,-1,42
 369 982 369 982 370.5 919 c 128,-1,43
 372 856 372 856 372 807 c 2,44,-1
 372 0 l 1,45,-1
 150 0 l 1,0,-1
EndSplineSet
Substitution2: "'c2sc' Capitals to Small Capitals in Latin lookup 68 subtable" m.sc
Substitution2: "'ss06' Style Set 6 in Latin lookup 52 subtable" M.squared
Substitution2: "'ss05' Style Set 5 in Latin lookup 51 subtable" uni24C2
Substitution2: "'aalt' Access All Alternates in Latin lookup 0 subtable" m.sc
Position2: "'cpsp' Capital Spacing in Latin lookup 0 subtable" dx=0 dy=0 dh=0 dv=0
EndChar

StartChar: N
Encoding: 78 78 301
Width: 1507
GlyphClass: 2
Flags: W
AnchorPoint: "Anchor-1" 754 1490 basechar 0
AnchorPoint: "Anchor-0" 754 0 basechar 0
LayerCount: 2
Fore
SplineSet
150 0 m 1,0,-1
 150 1490 l 1,1,-1
 405 1490 l 1,2,-1
 970 597 l 2,3,4
 995 559 995 559 1028 501.5 c 128,-1,5
 1061 444 1061 444 1098.5 374.5 c 128,-1,6
 1136 305 1136 305 1172 231 c 1,7,-1
 1146 205 l 1,8,9
 1140 276 1140 276 1136.5 356.5 c 128,-1,10
 1133 437 1133 437 1131.5 508.5 c 128,-1,11
 1130 580 1130 580 1130 623 c 2,12,-1
 1130 1490 l 1,13,-1
 1357 1490 l 1,14,-1
 1357 0 l 1,15,-1
 1100 0 l 1,16,-1
 595 799 l 2,17,18
 563 850 563 850 524.5 915 c 128,-1,19
 486 980 486 980 438 1065.5 c 128,-1,20
 390 1151 390 1151 327 1263 c 1,21,-1
 361 1285 l 1,22,23
 367 1173 367 1173 370.5 1078.5 c 128,-1,24
 374 984 374 984 376 913 c 128,-1,25
 378 842 378 842 378 801 c 2,26,-1
 378 0 l 1,27,-1
 150 0 l 1,0,-1
EndSplineSet
Substitution2: "'c2sc' Capitals to Small Capitals in Latin lookup 68 subtable" n.sc
Substitution2: "'ss06' Style Set 6 in Latin lookup 52 subtable" N.squared
Substitution2: "'ss05' Style Set 5 in Latin lookup 51 subtable" uni24C3
Substitution2: "'aalt' Access All Alternates in Latin lookup 0 subtable" n.sc
Position2: "'cpsp' Capital Spacing in Latin lookup 0 subtable" dx=0 dy=0 dh=0 dv=0
EndChar

StartChar: Nhook
Encoding: 413 413 311
Width: 1507
GlyphClass: 2
Flags: W
AnchorPoint: "Anchor-1" 754 1490 basechar 0
AnchorPoint: "Anchor-0" 754 0 basechar 0
LayerCount: 2
Fore
SplineSet
-60 -418 m 1,0,-1
 -60 -233 l 1,1,2
 -43 -235 -43 -235 -17 -235.5 c 128,-1,3
 9 -236 9 -236 27 -236 c 0,4,5
 97 -236 97 -236 123.5 -213 c 128,-1,6
 150 -190 150 -190 150 -139 c 2,7,-1
 150 127 l 1,8,-1
 376 127 l 1,9,-1
 376 -149 l 2,10,11
 376 -284 376 -284 297 -353.5 c 128,-1,12
 218 -423 218 -423 65 -423 c 0,13,14
 26 -423 26 -423 -6.5 -422 c 128,-1,15
 -39 -421 -39 -421 -60 -418 c 1,0,-1
150 0 m 1,16,-1
 150 1490 l 1,17,-1
 405 1490 l 1,18,-1
 970 597 l 2,19,20
 995 559 995 559 1028 501.5 c 128,-1,21
 1061 444 1061 444 1098.5 374.5 c 128,-1,22
 1136 305 1136 305 1172 231 c 1,23,-1
 1146 205 l 1,24,25
 1140 276 1140 276 1136.5 356.5 c 128,-1,26
 1133 437 1133 437 1131.5 508.5 c 128,-1,27
 1130 580 1130 580 1130 623 c 2,28,-1
 1130 1490 l 1,29,-1
 1357 1490 l 1,30,-1
 1357 0 l 1,31,-1
 1100 0 l 1,32,-1
 595 799 l 2,33,34
 563 850 563 850 524.5 915 c 128,-1,35
 486 980 486 980 438 1065.5 c 128,-1,36
 390 1151 390 1151 327 1263 c 1,37,-1
 361 1285 l 1,38,39
 367 1173 367 1173 370.5 1078.5 c 128,-1,40
 374 984 374 984 376 913 c 128,-1,41
 378 842 378 842 378 801 c 2,42,-1
 378 0 l 1,43,-1
 150 0 l 1,16,-1
EndSplineSet
Position2: "'cpsp' Capital Spacing in Latin lookup 0 subtable" dx=0 dy=0 dh=0 dv=0
EndChar

StartChar: Eng
Encoding: 330 330 312
Width: 1507
GlyphClass: 2
Flags: W
AnchorPoint: "Anchor-1" 754 1490 basechar 0
AnchorPoint: "Anchor-0" 754 0 basechar 0
LayerCount: 2
Fore
SplineSet
925 -418 m 1,0,-1
 925 -233 l 1,1,2
 942 -235 942 -235 968.5 -235.5 c 128,-1,3
 995 -236 995 -236 1012 -236 c 0,4,5
 1082 -236 1082 -236 1108.5 -213 c 128,-1,6
 1135 -190 1135 -190 1135 -139 c 2,7,-1
 1135 127 l 1,8,-1
 1361 127 l 1,9,-1
 1361 -149 l 2,10,11
 1361 -284 1361 -284 1282 -353.5 c 128,-1,12
 1203 -423 1203 -423 1050 -423 c 0,13,14
 1012 -423 1012 -423 979 -422 c 128,-1,15
 946 -421 946 -421 925 -418 c 1,0,-1
150 0 m 1,16,-1
 150 1490 l 1,17,-1
 405 1490 l 1,18,-1
 970 597 l 2,19,20
 995 559 995 559 1028 501.5 c 128,-1,21
 1061 444 1061 444 1098.5 374.5 c 128,-1,22
 1136 305 1136 305 1172 231 c 1,23,-1
 1146 205 l 1,24,25
 1140 276 1140 276 1136.5 356.5 c 128,-1,26
 1133 437 1133 437 1131.5 508.5 c 128,-1,27
 1130 580 1130 580 1130 623 c 2,28,-1
 1130 1490 l 1,29,-1
 1357 1490 l 1,30,-1
 1357 0 l 1,31,-1
 1100 0 l 1,32,-1
 595 799 l 2,33,34
 563 850 563 850 524.5 915 c 128,-1,35
 486 980 486 980 438 1065.5 c 128,-1,36
 390 1151 390 1151 327 1263 c 1,37,-1
 361 1285 l 1,38,39
 367 1173 367 1173 370.5 1078.5 c 128,-1,40
 374 984 374 984 376 913 c 128,-1,41
 378 842 378 842 378 801 c 2,42,-1
 378 0 l 1,43,-1
 150 0 l 1,16,-1
EndSplineSet
Position2: "'cpsp' Capital Spacing in Latin lookup 0 subtable" dx=0 dy=0 dh=0 dv=0
EndChar

StartChar: uni0418
Encoding: 1048 1048 313
Width: 1507
GlyphClass: 2
Flags: W
AnchorPoint: "Anchor-1" 753 1490 basechar 0
AnchorPoint: "Anchor-0" 753 0 basechar 0
LayerCount: 2
Fore
SplineSet
1357 0 m 1,0,-1
 1129 0 l 1,1,-1
 1129 801 l 2,2,3
 1129 842 1129 842 1131.5 913 c 128,-1,4
 1134 984 1134 984 1137.5 1078.5 c 128,-1,5
 1141 1173 1141 1173 1146 1285 c 1,6,-1
 1180 1263 l 1,7,8
 1118 1151 1118 1151 1069.5 1065.5 c 128,-1,9
 1021 980 1021 980 983 915 c 128,-1,10
 945 850 945 850 913 799 c 2,11,-1
 407 0 l 1,12,-1
 150 0 l 1,13,-1
 150 1490 l 1,14,-1
 377 1490 l 1,15,-1
 377 623 l 2,16,17
 377 580 377 580 375.5 508.5 c 128,-1,18
 374 437 374 437 370.5 356.5 c 128,-1,19
 367 276 367 276 361 205 c 1,20,-1
 336 231 l 1,21,22
 372 305 372 305 409.5 374.5 c 128,-1,23
 447 444 447 444 480.5 501.5 c 128,-1,24
 514 559 514 559 537 597 c 2,25,-1
 1102 1490 l 1,26,-1
 1357 1490 l 1,27,-1
 1357 0 l 1,0,-1
EndSplineSet
Position2: "'cpsp' Capital Spacing in Latin lookup 0 subtable" dx=0 dy=0 dh=0 dv=0
EndChar

StartChar: O
Encoding: 79 79 322
Width: 1551
GlyphClass: 2
Flags: W
AnchorPoint: "Anchor-4" 1455 744 basechar 0
AnchorPoint: "Anchor-1" 777 1490 basechar 0
AnchorPoint: "Anchor-0" 777 0 basechar 0
LayerCount: 2
Fore
SplineSet
777 -22 m 0,0,1
 581 -22 581 -22 427 72.5 c 128,-1,2
 273 167 273 167 185 339.5 c 128,-1,3
 97 512 97 512 97 744 c 0,4,5
 97 978 97 978 185 1150.5 c 128,-1,6
 273 1323 273 1323 427 1417.5 c 128,-1,7
 581 1512 581 1512 777 1512 c 0,8,9
 972 1512 972 1512 1125.5 1417.5 c 128,-1,10
 1279 1323 1279 1323 1367 1150.5 c 128,-1,11
 1455 978 1455 978 1455 744 c 0,12,13
 1455 512 1455 512 1367 339.5 c 128,-1,14
 1279 167 1279 167 1125.5 72.5 c 128,-1,15
 972 -22 972 -22 777 -22 c 0,0,1
777 183 m 0,16,17
 904 183 904 183 1006.5 248 c 128,-1,18
 1109 313 1109 313 1169.5 438.5 c 128,-1,19
 1230 564 1230 564 1230 744 c 0,20,21
 1230 926 1230 926 1169.5 1051.5 c 128,-1,22
 1109 1177 1109 1177 1006.5 1242 c 128,-1,23
 904 1307 904 1307 777 1307 c 0,24,25
 648 1307 648 1307 545 1242 c 128,-1,26
 442 1177 442 1177 382 1051.5 c 128,-1,27
 322 926 322 926 322 744 c 0,28,29
 322 564 322 564 382 439 c 128,-1,30
 442 314 442 314 545 248.5 c 128,-1,31
 648 183 648 183 777 183 c 0,16,17
EndSplineSet
Substitution2: "'ss06' Style Set 6 in Latin lookup 52 subtable" O.squared
Substitution2: "'ss05' Style Set 5 in Latin lookup 51 subtable" uni24C4
Substitution2: "Single Substitution lookup 44 subtable" ordmasculine
Substitution2: "'aalt' Access All Alternates in Latin lookup 0 subtable" ordmasculine
Position2: "'cpsp' Capital Spacing in Latin lookup 0 subtable" dx=0 dy=0 dh=0 dv=0
EndChar

StartChar: Ohorn
Encoding: 416 416 326
Width: 1553
GlyphClass: 2
Flags: W
AnchorPoint: "Anchor-4" 1455 744 basechar 0
AnchorPoint: "Anchor-1" 777 1490 basechar 0
AnchorPoint: "Anchor-0" 777 0 basechar 0
LayerCount: 2
Fore
SplineSet
777 1358 m 1,0,-1
 777 1512 l 1,1,2
 834 1512 834 1512 872 1509 c 128,-1,3
 910 1506 910 1506 951.5 1501.5 c 128,-1,4
 993 1497 993 1497 1058 1493.5 c 128,-1,5
 1123 1490 1123 1490 1231 1490 c 0,6,7
 1252 1490 1252 1490 1252 1511 c 2,8,-1
 1252 1714 l 1,9,-1
 1454 1714 l 1,10,-1
 1454 1511 l 2,11,12
 1454 1420 1454 1420 1406 1376.5 c 128,-1,13
 1358 1333 1358 1333 1268 1333 c 0,14,15
 1224 1333 1224 1333 1185.5 1337 c 128,-1,16
 1147 1341 1147 1341 1097 1346 c 128,-1,17
 1047 1351 1047 1351 971.5 1354.5 c 128,-1,18
 896 1358 896 1358 777 1358 c 1,0,-1
777 -22 m 0,19,20
 581 -22 581 -22 427 72.5 c 128,-1,21
 273 167 273 167 185 339.5 c 128,-1,22
 97 512 97 512 97 744 c 0,23,24
 97 978 97 978 185 1150.5 c 128,-1,25
 273 1323 273 1323 427 1417.5 c 128,-1,26
 581 1512 581 1512 777 1512 c 0,27,28
 972 1512 972 1512 1125.5 1417.5 c 128,-1,29
 1279 1323 1279 1323 1367 1150.5 c 128,-1,30
 1455 978 1455 978 1455 744 c 0,31,32
 1455 512 1455 512 1367 339.5 c 128,-1,33
 1279 167 1279 167 1125.5 72.5 c 128,-1,34
 972 -22 972 -22 777 -22 c 0,19,20
777 183 m 0,35,36
 904 183 904 183 1006.5 248 c 128,-1,37
 1109 313 1109 313 1169.5 438.5 c 128,-1,38
 1230 564 1230 564 1230 744 c 0,39,40
 1230 926 1230 926 1169.5 1051.5 c 128,-1,41
 1109 1177 1109 1177 1006.5 1242 c 128,-1,42
 904 1307 904 1307 777 1307 c 0,43,44
 648 1307 648 1307 545 1242 c 128,-1,45
 442 1177 442 1177 382 1051.5 c 128,-1,46
 322 926 322 926 322 744 c 0,47,48
 322 564 322 564 382 439 c 128,-1,49
 442 314 442 314 545 248.5 c 128,-1,50
 648 183 648 183 777 183 c 0,35,36
EndSplineSet
Position2: "'cpsp' Capital Spacing in Latin lookup 0 subtable" dx=0 dy=0 dh=0 dv=0
EndChar

StartChar: uni03F4
Encoding: 1012 1012 368
Width: 1551
GlyphClass: 2
Flags: W
AnchorPoint: "Anchor-4" 1455 744 basechar 0
AnchorPoint: "Anchor-1" 777 1490 basechar 0
AnchorPoint: "Anchor-0" 777 0 basechar 0
LayerCount: 2
Fore
SplineSet
1274 831 m 1,0,-1
 1274 658 l 1,1,-1
 270 658 l 1,2,-1
 270 831 l 1,3,-1
 1274 831 l 1,0,-1
777 -22 m 0,4,5
 581 -22 581 -22 427 72.5 c 128,-1,6
 273 167 273 167 185 339.5 c 128,-1,7
 97 512 97 512 97 744 c 0,8,9
 97 978 97 978 185 1150.5 c 128,-1,10
 273 1323 273 1323 427 1417.5 c 128,-1,11
 581 1512 581 1512 777 1512 c 0,12,13
 972 1512 972 1512 1125.5 1417.5 c 128,-1,14
 1279 1323 1279 1323 1367 1150.5 c 128,-1,15
 1455 978 1455 978 1455 744 c 0,16,17
 1455 512 1455 512 1367 339.5 c 128,-1,18
 1279 167 1279 167 1125.5 72.5 c 128,-1,19
 972 -22 972 -22 777 -22 c 0,4,5
777 183 m 0,20,21
 904 183 904 183 1006.5 248 c 128,-1,22
 1109 313 1109 313 1169.5 438.5 c 128,-1,23
 1230 564 1230 564 1230 744 c 0,24,25
 1230 926 1230 926 1169.5 1051.5 c 128,-1,26
 1109 1177 1109 1177 1006.5 1242 c 128,-1,27
 904 1307 904 1307 777 1307 c 0,28,29
 648 1307 648 1307 545 1242 c 128,-1,30
 442 1177 442 1177 382 1051.5 c 128,-1,31
 322 926 322 926 322 744 c 0,32,33
 322 564 322 564 382 439 c 128,-1,34
 442 314 442 314 545 248.5 c 128,-1,35
 648 183 648 183 777 183 c 0,20,21
EndSplineSet
Position2: "'cpsp' Capital Spacing in Latin lookup 0 subtable" dx=0 dy=0 dh=0 dv=0
EndChar

StartChar: OE
Encoding: 338 338 375
Width: 2059
GlyphClass: 2
Flags: W
AnchorPoint: "Anchor-4" 1962 0 basechar 0
AnchorPoint: "Anchor-3" 1480 0 basechar 0
AnchorPoint: "Anchor-1" 1475 1490 basechar 0
AnchorPoint: "Anchor-0" 1475 0 basechar 0
LayerCount: 2
Fore
SplineSet
797 0 m 2,0,1
 582 0 582 0 425.5 92 c 128,-1,2
 269 184 269 184 183 351 c 128,-1,3
 97 518 97 518 97 746 c 256,4,5
 97 974 97 974 182.5 1141 c 128,-1,6
 268 1308 268 1308 423.5 1399 c 128,-1,7
 579 1490 579 1490 790 1490 c 2,8,-1
 1098 1490 l 1,9,-1
 1098 1294 l 1,10,-1
 799 1294 l 2,11,12
 646 1294 646 1294 539 1229 c 128,-1,13
 432 1164 432 1164 375.5 1041.5 c 128,-1,14
 319 919 319 919 319 746 c 0,15,16
 319 574 319 574 375.5 451 c 128,-1,17
 432 328 432 328 540.5 262 c 128,-1,18
 649 196 649 196 805 196 c 2,19,-1
 1093 196 l 1,20,-1
 1093 0 l 1,21,-1
 797 0 l 2,0,1
989 0 m 1,22,-1
 989 1490 l 1,23,-1
 1958 1490 l 1,24,-1
 1958 1295 l 1,25,-1
 1214 1295 l 1,26,-1
 1214 853 l 1,27,-1
 1905 853 l 1,28,-1
 1905 660 l 1,29,-1
 1214 660 l 1,30,-1
 1214 195 l 1,31,-1
 1962 195 l 1,32,-1
 1962 0 l 1,33,-1
 989 0 l 1,22,-1
EndSplineSet
Substitution2: "'c2sc' Capitals to Small Capitals in Latin lookup 68 subtable" oe.sc
Substitution2: "'aalt' Access All Alternates in Latin lookup 0 subtable" oe.sc
Position2: "'cpsp' Capital Spacing in Latin lookup 0 subtable" dx=0 dy=0 dh=0 dv=0
EndChar

StartChar: P
Encoding: 80 80 376
Width: 1291
GlyphClass: 2
Flags: W
AnchorPoint: "Anchor-1" 638 1490 basechar 0
LayerCount: 2
Fore
SplineSet
150 0 m 1,0,-1
 150 1490 l 1,1,-1
 693 1490 l 2,2,3
 859 1490 859 1490 974.5 1430 c 128,-1,4
 1090 1370 1090 1370 1150.5 1263 c 128,-1,5
 1211 1156 1211 1156 1211 1016 c 256,6,7
 1211 876 1211 876 1150 769.5 c 128,-1,8
 1089 663 1089 663 972.5 602 c 128,-1,9
 856 541 856 541 689 541 c 2,10,-1
 292 541 l 1,11,-1
 292 735 l 1,12,-1
 676 735 l 2,13,14
 779 735 779 735 848 770.5 c 128,-1,15
 917 806 917 806 951.5 869.5 c 128,-1,16
 986 933 986 933 986 1016 c 0,17,18
 986 1101 986 1101 951.5 1163.5 c 128,-1,19
 917 1226 917 1226 848 1261.5 c 128,-1,20
 779 1297 779 1297 675 1297 c 2,21,-1
 376 1297 l 1,22,-1
 376 0 l 1,23,-1
 150 0 l 1,0,-1
EndSplineSet
Substitution2: "'ss06' Style Set 6 in Latin lookup 52 subtable" P.squared
Substitution2: "'ss05' Style Set 5 in Latin lookup 51 subtable" uni24C5
Position2: "'cpsp' Capital Spacing in Latin lookup 0 subtable" dx=0 dy=0 dh=0 dv=0
EndChar

StartChar: uni048E
Encoding: 1166 1166 379
Width: 1287
GlyphClass: 2
Flags: W
AnchorPoint: "Anchor-1" 640 1490 basechar 0
LayerCount: 2
Fore
SplineSet
792 964 m 1,0,-1
 1113 468 l 1,1,-1
 980 383 l 1,2,-1
 658 878 l 1,3,-1
 792 964 l 1,0,-1
152 0 m 1,4,-1
 152 1490 l 1,5,-1
 695 1490 l 2,6,7
 862 1490 862 1490 977.5 1430 c 128,-1,8
 1093 1370 1093 1370 1153 1263 c 128,-1,9
 1213 1156 1213 1156 1213 1016 c 256,10,11
 1213 876 1213 876 1152 769.5 c 128,-1,12
 1091 663 1091 663 974.5 602 c 128,-1,13
 858 541 858 541 692 541 c 2,14,-1
 294 541 l 1,15,-1
 294 735 l 1,16,-1
 678 735 l 2,17,18
 781 735 781 735 850 770.5 c 128,-1,19
 919 806 919 806 954 869.5 c 128,-1,20
 989 933 989 933 989 1016 c 0,21,22
 989 1101 989 1101 954 1163.5 c 128,-1,23
 919 1226 919 1226 850 1261.5 c 128,-1,24
 781 1297 781 1297 677 1297 c 2,25,-1
 378 1297 l 1,26,-1
 378 0 l 1,27,-1
 152 0 l 1,4,-1
EndSplineSet
Position2: "'cpsp' Capital Spacing in Latin lookup 0 subtable" dx=0 dy=0 dh=0 dv=0
EndChar

StartChar: uni01A4
Encoding: 420 420 380
Width: 1607
GlyphClass: 2
Flags: W
AnchorPoint: "Anchor-1" 954 1490 basechar 0
LayerCount: 2
Fore
SplineSet
49 1071 m 1,0,-1
 49 1194 l 2,1,2
 49 1342 49 1342 128 1416 c 128,-1,3
 207 1490 207 1490 366 1490 c 2,4,-1
 467 1490 l 1,5,-1
 467 1297 l 1,6,-1
 379 1297 l 2,7,8
 315 1297 315 1297 286 1269.5 c 128,-1,9
 257 1242 257 1242 257 1183 c 2,10,-1
 257 1071 l 1,11,-1
 49 1071 l 1,0,-1
466 0 m 1,12,-1
 466 1490 l 1,13,-1
 1009 1490 l 2,14,15
 1175 1490 1175 1490 1290.5 1430 c 128,-1,16
 1406 1370 1406 1370 1466.5 1263 c 128,-1,17
 1527 1156 1527 1156 1527 1016 c 256,18,19
 1527 876 1527 876 1466 769.5 c 128,-1,20
 1405 663 1405 663 1288.5 602 c 128,-1,21
 1172 541 1172 541 1005 541 c 2,22,-1
 608 541 l 1,23,-1
 608 735 l 1,24,-1
 992 735 l 2,25,26
 1095 735 1095 735 1164 770.5 c 128,-1,27
 1233 806 1233 806 1267.5 869.5 c 128,-1,28
 1302 933 1302 933 1302 1016 c 0,29,30
 1302 1101 1302 1101 1267.5 1163.5 c 128,-1,31
 1233 1226 1233 1226 1164 1261.5 c 128,-1,32
 1095 1297 1095 1297 991 1297 c 2,33,-1
 692 1297 l 1,34,-1
 692 0 l 1,35,-1
 466 0 l 1,12,-1
EndSplineSet
Position2: "'cpsp' Capital Spacing in Latin lookup 0 subtable" dx=0 dy=0 dh=0 dv=0
EndChar

StartChar: Q
Encoding: 81 81 383
Width: 1554
GlyphClass: 2
Flags: W
AnchorPoint: "Anchor-4" 1455 744 basechar 0
AnchorPoint: "Anchor-1" 777 1490 basechar 0
AnchorPoint: "Anchor-0" 777 0 basechar 0
LayerCount: 2
Fore
SplineSet
694 481 m 1,0,-1
 913 481 l 1,1,-1
 1070 277 l 1,2,-1
 1139 190 l 1,3,-1
 1388 -135 l 1,4,-1
 1162 -135 l 1,5,-1
 997 81 l 1,6,-1
 940 158 l 1,7,-1
 694 481 l 1,0,-1
777 -22 m 0,8,9
 581 -22 581 -22 427 72.5 c 128,-1,10
 273 167 273 167 185 339.5 c 128,-1,11
 97 512 97 512 97 744 c 0,12,13
 97 978 97 978 185 1150.5 c 128,-1,14
 273 1323 273 1323 427 1417.5 c 128,-1,15
 581 1512 581 1512 777 1512 c 0,16,17
 972 1512 972 1512 1125.5 1417.5 c 128,-1,18
 1279 1323 1279 1323 1367 1150.5 c 128,-1,19
 1455 978 1455 978 1455 744 c 0,20,21
 1455 512 1455 512 1367 339.5 c 128,-1,22
 1279 167 1279 167 1125.5 72.5 c 128,-1,23
 972 -22 972 -22 777 -22 c 0,8,9
777 183 m 0,24,25
 904 183 904 183 1006.5 248 c 128,-1,26
 1109 313 1109 313 1169.5 438.5 c 128,-1,27
 1230 564 1230 564 1230 744 c 0,28,29
 1230 926 1230 926 1169.5 1051.5 c 128,-1,30
 1109 1177 1109 1177 1006.5 1242 c 128,-1,31
 904 1307 904 1307 777 1307 c 0,32,33
 648 1307 648 1307 545 1242 c 128,-1,34
 442 1177 442 1177 382 1051.5 c 128,-1,35
 322 926 322 926 322 744 c 0,36,37
 322 564 322 564 382 439 c 128,-1,38
 442 314 442 314 545 248.5 c 128,-1,39
 648 183 648 183 777 183 c 0,24,25
EndSplineSet
Substitution2: "'ss06' Style Set 6 in Latin lookup 52 subtable" Q.squared
Substitution2: "'ss05' Style Set 5 in Latin lookup 51 subtable" uni24C6
Position2: "'cpsp' Capital Spacing in Latin lookup 0 subtable" dx=0 dy=0 dh=0 dv=0
EndChar

StartChar: Q_rthook
Encoding: 586 586 384
Width: 1554
GlyphClass: 2
Flags: W
LayerCount: 2
Fore
SplineSet
1404 1490 m 1,0,-1
 1404 0 l 1,1,-1
 1188 0 l 1,2,-1
 1188 231 l 1,3,-1
 1181 231 l 1,4,5
 1126 113 1126 113 1008 45 c 128,-1,6
 890 -23 890 -23 738 -23 c 0,7,8
 597 -23 597 -23 480 34 c 128,-1,9
 363 91 363 91 277 194.5 c 128,-1,10
 191 298 191 298 144 439 c 128,-1,11
 97 580 97 580 97 747 c 0,12,13
 97 913 97 913 144.5 1052.5 c 128,-1,14
 192 1192 192 1192 278 1295 c 128,-1,15
 364 1398 364 1398 481 1455 c 128,-1,16
 598 1512 598 1512 738 1512 c 0,17,18
 890 1512 890 1512 1008 1444.5 c 128,-1,19
 1126 1377 1126 1377 1181 1265 c 1,20,-1
 1188 1265 l 1,21,-1
 1188 1490 l 1,22,-1
 1404 1490 l 1,0,-1
757 183 m 0,23,24
 900 183 900 183 996 254.5 c 128,-1,25
 1092 326 1092 326 1141 453.5 c 128,-1,26
 1190 581 1190 581 1190 747 c 0,27,28
 1190 912 1190 912 1140 1039 c 128,-1,29
 1090 1166 1090 1166 994 1237.5 c 128,-1,30
 898 1309 898 1309 759 1309 c 0,31,32
 628 1309 628 1309 529.5 1237.5 c 128,-1,33
 431 1166 431 1166 377 1039.5 c 128,-1,34
 323 913 323 913 323 747 c 0,35,36
 323 575 323 575 377.5 448 c 128,-1,37
 432 321 432 321 530 252 c 128,-1,38
 628 183 628 183 757 183 c 0,23,24
1498 -423 m 0,39,40
 1345 -423 1345 -423 1266.5 -353.5 c 128,-1,41
 1188 -284 1188 -284 1188 -149 c 2,42,-1
 1188 0 l 1,43,-1
 1404 0 l 1,44,-1
 1404 -147 l 2,45,46
 1404 -199 1404 -199 1433.5 -222 c 128,-1,47
 1463 -245 1463 -245 1531 -245 c 0,48,49
 1550 -245 1550 -245 1576 -244.5 c 128,-1,50
 1602 -244 1602 -244 1620 -243 c 1,51,-1
 1620 -418 l 1,52,53
 1598 -421 1598 -421 1567.5 -422 c 128,-1,54
 1537 -423 1537 -423 1498 -423 c 0,39,40
EndSplineSet
Position2: "'cpsp' Capital Spacing in Latin lookup 0 subtable" dx=0 dy=0 dh=0 dv=0
EndChar

StartChar: R
Encoding: 82 82 385
Width: 1318
GlyphClass: 2
Flags: W
AnchorPoint: "Anchor-1" 653 1490 basechar 0
AnchorPoint: "Anchor-0" 669 0 basechar 0
LayerCount: 2
Fore
SplineSet
150 0 m 1,0,-1
 150 1490 l 1,1,-1
 701 1490 l 2,2,3
 868 1490 868 1490 983.5 1432 c 128,-1,4
 1099 1374 1099 1374 1159 1269 c 128,-1,5
 1219 1164 1219 1164 1219 1024 c 256,6,7
 1219 884 1219 884 1157 780.5 c 128,-1,8
 1095 677 1095 677 977.5 620.5 c 128,-1,9
 860 564 860 564 692 564 c 2,10,-1
 280 564 l 1,11,-1
 280 755 l 1,12,-1
 685 755 l 2,13,14
 787 755 787 755 855.5 787.5 c 128,-1,15
 924 820 924 820 959 880.5 c 128,-1,16
 994 941 994 941 994 1024 c 0,17,18
 994 1108 994 1108 959.5 1169 c 128,-1,19
 925 1230 925 1230 856 1263.5 c 128,-1,20
 787 1297 787 1297 684 1297 c 2,21,-1
 376 1297 l 1,22,-1
 376 0 l 1,23,-1
 150 0 l 1,0,-1
1004 0 m 1,24,-1
 647 673 l 1,25,-1
 895 673 l 1,26,-1
 1259 0 l 1,27,-1
 1004 0 l 1,24,-1
EndSplineSet
Substitution2: "'c2sc' Capitals to Small Capitals in Latin lookup 68 subtable" r.sc
Substitution2: "'ss06' Style Set 6 in Latin lookup 52 subtable" R.squared
Substitution2: "'ss05' Style Set 5 in Latin lookup 51 subtable" uni24C7
Substitution2: "'aalt' Access All Alternates in Latin lookup 0 subtable" r.sc
Position2: "'cpsp' Capital Spacing in Latin lookup 0 subtable" dx=0 dy=0 dh=0 dv=0
EndChar

StartChar: uni211F
Encoding: 8479 8479 395
Width: 1295
GlyphClass: 2
Flags: W
AnchorPoint: "Anchor-1" 654 1490 basechar 0
AnchorPoint: "Anchor-0" 671 0 basechar 0
LayerCount: 2
Fore
SplineSet
965 1688 m 1,0,-1
 428 -356 l 1,1,-1
 313 -334 l 1,2,-1
 829 1616 l 1,3,-1
 512 1705 l 1,4,-1
 550 1813 l 1,5,-1
 965 1688 l 1,0,-1
152 0 m 1,6,-1
 152 1490 l 1,7,-1
 703 1490 l 2,8,9
 869 1490 869 1490 984.5 1432 c 128,-1,10
 1100 1374 1100 1374 1160.5 1269 c 128,-1,11
 1221 1164 1221 1164 1221 1024 c 256,12,13
 1221 884 1221 884 1158.5 780.5 c 128,-1,14
 1096 677 1096 677 978.5 620.5 c 128,-1,15
 861 564 861 564 694 564 c 2,16,-1
 281 564 l 1,17,-1
 281 755 l 1,18,-1
 687 755 l 2,19,20
 789 755 789 755 857.5 787.5 c 128,-1,21
 926 820 926 820 960.5 880.5 c 128,-1,22
 995 941 995 941 995 1024 c 0,23,24
 995 1108 995 1108 960.5 1169 c 128,-1,25
 926 1230 926 1230 857 1263.5 c 128,-1,26
 788 1297 788 1297 685 1297 c 2,27,-1
 377 1297 l 1,28,-1
 377 0 l 1,29,-1
 152 0 l 1,6,-1
1005 0 m 1,30,-1
 648 673 l 1,31,-1
 897 673 l 1,32,-1
 1260 0 l 1,33,-1
 1005 0 l 1,30,-1
EndSplineSet
EndChar

StartChar: Rx
Encoding: 8478 8478 396
Width: 1428
Flags: W
LayerCount: 2
Fore
SplineSet
150 1490 m 1,0,-1
 674 1490 l 2,1,2
 853 1490 853 1490 966.5 1429.5 c 128,-1,3
 1080 1369 1080 1369 1134.5 1265 c 128,-1,4
 1189 1161 1189 1161 1189 1030 c 0,5,6
 1189 914 1189 914 1147.5 826 c 128,-1,7
 1106 738 1106 738 1030 679 c 128,-1,8
 954 620 954 620 848 590 c 1,9,-1
 788 570 l 1,10,-1
 312 570 l 1,11,-1
 311 767 l 1,12,-1
 659 767 l 2,13,14
 773 767 773 767 840 799.5 c 128,-1,15
 907 832 907 832 937 891 c 128,-1,16
 967 950 967 950 967 1028 c 0,17,18
 967 1097 967 1097 941 1158 c 128,-1,19
 915 1219 915 1219 852 1258.5 c 128,-1,20
 789 1298 789 1298 674 1298 c 2,21,-1
 375 1298 l 1,22,-1
 375 0 l 1,23,-1
 150 0 l 1,24,-1
 150 1490 l 1,0,-1
1130 0 m 1,25,-1
 652 661 l 1,26,-1
 877 661 l 1,27,-1
 1361 0 l 1,28,-1
 1130 0 l 1,25,-1
871 0 m 1,29,-1
 658 0 l 1,30,-1
 1141 661 l 1,31,-1
 1348 661 l 1,32,-1
 871 0 l 1,29,-1
EndSplineSet
EndChar

StartChar: uni024C
Encoding: 588 588 397
Width: 1314
GlyphClass: 2
Flags: W
AnchorPoint: "Anchor-1" 675 1490 basechar 0
AnchorPoint: "Anchor-0" 692 0 basechar 0
LayerCount: 2
Fore
SplineSet
300 572 m 1,0,-1
 7 572 l 1,1,-1
 7 756 l 1,2,-1
 300 756 l 1,3,-1
 300 572 l 1,0,-1
173 0 m 1,4,-1
 173 1490 l 1,5,-1
 724 1490 l 2,6,7
 890 1490 890 1490 1006 1432 c 128,-1,8
 1122 1374 1122 1374 1182 1269 c 128,-1,9
 1242 1164 1242 1164 1242 1024 c 256,10,11
 1242 884 1242 884 1179.5 780.5 c 128,-1,12
 1117 677 1117 677 999.5 620.5 c 128,-1,13
 882 564 882 564 715 564 c 2,14,-1
 302 564 l 1,15,-1
 302 755 l 1,16,-1
 708 755 l 2,17,18
 810 755 810 755 878.5 787.5 c 128,-1,19
 947 820 947 820 981.5 880.5 c 128,-1,20
 1016 941 1016 941 1016 1024 c 0,21,22
 1016 1108 1016 1108 981.5 1169 c 128,-1,23
 947 1230 947 1230 878 1263.5 c 128,-1,24
 809 1297 809 1297 706 1297 c 2,25,-1
 398 1297 l 1,26,-1
 398 0 l 1,27,-1
 173 0 l 1,4,-1
1027 0 m 1,28,-1
 670 673 l 1,29,-1
 918 673 l 1,30,-1
 1282 0 l 1,31,-1
 1027 0 l 1,28,-1
EndSplineSet
Position2: "'cpsp' Capital Spacing in Latin lookup 0 subtable" dx=0 dy=0 dh=0 dv=0
EndChar

StartChar: S
Encoding: 83 83 398
Width: 1304
GlyphClass: 2
Flags: W
AnchorPoint: "Anchor-3" 655 0 basechar 0
AnchorPoint: "Anchor-1" 650 1490 basechar 0
AnchorPoint: "Anchor-0" 655 0 basechar 0
LayerCount: 2
Fore
SplineSet
659 -24 m 0,0,1
 486 -24 486 -24 360 33 c 128,-1,2
 234 90 234 90 164.5 196 c 128,-1,3
 95 302 95 302 91 448 c 1,4,-1
 316 448 l 1,5,6
 320 359 320 359 364 297 c 128,-1,7
 408 235 408 235 484.5 203.5 c 128,-1,8
 561 172 561 172 659 172 c 256,9,10
 757 172 757 172 831 201.5 c 128,-1,11
 905 231 905 231 947.5 285 c 128,-1,12
 990 339 990 339 990 412 c 0,13,14
 990 473 990 473 957 515 c 128,-1,15
 924 557 924 557 861 586.5 c 128,-1,16
 798 616 798 616 706 639 c 2,17,-1
 536 682 l 2,18,19
 332 734 332 734 229 830.5 c 128,-1,20
 126 927 126 927 126 1081 c 0,21,22
 126 1210 126 1210 194 1307 c 128,-1,23
 262 1404 262 1404 381.5 1458 c 128,-1,24
 501 1512 501 1512 656 1512 c 0,25,26
 812 1512 812 1512 929.5 1457 c 128,-1,27
 1047 1402 1047 1402 1113 1302.5 c 128,-1,28
 1179 1203 1179 1203 1183 1071 c 1,29,-1
 964 1071 l 1,30,31
 955 1187 955 1187 870.5 1252 c 128,-1,32
 786 1317 786 1317 652 1317 c 0,33,34
 562 1317 562 1317 494 1287.5 c 128,-1,35
 426 1258 426 1258 388.5 1208 c 128,-1,36
 351 1158 351 1158 351 1092 c 0,37,38
 351 1030 351 1030 387 988 c 128,-1,39
 423 946 423 946 485.5 918.5 c 128,-1,40
 548 891 548 891 627 871 c 2,41,-1
 780 832 l 2,42,43
 872 811 872 811 950.5 776.5 c 128,-1,44
 1029 742 1029 742 1088.5 692.5 c 128,-1,45
 1148 643 1148 643 1180.5 574.5 c 128,-1,46
 1213 506 1213 506 1213 416 c 0,47,48
 1213 286 1213 286 1146 187 c 128,-1,49
 1079 88 1079 88 955 32 c 128,-1,50
 831 -24 831 -24 659 -24 c 0,0,1
EndSplineSet
Substitution2: "'ss06' Style Set 6 in Latin lookup 52 subtable" S.squared
Substitution2: "'ss05' Style Set 5 in Latin lookup 51 subtable" uni24C8
Position2: "'cpsp' Capital Spacing in Latin lookup 0 subtable" dx=0 dy=0 dh=0 dv=0
EndChar

StartChar: uni01A7
Encoding: 423 423 410
Width: 1304
GlyphClass: 2
Flags: W
AnchorPoint: "Anchor-3" 650 0 basechar 0
AnchorPoint: "Anchor-1" 654 1490 basechar 0
AnchorPoint: "Anchor-0" 649 0 basechar 0
LayerCount: 2
Fore
SplineSet
646 -24 m 0,0,1
 474 -24 474 -24 349 32 c 128,-1,2
 224 88 224 88 157.5 187 c 128,-1,3
 91 286 91 286 91 416 c 0,4,5
 91 506 91 506 124 574.5 c 128,-1,6
 157 643 157 643 215.5 692.5 c 128,-1,7
 274 742 274 742 353.5 776.5 c 128,-1,8
 433 811 433 811 524 832 c 2,9,-1
 676 871 l 2,10,11
 757 891 757 891 819.5 918.5 c 128,-1,12
 882 946 882 946 918 988 c 128,-1,13
 954 1030 954 1030 954 1092 c 0,14,15
 954 1158 954 1158 915.5 1208 c 128,-1,16
 877 1258 877 1258 810 1287.5 c 128,-1,17
 743 1317 743 1317 652 1317 c 0,18,19
 519 1317 519 1317 434 1252 c 128,-1,20
 349 1187 349 1187 339 1071 c 1,21,-1
 121 1071 l 1,22,23
 125 1203 125 1203 191 1302.5 c 128,-1,24
 257 1402 257 1402 374 1457 c 128,-1,25
 491 1512 491 1512 648 1512 c 0,26,27
 803 1512 803 1512 923 1458 c 128,-1,28
 1043 1404 1043 1404 1110.5 1307 c 128,-1,29
 1178 1210 1178 1210 1178 1081 c 0,30,31
 1178 927 1178 927 1075 830.5 c 128,-1,32
 972 734 972 734 767 682 c 2,33,-1
 599 639 l 2,34,35
 508 616 508 616 444 586.5 c 128,-1,36
 380 557 380 557 347.5 515 c 128,-1,37
 315 473 315 473 315 412 c 0,38,39
 315 339 315 339 357 285 c 128,-1,40
 399 231 399 231 473.5 201.5 c 128,-1,41
 548 172 548 172 646 172 c 0,42,43
 745 172 745 172 820.5 203.5 c 128,-1,44
 896 235 896 235 940 297 c 128,-1,45
 984 359 984 359 988 448 c 1,46,-1
 1213 448 l 1,47,48
 1210 302 1210 302 1140.5 196 c 128,-1,49
 1071 90 1071 90 945 33 c 128,-1,50
 819 -24 819 -24 646 -24 c 0,0,1
EndSplineSet
Position2: "'cpsp' Capital Spacing in Latin lookup 0 subtable" dx=0 dy=0 dh=0 dv=0
EndChar

StartChar: uni1E9E
Encoding: 7838 7838 411
Width: 1393
Flags: W
LayerCount: 2
Fore
SplineSet
150 0 m 1,0,-1
 150 987 l 2,1,2
 150 1158 150 1158 206 1275 c 128,-1,3
 262 1392 262 1392 370 1451 c 128,-1,4
 478 1510 478 1510 635 1510 c 0,5,6
 745 1510 745 1510 842 1479.5 c 128,-1,7
 939 1449 939 1449 1025 1395.5 c 128,-1,8
 1111 1342 1111 1342 1186 1275 c 1,9,-1
 854 855 l 1,10,11
 996 844 996 844 1096 788.5 c 128,-1,12
 1196 733 1196 733 1249 640 c 128,-1,13
 1302 547 1302 547 1302 423 c 0,14,15
 1302 282 1302 282 1236.5 183.5 c 128,-1,16
 1171 85 1171 85 1056 32.5 c 128,-1,17
 941 -20 941 -20 793 -20 c 0,18,19
 720 -20 720 -20 644 -6.5 c 128,-1,20
 568 7 568 7 496 34 c 1,21,-1
 564 218 l 1,22,23
 609 199 609 199 665 184.5 c 128,-1,24
 721 170 721 170 787 170 c 0,25,26
 921 170 921 170 994 238 c 128,-1,27
 1067 306 1067 306 1067 426 c 0,28,29
 1067 518 1067 518 1031 571 c 128,-1,30
 995 624 995 624 943 649 c 128,-1,31
 891 674 891 674 840 681 c 128,-1,32
 789 688 789 688 758 688 c 2,33,-1
 616 688 l 1,34,-1
 616 855 l 1,35,-1
 903 1230 l 1,36,37
 857 1263 857 1263 793.5 1292 c 128,-1,38
 730 1321 730 1321 642 1321 c 0,39,40
 538 1321 538 1321 479.5 1274.5 c 128,-1,41
 421 1228 421 1228 398 1152 c 128,-1,42
 375 1076 375 1076 375 986 c 2,43,-1
 375 0 l 1,44,-1
 150 0 l 1,0,-1
EndSplineSet
Position2: "'cpsp' Capital Spacing in Latin lookup 0 subtable" dx=0 dy=0 dh=0 dv=0
EndChar

StartChar: T
Encoding: 84 84 412
Width: 1302
GlyphClass: 2
Flags: W
AnchorPoint: "Anchor-3" 653 0 basechar 0
AnchorPoint: "Anchor-1" 652 1490 basechar 0
AnchorPoint: "Anchor-0" 652 0 basechar 0
LayerCount: 2
Fore
SplineSet
69 1295 m 1,0,-1
 69 1490 l 1,1,-1
 1233 1490 l 1,2,-1
 1233 1295 l 1,3,-1
 765 1295 l 1,4,-1
 765 0 l 1,5,-1
 540 0 l 1,6,-1
 540 1295 l 1,7,-1
 69 1295 l 1,0,-1
EndSplineSet
Substitution2: "'c2sc' Capitals to Small Capitals in Latin lookup 68 subtable" t.sc
Substitution2: "'ss06' Style Set 6 in Latin lookup 52 subtable" T.squared
Substitution2: "'ss05' Style Set 5 in Latin lookup 51 subtable" uni24C9
Substitution2: "'aalt' Access All Alternates in Latin lookup 0 subtable" t.sc
Position2: "'cpsp' Capital Spacing in Latin lookup 0 subtable" dx=0 dy=0 dh=0 dv=0
EndChar

StartChar: uni01AC
Encoding: 428 428 420
Width: 1333
GlyphClass: 2
Flags: W
AnchorPoint: "Anchor-1" 686 1490 basechar 0
LayerCount: 2
Fore
SplineSet
66 1071 m 1,0,-1
 66 1194 l 2,1,2
 66 1342 66 1342 145 1416 c 128,-1,3
 224 1490 224 1490 383 1490 c 2,4,-1
 484 1490 l 1,5,-1
 484 1297 l 1,6,-1
 396 1297 l 2,7,8
 333 1297 333 1297 304 1269.5 c 128,-1,9
 275 1242 275 1242 275 1183 c 2,10,-1
 275 1071 l 1,11,-1
 66 1071 l 1,0,-1
484 1296 m 1,12,-1
 484 1490 l 1,13,-1
 1264 1490 l 1,14,-1
 1264 1296 l 1,15,-1
 799 1296 l 1,16,-1
 799 0 l 1,17,-1
 574 0 l 1,18,-1
 574 1296 l 1,19,-1
 484 1296 l 1,12,-1
EndSplineSet
Position2: "'cpsp' Capital Spacing in Latin lookup 0 subtable" dx=0 dy=0 dh=0 dv=0
EndChar

StartChar: uni01AC.base
Encoding: 60940 60940 421
Width: 1299
GlyphClass: 2
Flags: W
AnchorPoint: "Anchor-1" 652 1490 basechar 0
LayerCount: 2
Fore
SplineSet
450 1296 m 1,0,-1
 450 1490 l 1,1,-1
 1230 1490 l 1,2,-1
 1230 1296 l 1,3,-1
 766 1296 l 1,4,-1
 766 0 l 1,5,-1
 540 0 l 1,6,-1
 540 1296 l 1,7,-1
 450 1296 l 1,0,-1
EndSplineSet
EndChar

StartChar: Trthook
Encoding: 430 430 422
Width: 1302
GlyphClass: 2
Flags: W
AnchorPoint: "Anchor-3" 653 0 basechar 0
AnchorPoint: "Anchor-1" 652 1490 basechar 0
AnchorPoint: "Anchor-0" 652 0 basechar 0
LayerCount: 2
Fore
SplineSet
849 -423 m 0,0,1
 696 -423 696 -423 618 -353.5 c 128,-1,2
 540 -284 540 -284 540 -149 c 2,3,-1
 540 168 l 1,4,-1
 765 168 l 1,5,-1
 765 -146 l 2,6,7
 765 -197 765 -197 794 -219.5 c 128,-1,8
 823 -242 823 -242 893 -242 c 0,9,10
 910 -242 910 -242 936.5 -241.5 c 128,-1,11
 963 -241 963 -241 980 -240 c 1,12,-1
 980 -418 l 1,13,14
 958 -421 958 -421 924 -422 c 128,-1,15
 890 -423 890 -423 849 -423 c 0,0,1
69 1295 m 1,16,-1
 69 1490 l 1,17,-1
 1233 1490 l 1,18,-1
 1233 1295 l 1,19,-1
 765 1295 l 1,20,-1
 765 0 l 1,21,-1
 540 0 l 1,22,-1
 540 1295 l 1,23,-1
 69 1295 l 1,16,-1
EndSplineSet
Position2: "'cpsp' Capital Spacing in Latin lookup 0 subtable" dx=0 dy=0 dh=0 dv=0
EndChar

StartChar: uni023E
Encoding: 574 574 423
Width: 1302
GlyphClass: 2
Flags: W
AnchorPoint: "Anchor-3" 653 0 basechar 0
AnchorPoint: "Anchor-1" 652 1490 basechar 0
AnchorPoint: "Anchor-0" 652 0 basechar 0
LayerCount: 2
Fore
SplineSet
195 -209 m 1,0,-1
 964 1699 l 1,1,-1
 1109 1699 l 1,2,-1
 340 -209 l 1,3,-1
 195 -209 l 1,0,-1
69 1295 m 1,4,-1
 69 1490 l 1,5,-1
 1233 1490 l 1,6,-1
 1233 1295 l 1,7,-1
 765 1295 l 1,8,-1
 765 0 l 1,9,-1
 540 0 l 1,10,-1
 540 1295 l 1,11,-1
 69 1295 l 1,4,-1
EndSplineSet
Position2: "'cpsp' Capital Spacing in Latin lookup 0 subtable" dx=0 dy=0 dh=0 dv=0
EndChar

StartChar: U
Encoding: 85 85 425
Width: 1478
GlyphClass: 2
Flags: W
AnchorPoint: "Anchor-4" 1331 512 basechar 0
AnchorPoint: "Anchor-1" 740 1490 basechar 0
AnchorPoint: "Anchor-0" 740 0 basechar 0
LayerCount: 2
Fore
SplineSet
740 -23 m 0,0,1
 561 -23 561 -23 427.5 45.5 c 128,-1,2
 294 114 294 114 220.5 235 c 128,-1,3
 147 356 147 356 147 512 c 2,4,-1
 147 1490 l 1,5,-1
 371 1490 l 1,6,-1
 371 529 l 2,7,8
 371 428 371 428 416.5 349.5 c 128,-1,9
 462 271 462 271 544 226 c 128,-1,10
 626 181 626 181 740 181 c 0,11,12
 853 181 853 181 935.5 226 c 128,-1,13
 1018 271 1018 271 1062.5 349.5 c 128,-1,14
 1107 428 1107 428 1107 529 c 2,15,-1
 1107 1490 l 1,16,-1
 1331 1490 l 1,17,-1
 1331 512 l 2,18,19
 1331 356 1331 356 1257.5 235 c 128,-1,20
 1184 114 1184 114 1051 45.5 c 128,-1,21
 918 -23 918 -23 740 -23 c 0,0,1
EndSplineSet
Substitution2: "'ss06' Style Set 6 in Latin lookup 52 subtable" U.squared
Substitution2: "'ss05' Style Set 5 in Latin lookup 51 subtable" uni24CA
Position2: "'cpsp' Capital Spacing in Latin lookup 0 subtable" dx=0 dy=0 dh=0 dv=0
EndChar

StartChar: Uhorn
Encoding: 431 431 426
Width: 1476
GlyphClass: 2
Flags: W
AnchorPoint: "Anchor-4" 1331 512 basechar 0
AnchorPoint: "Anchor-1" 740 1490 basechar 0
AnchorPoint: "Anchor-0" 740 0 basechar 0
LayerCount: 2
Fore
SplineSet
1108 1331 m 1,0,-1
 1108 1490 l 1,1,-1
 1287 1490 l 2,2,3
 1307 1490 1307 1490 1307 1511 c 2,4,-1
 1307 1714 l 1,5,-1
 1509 1714 l 1,6,-1
 1509 1511 l 2,7,8
 1509 1420 1509 1420 1461.5 1375.5 c 128,-1,9
 1414 1331 1414 1331 1324 1331 c 2,10,-1
 1108 1331 l 1,0,-1
740 -23 m 0,11,12
 561 -23 561 -23 427.5 45.5 c 128,-1,13
 294 114 294 114 220.5 235 c 128,-1,14
 147 356 147 356 147 512 c 2,15,-1
 147 1490 l 1,16,-1
 371 1490 l 1,17,-1
 371 529 l 2,18,19
 371 428 371 428 416.5 349.5 c 128,-1,20
 462 271 462 271 544 226 c 128,-1,21
 626 181 626 181 740 181 c 0,22,23
 853 181 853 181 935.5 226 c 128,-1,24
 1018 271 1018 271 1062.5 349.5 c 128,-1,25
 1107 428 1107 428 1107 529 c 2,26,-1
 1107 1490 l 1,27,-1
 1331 1490 l 1,28,-1
 1331 512 l 2,29,30
 1331 356 1331 356 1257.5 235 c 128,-1,31
 1184 114 1184 114 1051 45.5 c 128,-1,32
 918 -23 918 -23 740 -23 c 0,11,12
EndSplineSet
Position2: "'cpsp' Capital Spacing in Latin lookup 0 subtable" dx=0 dy=0 dh=0 dv=0
EndChar

StartChar: uni0244
Encoding: 580 580 456
Width: 1500
GlyphClass: 2
Flags: W
AnchorPoint: "Anchor-4" 1342 512 basechar 0
AnchorPoint: "Anchor-1" 751 1490 basechar 0
AnchorPoint: "Anchor-0" 751 0 basechar 0
LayerCount: 2
Fore
SplineSet
1522 859 m 1,0,-1
 1522 721 l 1,1,-1
 -22 721 l 1,2,-1
 -22 859 l 1,3,-1
 1522 859 l 1,0,-1
751 -23 m 0,4,5
 572 -23 572 -23 438.5 45.5 c 128,-1,6
 305 114 305 114 231.5 235 c 128,-1,7
 158 356 158 356 158 512 c 2,8,-1
 158 1490 l 1,9,-1
 383 1490 l 1,10,-1
 383 529 l 2,11,12
 383 428 383 428 428 349.5 c 128,-1,13
 473 271 473 271 555 226 c 128,-1,14
 637 181 637 181 751 181 c 0,15,16
 864 181 864 181 946.5 226 c 128,-1,17
 1029 271 1029 271 1073.5 349.5 c 128,-1,18
 1118 428 1118 428 1118 529 c 2,19,-1
 1118 1490 l 1,20,-1
 1342 1490 l 1,21,-1
 1342 512 l 2,22,23
 1342 356 1342 356 1268.5 235 c 128,-1,24
 1195 114 1195 114 1062 45.5 c 128,-1,25
 929 -23 929 -23 751 -23 c 0,4,5
EndSplineSet
Position2: "'cpsp' Capital Spacing in Latin lookup 0 subtable" dx=0 dy=0 dh=0 dv=0
EndChar

StartChar: V
Encoding: 86 86 457
Width: 1413
GlyphClass: 2
Flags: W
AnchorPoint: "Anchor-1" 707 1490 basechar 0
AnchorPoint: "Anchor-0" 707 0 basechar 0
LayerCount: 2
Fore
SplineSet
574 0 m 1,0,-1
 34 1490 l 1,1,-1
 276 1490 l 1,2,-1
 569 655 l 2,3,4
 600 561 600 561 642 424 c 128,-1,5
 684 287 684 287 741 99 c 1,6,-1
 685 99 l 1,7,8
 740 290 740 290 781.5 425.5 c 128,-1,9
 823 561 823 561 853 655 c 2,10,-1
 1138 1490 l 1,11,-1
 1380 1490 l 1,12,-1
 847 0 l 1,13,-1
 574 0 l 1,0,-1
EndSplineSet
Substitution2: "'ss06' Style Set 6 in Latin lookup 52 subtable" V.squared
Substitution2: "'ss05' Style Set 5 in Latin lookup 51 subtable" uni24CB
Position2: "'cpsp' Capital Spacing in Latin lookup 0 subtable" dx=0 dy=0 dh=0 dv=0
EndChar

StartChar: W
Encoding: 87 87 460
Width: 2015
GlyphClass: 2
Flags: W
AnchorPoint: "Anchor-1" 1008 1490 basechar 0
AnchorPoint: "Anchor-0" 1008 0 basechar 0
LayerCount: 2
Fore
SplineSet
438 0 m 1,0,-1
 34 1490 l 1,1,-1
 269 1490 l 1,2,-1
 487 630 l 2,3,4
 506 551 506 551 523.5 469 c 128,-1,5
 541 387 541 387 557.5 304.5 c 128,-1,6
 574 222 574 222 589 139 c 1,7,-1
 555 139 l 1,8,9
 571 222 571 222 587.5 304.5 c 128,-1,10
 604 387 604 387 622.5 469 c 128,-1,11
 641 551 641 551 661 630 c 2,12,-1
 885 1490 l 1,13,-1
 1131 1490 l 1,14,-1
 1353 630 l 2,15,16
 1374 551 1374 551 1392 469 c 128,-1,17
 1410 387 1410 387 1427.5 304.5 c 128,-1,18
 1445 222 1445 222 1461 139 c 1,19,-1
 1425 139 l 1,20,21
 1440 222 1440 222 1456.5 304.5 c 128,-1,22
 1473 387 1473 387 1491.5 469 c 128,-1,23
 1510 551 1510 551 1528 630 c 2,24,-1
 1744 1490 l 1,25,-1
 1981 1490 l 1,26,-1
 1576 0 l 1,27,-1
 1317 0 l 1,28,-1
 1076 897 l 2,29,30
 1050 997 1050 997 1027.5 1109.5 c 128,-1,31
 1005 1222 1005 1222 980 1352 c 1,32,-1
 1033 1352 l 1,33,34
 1009 1226 1009 1226 987.5 1114.5 c 128,-1,35
 966 1003 966 1003 938 897 c 2,36,-1
 698 0 l 1,37,-1
 438 0 l 1,0,-1
EndSplineSet
Substitution2: "'ss06' Style Set 6 in Latin lookup 52 subtable" W.squared
Substitution2: "'ss05' Style Set 5 in Latin lookup 51 subtable" uni24CC
Position2: "'cpsp' Capital Spacing in Latin lookup 0 subtable" dx=0 dy=0 dh=0 dv=0
EndChar

StartChar: X
Encoding: 88 88 467
Width: 1397
GlyphClass: 2
Flags: W
AnchorPoint: "Anchor-1" 698 1490 basechar 0
AnchorPoint: "Anchor-0" 698 -1 basechar 0
LayerCount: 2
Fore
SplineSet
38 0 m 1,0,-1
 631 845 l 1,1,-1
 631 677 l 1,2,-1
 76 1490 l 1,3,-1
 336 1490 l 1,4,-1
 535 1193 l 2,5,6
 575 1134 575 1134 606 1084.5 c 128,-1,7
 637 1035 637 1035 665.5 986.5 c 128,-1,8
 694 938 694 938 724 883 c 1,9,-1
 677 883 l 1,10,11
 708 939 708 939 737 987 c 128,-1,12
 766 1035 766 1035 797.5 1084.5 c 128,-1,13
 829 1134 829 1134 869 1193 c 2,14,-1
 1072 1490 l 1,15,-1
 1326 1490 l 1,16,-1
 775 689 l 1,17,-1
 775 852 l 1,18,-1
 1359 0 l 1,19,-1
 1098 0 l 1,20,-1
 853 359 l 2,21,22
 816 412 816 412 787.5 456.5 c 128,-1,23
 759 501 759 501 733 544 c 128,-1,24
 707 587 707 587 678 638 c 1,25,-1
 720 638 l 1,26,27
 692 588 692 588 665 544.5 c 128,-1,28
 638 501 638 501 609 457 c 128,-1,29
 580 413 580 413 543 359 c 2,30,-1
 295 0 l 1,31,-1
 38 0 l 1,0,-1
EndSplineSet
Substitution2: "'ss06' Style Set 6 in Latin lookup 52 subtable" X.squared
Substitution2: "'ss05' Style Set 5 in Latin lookup 51 subtable" uni24CD
Position2: "'cpsp' Capital Spacing in Latin lookup 0 subtable" dx=0 dy=0 dh=0 dv=0
EndChar

StartChar: Y
Encoding: 89 89 473
Width: 1387
GlyphClass: 2
Flags: W
AnchorPoint: "Anchor-4" 807 0 basechar 0
AnchorPoint: "Anchor-1" 694 1490 basechar 0
AnchorPoint: "Anchor-0" 695 0 basechar 0
LayerCount: 2
Fore
SplineSet
583 0 m 1,0,-1
 583 594 l 1,1,-1
 34 1490 l 1,2,-1
 295 1490 l 1,3,-1
 577 1018 l 2,4,5
 621 944 621 944 658 874 c 128,-1,6
 695 804 695 804 734 717 c 1,7,-1
 660 717 l 1,8,9
 698 805 698 805 735.5 875.5 c 128,-1,10
 773 946 773 946 815 1018 c 2,11,-1
 1094 1490 l 1,12,-1
 1353 1490 l 1,13,-1
 807 594 l 1,14,-1
 807 0 l 1,15,-1
 583 0 l 1,0,-1
EndSplineSet
Substitution2: "'c2sc' Capitals to Small Capitals in Latin lookup 68 subtable" y.sc
Substitution2: "'ss06' Style Set 6 in Latin lookup 52 subtable" Y.squared
Substitution2: "'ss05' Style Set 5 in Latin lookup 51 subtable" uni24CE
Substitution2: "'aalt' Access All Alternates in Latin lookup 0 subtable" y.sc
Position2: "'cpsp' Capital Spacing in Latin lookup 0 subtable" dx=0 dy=0 dh=0 dv=0
EndChar

StartChar: uni01B3
Encoding: 435 435 474
Width: 1474
Flags: W
LayerCount: 2
Fore
SplineSet
686 778 m 1,0,-1
 686 812 l 1,1,-1
 722 812 l 1,2,-1
 722 778 l 1,3,-1
 686 778 l 1,0,-1
41 1490 m 1,4,-1
 292 1490 l 1,5,-1
 704 798 l 1,6,-1
 1021 1330 l 2,7,8
 1074 1418 1074 1418 1144.5 1461.5 c 128,-1,9
 1215 1505 1215 1505 1294.5 1508 c 128,-1,10
 1374 1511 1374 1511 1452 1477 c 1,11,-1
 1397 1301 l 1,12,13
 1337 1323 1337 1323 1291 1309 c 128,-1,14
 1245 1295 1245 1295 1205 1229 c 2,15,-1
 816 602 l 1,16,-1
 816 0 l 1,17,-1
 593 0 l 1,18,-1
 593 602 l 1,19,-1
 41 1490 l 1,4,-1
EndSplineSet
Position2: "'cpsp' Capital Spacing in Latin lookup 0 subtable" dx=0 dy=0 dh=0 dv=0
EndChar

StartChar: uni024E
Encoding: 590 590 484
Width: 1375
GlyphClass: 2
Flags: W
AnchorPoint: "Anchor-4" 807 0 basechar 0
AnchorPoint: "Anchor-1" 694 1490 basechar 0
AnchorPoint: "Anchor-0" 695 0 basechar 0
LayerCount: 2
Fore
SplineSet
1379 1183 m 1,0,-1
 1379 1050 l 1,1,-1
 -5 1050 l 1,2,-1
 -5 1183 l 1,3,-1
 1379 1183 l 1,0,-1
583 0 m 1,4,-1
 583 594 l 1,5,-1
 34 1490 l 1,6,-1
 295 1490 l 1,7,-1
 577 1018 l 2,8,9
 621 944 621 944 658 874 c 128,-1,10
 695 804 695 804 734 717 c 1,11,-1
 660 717 l 1,12,13
 698 805 698 805 735.5 875.5 c 128,-1,14
 773 946 773 946 815 1018 c 2,15,-1
 1094 1490 l 1,16,-1
 1353 1490 l 1,17,-1
 807 594 l 1,18,-1
 807 0 l 1,19,-1
 583 0 l 1,4,-1
EndSplineSet
Position2: "'cpsp' Capital Spacing in Latin lookup 0 subtable" dx=0 dy=0 dh=0 dv=0
EndChar

StartChar: Z
Encoding: 90 90 497
Width: 1291
GlyphClass: 2
Flags: W
AnchorPoint: "Anchor-1" 646 1490 basechar 0
AnchorPoint: "Anchor-0" 643 0 basechar 0
LayerCount: 2
Fore
SplineSet
91 0 m 1,0,-1
 91 165 l 1,1,-1
 784 1107 l 2,2,3
 833 1174 833 1174 888 1241.5 c 128,-1,4
 943 1309 943 1309 998 1376 c 1,5,-1
 1023 1300 l 1,6,7
 932 1297 932 1297 840.5 1296 c 128,-1,8
 749 1295 749 1295 658 1295 c 2,9,-1
 102 1295 l 1,10,-1
 102 1490 l 1,11,-1
 1197 1490 l 1,12,-1
 1197 1324 l 1,13,-1
 517 399 l 2,14,15
 465 328 465 328 407.5 256.5 c 128,-1,16
 350 185 350 185 291 115 c 1,17,-1
 266 191 l 1,18,19
 357 194 357 194 448 194.5 c 128,-1,20
 539 195 539 195 630 195 c 2,21,-1
 1204 195 l 1,22,-1
 1204 0 l 1,23,-1
 91 0 l 1,0,-1
EndSplineSet
Substitution2: "'ss06' Style Set 6 in Latin lookup 52 subtable" Z.squared
Substitution2: "'ss05' Style Set 5 in Latin lookup 51 subtable" uni24CF
Position2: "'cpsp' Capital Spacing in Latin lookup 0 subtable" dx=0 dy=0 dh=0 dv=0
EndChar

StartChar: uni0224
Encoding: 548 548 504
Width: 1291
GlyphClass: 2
Flags: W
AnchorPoint: "Anchor-1" 646 1490 basechar 0
AnchorPoint: "Anchor-0" 643 0 basechar 0
LayerCount: 2
Fore
SplineSet
767 -418 m 1,0,-1
 767 -233 l 1,1,2
 785 -235 785 -235 811 -235.5 c 128,-1,3
 837 -236 837 -236 855 -236 c 0,4,5
 925 -236 925 -236 951.5 -213 c 128,-1,6
 978 -190 978 -190 978 -139 c 2,7,-1
 978 0 l 1,8,-1
 1204 0 l 1,9,-1
 1204 -149 l 2,10,11
 1204 -284 1204 -284 1125 -353.5 c 128,-1,12
 1046 -423 1046 -423 892 -423 c 0,13,14
 854 -423 854 -423 821.5 -422 c 128,-1,15
 789 -421 789 -421 767 -418 c 1,0,-1
91 0 m 1,16,-1
 91 165 l 1,17,-1
 784 1107 l 2,18,19
 833 1174 833 1174 888 1241.5 c 128,-1,20
 943 1309 943 1309 998 1376 c 1,21,-1
 1023 1300 l 1,22,23
 932 1297 932 1297 840.5 1296 c 128,-1,24
 749 1295 749 1295 658 1295 c 2,25,-1
 102 1295 l 1,26,-1
 102 1490 l 1,27,-1
 1197 1490 l 1,28,-1
 1197 1324 l 1,29,-1
 517 399 l 2,30,31
 465 328 465 328 407.5 256.5 c 128,-1,32
 350 185 350 185 291 115 c 1,33,-1
 266 191 l 1,34,35
 357 194 357 194 448 194.5 c 128,-1,36
 539 195 539 195 630 195 c 2,37,-1
 1204 195 l 1,38,-1
 1204 0 l 1,39,-1
 91 0 l 1,16,-1
EndSplineSet
Position2: "'cpsp' Capital Spacing in Latin lookup 0 subtable" dx=0 dy=0 dh=0 dv=0
EndChar

StartChar: uni2C7F
Encoding: 11391 11391 507
Width: 1266
Flags: W
LayerCount: 2
Fore
SplineSet
1041 -427 m 0,0,1
 958 -427 958 -427 893 -396 c 128,-1,2
 828 -365 828 -365 771.5 -316.5 c 128,-1,3
 715 -268 715 -268 661 -213.5 c 128,-1,4
 607 -159 607 -159 548.5 -110 c 128,-1,5
 490 -61 490 -61 419.5 -30.5 c 128,-1,6
 349 0 349 0 259 0 c 2,7,-1
 94 0 l 1,8,-1
 94 155 l 1,9,-1
 878 1295 l 1,10,-1
 88 1295 l 1,11,-1
 88 1490 l 1,12,-1
 1153 1490 l 1,13,-1
 1153 1335 l 1,14,-1
 361 181 l 1,15,16
 453 170 453 170 524.5 136 c 128,-1,17
 596 102 596 102 653.5 54.5 c 128,-1,18
 711 7 711 7 760 -43 c 128,-1,19
 809 -93 809 -93 854.5 -136.5 c 128,-1,20
 900 -180 900 -180 947 -207 c 128,-1,21
 994 -234 994 -234 1048 -234 c 0,22,23
 1075 -234 1075 -234 1096 -233 c 128,-1,24
 1117 -232 1117 -232 1137 -229.5 c 128,-1,25
 1157 -227 1157 -227 1179 -224 c 1,26,-1
 1179 -413 l 1,27,28
 1149 -419 1149 -419 1115.5 -423 c 128,-1,29
 1082 -427 1082 -427 1041 -427 c 0,0,1
EndSplineSet
Position2: "'cpsp' Capital Spacing in Latin lookup 0 subtable" dx=0 dy=0 dh=0 dv=0
EndChar

StartChar: a
Encoding: 97 97 508
Width: 1124
GlyphClass: 2
Flags: W
AnchorPoint: "Anchor-4" 990 0 basechar 0
AnchorPoint: "Anchor-1" 552 1087 basechar 0
AnchorPoint: "Anchor-0" 551 0 basechar 0
LayerCount: 2
Fore
SplineSet
452 -20 m 0,0,1
 345 -20 345 -20 261 17 c 128,-1,2
 177 54 177 54 128 128 c 128,-1,3
 79 202 79 202 79 309 c 0,4,5
 79 402 79 402 115 461.5 c 128,-1,6
 151 521 151 521 211.5 556 c 128,-1,7
 272 591 272 591 347.5 608.5 c 128,-1,8
 423 626 423 626 503 636 c 0,9,10
 602 647 602 647 662 655 c 128,-1,11
 722 663 722 663 749 679.5 c 128,-1,12
 776 696 776 696 776 736 c 2,13,-1
 776 743 l 2,14,15
 776 800 776 800 751.5 841.5 c 128,-1,16
 727 883 727 883 679 905.5 c 128,-1,17
 631 928 631 928 562 928 c 0,18,19
 492 928 492 928 440 906 c 128,-1,20
 388 884 388 884 356.5 847.5 c 128,-1,21
 325 811 325 811 315 767 c 1,22,-1
 108 794 l 1,23,24
 130 895 130 895 193.5 964 c 128,-1,25
 257 1033 257 1033 351.5 1068.5 c 128,-1,26
 446 1104 446 1104 562 1104 c 0,27,28
 644 1104 644 1104 721 1084 c 128,-1,29
 798 1064 798 1064 859 1020 c 128,-1,30
 920 976 920 976 955 905 c 128,-1,31
 990 834 990 834 990 734 c 2,32,-1
 990 0 l 1,33,-1
 780 0 l 1,34,-1
 780 151 l 1,35,-1
 773 151 l 1,36,37
 751 109 751 109 710.5 69.5 c 128,-1,38
 670 30 670 30 606 5 c 128,-1,39
 542 -20 542 -20 452 -20 c 0,0,1
497 153 m 0,40,41
 589 153 589 153 651 187 c 128,-1,42
 713 221 713 221 744.5 278 c 128,-1,43
 776 335 776 335 776 399 c 2,44,-1
 776 533 l 1,45,46
 766 523 766 523 736.5 514 c 128,-1,47
 707 505 707 505 668 498 c 128,-1,48
 629 491 629 491 588.5 485 c 128,-1,49
 548 479 548 479 515 475 c 0,50,51
 455 467 455 467 404.5 448.5 c 128,-1,52
 354 430 354 430 323.5 396 c 128,-1,53
 293 362 293 362 293 306 c 0,54,55
 293 256 293 256 318.5 222.5 c 128,-1,56
 344 189 344 189 390 171 c 128,-1,57
 436 153 436 153 497 153 c 0,40,41
EndSplineSet
Substitution2: "'smcp' Lowercase to Small Capitals in Latin lookup 69 subtable" a.sc
Substitution2: "'c2sc' Capitals to Small Capitals in Latin lookup 68 subtable" a.sc
Substitution2: "'cv11' Character Variants 11 in Latin lookup 65 subtable" a.1
Substitution2: "'salt' Stylistic Alternatives in Latin lookup 46 subtable" a.1
Substitution2: "Single Substitution lookup 44 subtable" ordfeminine
Substitution2: "'sups' Superscript in Latin lookup 39 subtable" a.sups
Substitution2: "'subs' Subscript in Latin lookup 38 subtable" a.subs
Substitution2: "'sinf' Scientific Inferiors in Latin lookup 18 subtable" a.subs
AlternateSubs2: "'aalt' Access All Alternates in Latin lookup 1 subtable" ordfeminine a.sups a.subs a.sc
EndChar

StartChar: aturn
Encoding: 592 592 540
Width: 1124
GlyphClass: 2
Flags: W
AnchorPoint: "Anchor-4" 133 1087 basechar 0
AnchorPoint: "Anchor-1" 600 1087 basechar 0
AnchorPoint: "Anchor-0" 591 0 basechar 0
LayerCount: 2
Fore
SplineSet
673 1108 m 0,0,1
 778 1108 778 1108 862.5 1070.5 c 128,-1,2
 947 1033 947 1033 996 959.5 c 128,-1,3
 1045 886 1045 886 1045 778 c 0,4,5
 1045 686 1045 686 1009.5 626.5 c 128,-1,6
 974 567 974 567 913.5 532 c 128,-1,7
 853 497 853 497 777.5 479.5 c 128,-1,8
 702 462 702 462 621 452 c 0,9,10
 523 441 523 441 462.5 433 c 128,-1,11
 402 425 402 425 375 408.5 c 128,-1,12
 348 392 348 392 348 353 c 2,13,-1
 348 345 l 2,14,15
 348 289 348 289 373 247 c 128,-1,16
 398 205 398 205 446 182 c 128,-1,17
 494 159 494 159 562 159 c 0,18,19
 633 159 633 159 684 181 c 128,-1,20
 735 203 735 203 767.5 240 c 128,-1,21
 800 277 800 277 808 320 c 1,22,-1
 1016 294 l 1,23,24
 995 193 995 193 931 124 c 128,-1,25
 867 55 867 55 772.5 19 c 128,-1,26
 678 -17 678 -17 563 -17 c 0,27,28
 480 -17 480 -17 403 3.5 c 128,-1,29
 326 24 326 24 265.5 68 c 128,-1,30
 205 112 205 112 169 182.5 c 128,-1,31
 133 253 133 253 133 354 c 2,32,-1
 133 1087 l 1,33,-1
 344 1087 l 1,34,-1
 344 936 l 1,35,-1
 352 936 l 1,36,37
 374 979 374 979 414.5 1018.5 c 128,-1,38
 455 1058 455 1058 519 1083 c 128,-1,39
 583 1108 583 1108 673 1108 c 0,0,1
627 935 m 0,40,41
 536 935 536 935 473.5 900.5 c 128,-1,42
 411 866 411 866 379 809.5 c 128,-1,43
 347 753 347 753 347 688 c 2,44,-1
 347 555 l 1,45,46
 359 565 359 565 388 573.5 c 128,-1,47
 417 582 417 582 456 589.5 c 128,-1,48
 495 597 495 597 535 602.5 c 128,-1,49
 575 608 575 608 610 613 c 0,50,51
 669 622 669 622 720 640 c 128,-1,52
 771 658 771 658 801.5 692.5 c 128,-1,53
 832 727 832 727 832 782 c 0,54,55
 832 832 832 832 806 866 c 128,-1,56
 780 900 780 900 734.5 917.5 c 128,-1,57
 689 935 689 935 627 935 c 0,40,41
EndSplineSet
EndChar

StartChar: ae
Encoding: 230 230 544
Width: 1834
GlyphClass: 2
Flags: W
AnchorPoint: "Anchor-1" 897 1087 basechar 0
LayerCount: 2
Fore
SplineSet
467 -20 m 0,0,1
 351 -20 351 -20 263.5 19.5 c 128,-1,2
 176 59 176 59 127.5 133 c 128,-1,3
 79 207 79 207 79 309 c 0,4,5
 79 398 79 398 118 461 c 128,-1,6
 157 524 157 524 224.5 564 c 128,-1,7
 292 604 292 604 382 624 c 128,-1,8
 472 644 472 644 575 644 c 2,9,-1
 1629 644 l 1,10,-1
 1544 590 l 1,11,12
 1549 689 1549 689 1516 765.5 c 128,-1,13
 1483 842 1483 842 1418 884.5 c 128,-1,14
 1353 927 1353 927 1262 927 c 0,15,16
 1173 927 1173 927 1107 885 c 128,-1,17
 1041 843 1041 843 1006 770 c 128,-1,18
 971 697 971 697 971 604 c 2,19,-1
 971 503 l 2,20,21
 971 395 971 395 1008 317.5 c 128,-1,22
 1045 240 1045 240 1113.5 197.5 c 128,-1,23
 1182 155 1182 155 1276 155 c 0,24,25
 1342 155 1342 155 1393.5 175 c 128,-1,26
 1445 195 1445 195 1481 231.5 c 128,-1,27
 1517 268 1517 268 1535 319 c 1,28,-1
 1741 301 l 1,29,30
 1718 205 1718 205 1654 132 c 128,-1,31
 1590 59 1590 59 1493 17.5 c 128,-1,32
 1396 -24 1396 -24 1274 -24 c 0,33,34
 1161 -24 1161 -24 1069.5 14 c 128,-1,35
 978 52 978 52 915 119.5 c 128,-1,36
 852 187 852 187 823 278 c 1,37,-1
 835 825 l 1,38,39
 873 912 873 912 934.5 974.5 c 128,-1,40
 996 1037 996 1037 1078.5 1071.5 c 128,-1,41
 1161 1106 1161 1106 1261 1106 c 0,42,43
 1366 1106 1366 1106 1455.5 1070.5 c 128,-1,44
 1545 1035 1545 1035 1612.5 964.5 c 128,-1,45
 1680 894 1680 894 1718 790.5 c 128,-1,46
 1756 687 1756 687 1756 550 c 2,47,-1
 1756 482 l 1,48,-1
 571 482 l 2,49,50
 487 482 487 482 424 462 c 128,-1,51
 361 442 361 442 327 404 c 128,-1,52
 293 366 293 366 293 310 c 0,53,54
 293 232 293 232 349.5 193 c 128,-1,55
 406 154 406 154 497 154 c 0,56,57
 589 154 589 154 651 187.5 c 128,-1,58
 713 221 713 221 744 278 c 128,-1,59
 775 335 775 335 775 399 c 2,60,-1
 775 743 l 2,61,62
 775 799 775 799 750.5 841 c 128,-1,63
 726 883 726 883 678.5 905.5 c 128,-1,64
 631 928 631 928 562 928 c 0,65,66
 492 928 492 928 440 906 c 128,-1,67
 388 884 388 884 356.5 847.5 c 128,-1,68
 325 811 325 811 315 767 c 1,69,-1
 108 794 l 1,70,71
 130 893 130 893 193 962 c 128,-1,72
 256 1031 256 1031 350.5 1067.5 c 128,-1,73
 445 1104 445 1104 560 1104 c 0,74,75
 663 1104 663 1104 745 1070.5 c 128,-1,76
 827 1037 827 1037 880 968.5 c 128,-1,77
 933 900 933 900 946 794 c 1,78,-1
 921 221 l 1,79,-1
 889 221 l 1,80,81
 868 163 868 163 827.5 118.5 c 128,-1,82
 787 74 787 74 731.5 43.5 c 128,-1,83
 676 13 676 13 609 -3.5 c 128,-1,84
 542 -20 542 -20 467 -20 c 0,0,1
EndSplineSet
EndChar

StartChar: a.1
Encoding: 57388 57388 548
Width: 1223
GlyphClass: 2
Flags: W
AnchorPoint: "Anchor-4" 1090 0 basechar 0
AnchorPoint: "Anchor-1" 598 1087 basechar 0
AnchorPoint: "Anchor-0" 598 0 basechar 0
LayerCount: 2
Fore
SplineSet
544 -21 m 0,0,1
 408 -21 408 -21 304 48.5 c 128,-1,2
 200 118 200 118 141 244.5 c 128,-1,3
 82 371 82 371 82 542 c 0,4,5
 82 715 82 715 141.5 841 c 128,-1,6
 201 967 201 967 305.5 1035.5 c 128,-1,7
 410 1104 410 1104 545 1104 c 0,8,9
 632 1104 632 1104 694.5 1077.5 c 128,-1,10
 757 1051 757 1051 800 1009 c 128,-1,11
 843 967 843 967 869 921 c 1,12,-1
 877 921 l 1,13,-1
 877 1087 l 1,14,-1
 1090 1087 l 1,15,-1
 1090 0 l 1,16,-1
 877 0 l 1,17,-1
 877 168 l 1,18,-1
 869 168 l 1,19,20
 842 120 842 120 798.5 76.5 c 128,-1,21
 755 33 755 33 692 6 c 128,-1,22
 629 -21 629 -21 544 -21 c 0,0,1
591 163 m 0,23,24
 683 163 683 163 748.5 211 c 128,-1,25
 814 259 814 259 849 344.5 c 128,-1,26
 884 430 884 430 884 543 c 0,27,28
 884 657 884 657 849.5 742 c 128,-1,29
 815 827 815 827 749.5 874 c 128,-1,30
 684 921 684 921 591 921 c 0,31,32
 501 921 501 921 435.5 874.5 c 128,-1,33
 370 828 370 828 336 743.5 c 128,-1,34
 302 659 302 659 302 543 c 0,35,36
 302 428 302 428 336.5 343 c 128,-1,37
 371 258 371 258 436 210.5 c 128,-1,38
 501 163 501 163 591 163 c 0,23,24
EndSplineSet
EndChar

StartChar: b
Encoding: 98 98 579
Width: 1223
GlyphClass: 2
Flags: W
AnchorPoint: "Anchor-1" 689 1287 basechar 0
AnchorPoint: "Anchor-0" 638 0 basechar 0
LayerCount: 2
Fore
SplineSet
679 -21 m 0,0,1
 595 -21 595 -21 532 6 c 128,-1,2
 469 33 469 33 425.5 76.5 c 128,-1,3
 382 120 382 120 354 168 c 1,4,-1
 344 168 l 1,5,-1
 344 0 l 1,6,-1
 133 0 l 1,7,-1
 133 1490 l 1,8,-1
 349 1490 l 1,9,-1
 349 920 l 1,10,-1
 356 920 l 1,11,12
 383 966 383 966 425.5 1008.5 c 128,-1,13
 468 1051 468 1051 531 1077.5 c 128,-1,14
 594 1104 594 1104 679 1104 c 0,15,16
 815 1104 815 1104 919.5 1035.5 c 128,-1,17
 1024 967 1024 967 1082.5 841 c 128,-1,18
 1141 715 1141 715 1141 542 c 0,19,20
 1141 371 1141 371 1082.5 244.5 c 128,-1,21
 1024 118 1024 118 920.5 48.5 c 128,-1,22
 817 -21 817 -21 679 -21 c 0,0,1
633 163 m 256,23,24
 724 163 724 163 788.5 210.5 c 128,-1,25
 853 258 853 258 888 343 c 128,-1,26
 923 428 923 428 923 543 c 256,27,28
 923 658 923 658 888.5 743 c 128,-1,29
 854 828 854 828 789 874.5 c 128,-1,30
 724 921 724 921 633 921 c 0,31,32
 541 921 541 921 475.5 874 c 128,-1,33
 410 827 410 827 375 742 c 128,-1,34
 340 657 340 657 340 543 c 0,35,36
 340 430 340 430 375 344.5 c 128,-1,37
 410 259 410 259 476 211 c 128,-1,38
 542 163 542 163 633 163 c 256,23,24
EndSplineSet
Substitution2: "'sups' Superscript in Latin lookup 39 subtable" b.sups
Substitution2: "'subs' Subscript in Latin lookup 38 subtable" b.subs
Substitution2: "'sinf' Scientific Inferiors in Latin lookup 18 subtable" b.subs
AlternateSubs2: "'aalt' Access All Alternates in Latin lookup 1 subtable" b.sups b.subs
EndChar

StartChar: uni0183
Encoding: 387 387 581
Width: 1223
GlyphClass: 2
Flags: W
AnchorPoint: "Anchor-1" 689 1287 basechar 0
AnchorPoint: "Anchor-0" 638 0 basechar 0
LayerCount: 2
Fore
SplineSet
245 1312 m 1,0,-1
 133 1490 l 1,1,-1
 974 1490 l 1,2,-1
 974 1312 l 1,3,-1
 245 1312 l 1,0,-1
679 -21 m 0,4,5
 595 -21 595 -21 532 6 c 128,-1,6
 469 33 469 33 425.5 76.5 c 128,-1,7
 382 120 382 120 354 168 c 1,8,-1
 344 168 l 1,9,-1
 344 0 l 1,10,-1
 133 0 l 1,11,-1
 133 1490 l 1,12,-1
 349 1490 l 1,13,-1
 349 920 l 1,14,-1
 356 920 l 1,15,16
 383 966 383 966 425.5 1008.5 c 128,-1,17
 468 1051 468 1051 531 1077.5 c 128,-1,18
 594 1104 594 1104 679 1104 c 0,19,20
 815 1104 815 1104 919.5 1035.5 c 128,-1,21
 1024 967 1024 967 1082.5 841 c 128,-1,22
 1141 715 1141 715 1141 542 c 0,23,24
 1141 371 1141 371 1082.5 244.5 c 128,-1,25
 1024 118 1024 118 920.5 48.5 c 128,-1,26
 817 -21 817 -21 679 -21 c 0,4,5
633 163 m 256,27,28
 724 163 724 163 788.5 210.5 c 128,-1,29
 853 258 853 258 888 343 c 128,-1,30
 923 428 923 428 923 543 c 256,31,32
 923 658 923 658 888.5 743 c 128,-1,33
 854 828 854 828 789 874.5 c 128,-1,34
 724 921 724 921 633 921 c 0,35,36
 541 921 541 921 475.5 874 c 128,-1,37
 410 827 410 827 375 742 c 128,-1,38
 340 657 340 657 340 543 c 0,39,40
 340 430 340 430 375 344.5 c 128,-1,41
 410 259 410 259 476 211 c 128,-1,42
 542 163 542 163 633 163 c 256,27,28
EndSplineSet
EndChar

StartChar: uni0253
Encoding: 595 595 582
Width: 1220
GlyphClass: 2
Flags: W
AnchorPoint: "Anchor-1" 410 1490 basechar 0
AnchorPoint: "Anchor-0" 642 0 basechar 0
LayerCount: 2
Fore
SplineSet
675 -21 m 0,0,1
 591 -21 591 -21 528 6 c 128,-1,2
 465 33 465 33 421.5 76.5 c 128,-1,3
 378 120 378 120 350 167 c 1,4,-1
 340 167 l 1,5,-1
 340 0 l 1,6,-1
 133 0 l 1,7,-1
 133 1087 l 1,8,-1
 345 1087 l 1,9,-1
 345 916 l 1,10,-1
 353 917 l 1,11,12
 380 963 380 963 422 1005 c 128,-1,13
 464 1047 464 1047 526.5 1073.5 c 128,-1,14
 589 1100 589 1100 675 1100 c 0,15,16
 812 1100 812 1100 916 1032 c 128,-1,17
 1020 964 1020 964 1079 838 c 128,-1,18
 1138 712 1138 712 1138 541 c 0,19,20
 1138 371 1138 371 1079.5 244.5 c 128,-1,21
 1021 118 1021 118 917 48.5 c 128,-1,22
 813 -21 813 -21 675 -21 c 0,0,1
632 161 m 256,23,24
 724 161 724 161 789 208 c 128,-1,25
 854 255 854 255 888.5 341 c 128,-1,26
 923 427 923 427 923 542 c 256,27,28
 923 657 923 657 888.5 742 c 128,-1,29
 854 827 854 827 789 873.5 c 128,-1,30
 724 920 724 920 632 920 c 0,31,32
 539 920 539 920 473 873.5 c 128,-1,33
 407 827 407 827 371.5 741.5 c 128,-1,34
 336 656 336 656 336 542 c 0,35,36
 336 429 336 429 371.5 342.5 c 128,-1,37
 407 256 407 256 473.5 208.5 c 128,-1,38
 540 161 540 161 632 161 c 256,23,24
133 865 m 1,39,-1
 133 1224 l 2,40,41
 133 1359 133 1359 214 1428 c 128,-1,42
 295 1497 295 1497 448 1497 c 0,43,44
 487 1497 487 1497 517 1495.5 c 128,-1,45
 547 1494 547 1494 569 1492 c 1,46,-1
 569 1317 l 1,47,48
 552 1318 552 1318 526 1318.5 c 128,-1,49
 500 1319 500 1319 481 1319 c 0,50,51
 411 1319 411 1319 380 1296 c 128,-1,52
 349 1273 349 1273 349 1222 c 2,53,-1
 349 865 l 1,54,-1
 133 865 l 1,39,-1
EndSplineSet
EndChar

StartChar: thorn
Encoding: 254 254 586
Width: 1223
Flags: W
LayerCount: 2
Fore
SplineSet
680 -21 m 0,0,1
 595 -21 595 -21 532.5 6 c 128,-1,2
 470 33 470 33 427.5 76.5 c 128,-1,3
 385 120 385 120 357 168 c 1,4,-1
 349 168 l 1,5,-1
 349 -418 l 1,6,-1
 133 -418 l 1,7,-1
 133 1490 l 1,8,-1
 349 1490 l 1,9,-1
 349 921 l 1,10,-1
 357 921 l 1,11,12
 384 967 384 967 426 1009 c 128,-1,13
 468 1051 468 1051 531 1077.5 c 128,-1,14
 594 1104 594 1104 679 1104 c 0,15,16
 815 1104 815 1104 919.5 1035.5 c 128,-1,17
 1024 967 1024 967 1082.5 841 c 128,-1,18
 1141 715 1141 715 1141 542 c 0,19,20
 1141 371 1141 371 1083 244.5 c 128,-1,21
 1025 118 1025 118 921 48.5 c 128,-1,22
 817 -21 817 -21 680 -21 c 0,0,1
633 163 m 0,23,24
 725 163 725 163 789 210.5 c 128,-1,25
 853 258 853 258 888 343 c 128,-1,26
 923 428 923 428 923 543 c 256,27,28
 923 658 923 658 888.5 743 c 128,-1,29
 854 828 854 828 789 874.5 c 128,-1,30
 724 921 724 921 633 921 c 256,31,32
 542 921 542 921 476 874 c 128,-1,33
 410 827 410 827 375 742 c 128,-1,34
 340 657 340 657 340 543 c 0,35,36
 340 430 340 430 375 344.5 c 128,-1,37
 410 259 410 259 476 211 c 128,-1,38
 542 163 542 163 633 163 c 0,23,24
EndSplineSet
EndChar

StartChar: c
Encoding: 99 99 587
Width: 1138
GlyphClass: 2
Flags: W
AnchorPoint: "Anchor-3" 595 0 basechar 0
AnchorPoint: "Anchor-1" 595 1087 basechar 0
AnchorPoint: "Anchor-0" 595 0 basechar 0
LayerCount: 2
Fore
SplineSet
595 -24 m 0,0,1
 441 -24 441 -24 325.5 47.5 c 128,-1,2
 210 119 210 119 146 246 c 128,-1,3
 82 373 82 373 82 540 c 0,4,5
 82 709 82 709 146 836 c 128,-1,6
 210 963 210 963 325.5 1034.5 c 128,-1,7
 441 1106 441 1106 595 1106 c 0,8,9
 685 1106 685 1106 763.5 1080.5 c 128,-1,10
 842 1055 842 1055 903 1008 c 128,-1,11
 964 961 964 961 1004 895 c 128,-1,12
 1044 829 1044 829 1060 749 c 1,13,-1
 850 724 l 1,14,15
 841 768 841 768 819.5 804 c 128,-1,16
 798 840 798 840 766 866.5 c 128,-1,17
 734 893 734 893 691.5 908 c 128,-1,18
 649 923 649 923 596 923 c 0,19,20
 499 923 499 923 434 873 c 128,-1,21
 369 823 369 823 335 737 c 128,-1,22
 301 651 301 651 301 540 c 0,23,24
 301 430 301 430 335 345 c 128,-1,25
 369 260 369 260 434.5 210.5 c 128,-1,26
 500 161 500 161 596 161 c 0,27,28
 649 161 649 161 691.5 175.5 c 128,-1,29
 734 190 734 190 765.5 216.5 c 128,-1,30
 797 243 797 243 818.5 280.5 c 128,-1,31
 840 318 840 318 851 364 c 1,32,-1
 1061 338 l 1,33,34
 1046 258 1046 258 1006 191.5 c 128,-1,35
 966 125 966 125 905 77 c 128,-1,36
 844 29 844 29 765 2.5 c 128,-1,37
 686 -24 686 -24 595 -24 c 0,0,1
EndSplineSet
Substitution2: "'sups' Superscript in Latin lookup 39 subtable" c.sups
Substitution2: "'subs' Subscript in Latin lookup 38 subtable" c.subs
Substitution2: "'sinf' Scientific Inferiors in Latin lookup 18 subtable" c.subs
AlternateSubs2: "'aalt' Access All Alternates in Latin lookup 1 subtable" c.sups c.subs
EndChar

StartChar: uni023C
Encoding: 572 572 588
Width: 1138
GlyphClass: 2
Flags: W
AnchorPoint: "Anchor-3" 595 0 basechar 0
AnchorPoint: "Anchor-1" 595 1087 basechar 0
AnchorPoint: "Anchor-0" 595 0 basechar 0
LayerCount: 2
Fore
SplineSet
161 -418 m 1,0,-1
 862 1490 l 1,1,-1
 1006 1490 l 1,2,-1
 306 -418 l 1,3,-1
 161 -418 l 1,0,-1
595 -24 m 0,4,5
 441 -24 441 -24 325.5 47.5 c 128,-1,6
 210 119 210 119 146 246 c 128,-1,7
 82 373 82 373 82 540 c 0,8,9
 82 709 82 709 146 836 c 128,-1,10
 210 963 210 963 325.5 1034.5 c 128,-1,11
 441 1106 441 1106 595 1106 c 0,12,13
 685 1106 685 1106 763.5 1080.5 c 128,-1,14
 842 1055 842 1055 903 1008 c 128,-1,15
 964 961 964 961 1004 895 c 128,-1,16
 1044 829 1044 829 1060 749 c 1,17,-1
 850 724 l 1,18,19
 841 768 841 768 819.5 804 c 128,-1,20
 798 840 798 840 766 866.5 c 128,-1,21
 734 893 734 893 691.5 908 c 128,-1,22
 649 923 649 923 596 923 c 0,23,24
 499 923 499 923 434 873 c 128,-1,25
 369 823 369 823 335 737 c 128,-1,26
 301 651 301 651 301 540 c 0,27,28
 301 430 301 430 335 345 c 128,-1,29
 369 260 369 260 434.5 210.5 c 128,-1,30
 500 161 500 161 596 161 c 0,31,32
 649 161 649 161 691.5 175.5 c 128,-1,33
 734 190 734 190 765.5 216.5 c 128,-1,34
 797 243 797 243 818.5 280.5 c 128,-1,35
 840 318 840 318 851 364 c 1,36,-1
 1061 338 l 1,37,38
 1046 258 1046 258 1006 191.5 c 128,-1,39
 966 125 966 125 905 77 c 128,-1,40
 844 29 844 29 765 2.5 c 128,-1,41
 686 -24 686 -24 595 -24 c 0,4,5
EndSplineSet
Ligature2: "'ccmp' Glyph Composition/Decomposition in Latin lookup 6 subtable" c uni0338
EndChar

StartChar: uni0188
Encoding: 392 392 589
Width: 1256
GlyphClass: 2
Flags: W
AnchorPoint: "Anchor-3" 595 0 basechar 0
AnchorPoint: "Anchor-1" 595 1087 basechar 0
AnchorPoint: "Anchor-0" 595 0 basechar 0
LayerCount: 2
Fore
SplineSet
877 738 m 1,0,-1
 838 988 l 1,1,2
 807 1141 807 1141 876 1214 c 128,-1,3
 945 1287 945 1287 1102 1287 c 0,4,5
 1139 1287 1139 1287 1166 1286 c 128,-1,6
 1193 1285 1193 1285 1213 1283 c 1,7,-1
 1212 1107 l 1,8,9
 1193 1109 1193 1109 1164.5 1110 c 128,-1,10
 1136 1111 1136 1111 1117 1111 c 0,11,12
 1060 1111 1060 1111 1038 1084.5 c 128,-1,13
 1016 1058 1016 1058 1026 1000 c 2,14,-1
 1060 749 l 1,15,-1
 877 738 l 1,0,-1
595 -24 m 0,16,17
 441 -24 441 -24 325.5 47.5 c 128,-1,18
 210 119 210 119 146 246 c 128,-1,19
 82 373 82 373 82 540 c 0,20,21
 82 709 82 709 146 836 c 128,-1,22
 210 963 210 963 325.5 1034.5 c 128,-1,23
 441 1106 441 1106 595 1106 c 0,24,25
 685 1106 685 1106 763.5 1080.5 c 128,-1,26
 842 1055 842 1055 903 1008 c 128,-1,27
 964 961 964 961 1004 895 c 128,-1,28
 1044 829 1044 829 1060 749 c 1,29,-1
 850 724 l 1,30,31
 841 768 841 768 819.5 804 c 128,-1,32
 798 840 798 840 766 866.5 c 128,-1,33
 734 893 734 893 691.5 908 c 128,-1,34
 649 923 649 923 596 923 c 0,35,36
 499 923 499 923 434 873 c 128,-1,37
 369 823 369 823 335 737 c 128,-1,38
 301 651 301 651 301 540 c 0,39,40
 301 430 301 430 335 345 c 128,-1,41
 369 260 369 260 434.5 210.5 c 128,-1,42
 500 161 500 161 596 161 c 0,43,44
 649 161 649 161 691.5 175.5 c 128,-1,45
 734 190 734 190 765.5 216.5 c 128,-1,46
 797 243 797 243 818.5 280.5 c 128,-1,47
 840 318 840 318 851 364 c 1,48,-1
 1061 338 l 1,49,50
 1046 258 1046 258 1006 191.5 c 128,-1,51
 966 125 966 125 905 77 c 128,-1,52
 844 29 844 29 765 2.5 c 128,-1,53
 686 -24 686 -24 595 -24 c 0,16,17
EndSplineSet
EndChar

StartChar: d
Encoding: 100 100 598
Width: 1223
GlyphClass: 2
Flags: W
AnchorPoint: "Anchor-1" 534 1287 basechar 0
LayerCount: 2
Fore
SplineSet
545 -21 m 0,0,1
 408 -21 408 -21 303.5 48.5 c 128,-1,2
 199 118 199 118 140.5 244.5 c 128,-1,3
 82 371 82 371 82 542 c 0,4,5
 82 715 82 715 141.5 841 c 128,-1,6
 201 967 201 967 305 1035.5 c 128,-1,7
 409 1104 409 1104 544 1104 c 0,8,9
 631 1104 631 1104 693.5 1077.5 c 128,-1,10
 756 1051 756 1051 798.5 1008.5 c 128,-1,11
 841 966 841 966 867 920 c 1,12,-1
 874 920 l 1,13,-1
 874 1490 l 1,14,-1
 1090 1490 l 1,15,-1
 1090 0 l 1,16,-1
 879 0 l 1,17,-1
 879 168 l 1,18,-1
 869 168 l 1,19,20
 842 120 842 120 798.5 76.5 c 128,-1,21
 755 33 755 33 692.5 6 c 128,-1,22
 630 -21 630 -21 545 -21 c 0,0,1
590 163 m 0,23,24
 682 163 682 163 747.5 211 c 128,-1,25
 813 259 813 259 848 344.5 c 128,-1,26
 883 430 883 430 883 543 c 0,27,28
 883 657 883 657 848.5 742 c 128,-1,29
 814 827 814 827 748.5 874 c 128,-1,30
 683 921 683 921 590 921 c 0,31,32
 500 921 500 921 435 874.5 c 128,-1,33
 370 828 370 828 336 743 c 128,-1,34
 302 658 302 658 302 543 c 256,35,36
 302 428 302 428 336 343 c 128,-1,37
 370 258 370 258 435.5 210.5 c 128,-1,38
 501 163 501 163 590 163 c 0,23,24
EndSplineSet
Substitution2: "'sups' Superscript in Latin lookup 39 subtable" d.sups
Substitution2: "'subs' Subscript in Latin lookup 38 subtable" d.subs
Substitution2: "'sinf' Scientific Inferiors in Latin lookup 18 subtable" d.subs
AlternateSubs2: "'aalt' Access All Alternates in Latin lookup 1 subtable" d.sups d.subs
EndChar

StartChar: drthook
Encoding: 598 598 600
Width: 1223
GlyphClass: 2
Flags: W
AnchorPoint: "Anchor-1" 534 1287 basechar 0
LayerCount: 2
Fore
SplineSet
1180 -423 m 0,0,1
 1028 -423 1028 -423 950.5 -353.5 c 128,-1,2
 873 -284 873 -284 873 -149 c 2,3,-1
 873 189 l 1,4,-1
 1086 189 l 1,5,-1
 1086 -147 l 2,6,7
 1086 -199 1086 -199 1115 -222 c 128,-1,8
 1144 -245 1144 -245 1214 -245 c 0,9,10
 1232 -245 1232 -245 1258.5 -244.5 c 128,-1,11
 1285 -244 1285 -244 1301 -243 c 1,12,-1
 1301 -418 l 1,13,14
 1280 -421 1280 -421 1249.5 -422 c 128,-1,15
 1219 -423 1219 -423 1180 -423 c 0,0,1
545 -21 m 0,16,17
 408 -21 408 -21 303.5 48.5 c 128,-1,18
 199 118 199 118 140.5 244.5 c 128,-1,19
 82 371 82 371 82 542 c 0,20,21
 82 715 82 715 141.5 841 c 128,-1,22
 201 967 201 967 305 1035.5 c 128,-1,23
 409 1104 409 1104 544 1104 c 0,24,25
 631 1104 631 1104 693.5 1077.5 c 128,-1,26
 756 1051 756 1051 798.5 1008.5 c 128,-1,27
 841 966 841 966 867 920 c 1,28,-1
 874 920 l 1,29,-1
 874 1490 l 1,30,-1
 1090 1490 l 1,31,-1
 1090 0 l 1,32,-1
 879 0 l 1,33,-1
 879 168 l 1,34,-1
 869 168 l 1,35,36
 842 120 842 120 798.5 76.5 c 128,-1,37
 755 33 755 33 692.5 6 c 128,-1,38
 630 -21 630 -21 545 -21 c 0,16,17
590 163 m 0,39,40
 682 163 682 163 747.5 211 c 128,-1,41
 813 259 813 259 848 344.5 c 128,-1,42
 883 430 883 430 883 543 c 0,43,44
 883 657 883 657 848.5 742 c 128,-1,45
 814 827 814 827 748.5 874 c 128,-1,46
 683 921 683 921 590 921 c 0,47,48
 500 921 500 921 435 874.5 c 128,-1,49
 370 828 370 828 336 743 c 128,-1,50
 302 658 302 658 302 543 c 256,51,52
 302 428 302 428 336 343 c 128,-1,53
 370 258 370 258 435.5 210.5 c 128,-1,54
 501 163 501 163 590 163 c 0,39,40
EndSplineSet
EndChar

StartChar: uni0257
Encoding: 599 599 601
Width: 1223
GlyphClass: 2
Flags: W
AnchorPoint: "Anchor-4" 1090 0 basechar 0
AnchorPoint: "Anchor-1" 598 1087 basechar 0
AnchorPoint: "Anchor-0" 598 0 basechar 0
LayerCount: 2
Fore
SplineSet
874 865 m 1,0,-1
 874 1224 l 2,1,2
 874 1359 874 1359 955 1428 c 128,-1,3
 1036 1497 1036 1497 1189 1497 c 0,4,5
 1228 1497 1228 1497 1258 1495.5 c 128,-1,6
 1288 1494 1288 1494 1310 1492 c 1,7,-1
 1310 1317 l 1,8,9
 1293 1318 1293 1318 1267 1318.5 c 128,-1,10
 1241 1319 1241 1319 1222 1319 c 0,11,12
 1152 1319 1152 1319 1121 1296 c 128,-1,13
 1090 1273 1090 1273 1090 1222 c 2,14,-1
 1090 865 l 1,15,-1
 874 865 l 1,0,-1
544 -21 m 0,16,17
 408 -21 408 -21 304 48.5 c 128,-1,18
 200 118 200 118 141 244.5 c 128,-1,19
 82 371 82 371 82 542 c 0,20,21
 82 715 82 715 141.5 841 c 128,-1,22
 201 967 201 967 305.5 1035.5 c 128,-1,23
 410 1104 410 1104 545 1104 c 0,24,25
 632 1104 632 1104 694.5 1077.5 c 128,-1,26
 757 1051 757 1051 800 1009 c 128,-1,27
 843 967 843 967 869 921 c 1,28,-1
 877 921 l 1,29,-1
 877 1087 l 1,30,-1
 1090 1087 l 1,31,-1
 1090 0 l 1,32,-1
 877 0 l 1,33,-1
 877 168 l 1,34,-1
 869 168 l 1,35,36
 842 120 842 120 798.5 76.5 c 128,-1,37
 755 33 755 33 692 6 c 128,-1,38
 629 -21 629 -21 544 -21 c 0,16,17
591 163 m 0,39,40
 683 163 683 163 748.5 211 c 128,-1,41
 814 259 814 259 849 344.5 c 128,-1,42
 884 430 884 430 884 543 c 0,43,44
 884 657 884 657 849.5 742 c 128,-1,45
 815 827 815 827 749.5 874 c 128,-1,46
 684 921 684 921 591 921 c 0,47,48
 501 921 501 921 435.5 874.5 c 128,-1,49
 370 828 370 828 336 743.5 c 128,-1,50
 302 659 302 659 302 543 c 0,51,52
 302 428 302 428 336.5 343 c 128,-1,53
 371 258 371 258 436 210.5 c 128,-1,54
 501 163 501 163 591 163 c 0,39,40
EndSplineSet
EndChar

StartChar: uni018C
Encoding: 396 396 602
Width: 1223
GlyphClass: 2
Flags: W
AnchorPoint: "Anchor-1" 534 1287 basechar 0
LayerCount: 2
Fore
SplineSet
980 1312 m 1,0,-1
 250 1312 l 1,1,-1
 250 1490 l 1,2,-1
 1090 1490 l 1,3,-1
 980 1312 l 1,0,-1
545 -21 m 0,4,5
 408 -21 408 -21 303.5 48.5 c 128,-1,6
 199 118 199 118 140.5 244.5 c 128,-1,7
 82 371 82 371 82 542 c 0,8,9
 82 715 82 715 141.5 841 c 128,-1,10
 201 967 201 967 305 1035.5 c 128,-1,11
 409 1104 409 1104 544 1104 c 0,12,13
 631 1104 631 1104 693.5 1077.5 c 128,-1,14
 756 1051 756 1051 798.5 1008.5 c 128,-1,15
 841 966 841 966 867 920 c 1,16,-1
 874 920 l 1,17,-1
 874 1490 l 1,18,-1
 1090 1490 l 1,19,-1
 1090 0 l 1,20,-1
 879 0 l 1,21,-1
 879 168 l 1,22,-1
 869 168 l 1,23,24
 842 120 842 120 798.5 76.5 c 128,-1,25
 755 33 755 33 692.5 6 c 128,-1,26
 630 -21 630 -21 545 -21 c 0,4,5
590 163 m 0,27,28
 682 163 682 163 747.5 211 c 128,-1,29
 813 259 813 259 848 344.5 c 128,-1,30
 883 430 883 430 883 543 c 0,31,32
 883 657 883 657 848.5 742 c 128,-1,33
 814 827 814 827 748.5 874 c 128,-1,34
 683 921 683 921 590 921 c 0,35,36
 500 921 500 921 435 874.5 c 128,-1,37
 370 828 370 828 336 743 c 128,-1,38
 302 658 302 658 302 543 c 256,39,40
 302 428 302 428 336 343 c 128,-1,41
 370 258 370 258 435.5 210.5 c 128,-1,42
 501 163 501 163 590 163 c 0,27,28
EndSplineSet
EndChar

StartChar: uni0221
Encoding: 545 545 603
Width: 1543
GlyphClass: 2
Flags: W
AnchorPoint: "Anchor-1" 534 1287 basechar 0
LayerCount: 2
Fore
SplineSet
1212 -418 m 0,0,1
 1090 -418 1090 -418 1015 -371 c 128,-1,2
 940 -324 940 -324 905.5 -248 c 128,-1,3
 871 -172 871 -172 871 -86 c 2,4,-1
 871 234 l 1,5,-1
 1086 234 l 1,6,-1
 1086 -120 l 2,7,8
 1086 -186 1086 -186 1124.5 -221 c 128,-1,9
 1163 -256 1163 -256 1214 -256 c 0,10,11
 1263 -256 1263 -256 1293 -226.5 c 128,-1,12
 1323 -197 1323 -197 1323 -152 c 0,13,14
 1323 -111 1323 -111 1298 -82 c 128,-1,15
 1273 -53 1273 -53 1226 -48 c 0,16,17
 1192 -43 1192 -43 1160.5 -50.5 c 128,-1,18
 1129 -58 1129 -58 1098.5 -76.5 c 128,-1,19
 1068 -95 1068 -95 1033 -125 c 2,20,-1
 751 -391 l 1,21,-1
 630 -255 l 1,22,-1
 879 -22 l 2,23,24
 950 45 950 45 1039.5 82.5 c 128,-1,25
 1129 120 1129 120 1218 120 c 0,26,27
 1356 120 1356 120 1443.5 44 c 128,-1,28
 1531 -32 1531 -32 1531 -155 c 0,29,30
 1531 -275 1531 -275 1446 -346.5 c 128,-1,31
 1361 -418 1361 -418 1212 -418 c 0,0,1
545 -21 m 0,32,33
 408 -21 408 -21 303.5 48.5 c 128,-1,34
 199 118 199 118 140.5 244.5 c 128,-1,35
 82 371 82 371 82 542 c 0,36,37
 82 715 82 715 141.5 841 c 128,-1,38
 201 967 201 967 305 1035.5 c 128,-1,39
 409 1104 409 1104 544 1104 c 0,40,41
 631 1104 631 1104 693.5 1077.5 c 128,-1,42
 756 1051 756 1051 798.5 1008.5 c 128,-1,43
 841 966 841 966 867 920 c 1,44,-1
 874 920 l 1,45,-1
 874 1490 l 1,46,-1
 1090 1490 l 1,47,-1
 1090 0 l 1,48,-1
 879 0 l 1,49,-1
 879 168 l 1,50,-1
 869 168 l 1,51,52
 842 120 842 120 798.5 76.5 c 128,-1,53
 755 33 755 33 692.5 6 c 128,-1,54
 630 -21 630 -21 545 -21 c 0,32,33
590 163 m 0,55,56
 682 163 682 163 747.5 211 c 128,-1,57
 813 259 813 259 848 344.5 c 128,-1,58
 883 430 883 430 883 543 c 0,59,60
 883 657 883 657 848.5 742 c 128,-1,61
 814 827 814 827 748.5 874 c 128,-1,62
 683 921 683 921 590 921 c 0,63,64
 500 921 500 921 435 874.5 c 128,-1,65
 370 828 370 828 336 743 c 128,-1,66
 302 658 302 658 302 543 c 256,67,68
 302 428 302 428 336 343 c 128,-1,69
 370 258 370 258 435.5 210.5 c 128,-1,70
 501 163 501 163 590 163 c 0,55,56
EndSplineSet
EndChar

StartChar: uni02A3
Encoding: 675 675 611
Width: 2184
GlyphClass: 2
Flags: W
AnchorPoint: "Anchor-1" 534 1287 basechar 0
LayerCount: 2
Fore
SplineSet
1218 0 m 1,0,-1
 1218 150 l 1,1,-1
 1802 897 l 1,2,-1
 1802 904 l 1,3,-1
 1005 904 l 1,4,-1
 1005 1087 l 1,5,-1
 2063 1087 l 1,6,-1
 2063 928 l 1,7,-1
 1494 190 l 1,8,-1
 1494 183 l 1,9,-1
 2075 183 l 1,10,-1
 2075 0 l 1,11,-1
 1218 0 l 1,0,-1
545 -21 m 0,12,13
 408 -21 408 -21 303.5 48.5 c 128,-1,14
 199 118 199 118 140.5 244.5 c 128,-1,15
 82 371 82 371 82 542 c 0,16,17
 82 715 82 715 141.5 841 c 128,-1,18
 201 967 201 967 305 1035.5 c 128,-1,19
 409 1104 409 1104 544 1104 c 0,20,21
 631 1104 631 1104 693.5 1077.5 c 128,-1,22
 756 1051 756 1051 798.5 1008.5 c 128,-1,23
 841 966 841 966 867 920 c 1,24,-1
 874 920 l 1,25,-1
 874 1490 l 1,26,-1
 1090 1490 l 1,27,-1
 1090 0 l 1,28,-1
 879 0 l 1,29,-1
 879 168 l 1,30,-1
 869 168 l 1,31,32
 842 120 842 120 798.5 76.5 c 128,-1,33
 755 33 755 33 692.5 6 c 128,-1,34
 630 -21 630 -21 545 -21 c 0,12,13
590 163 m 0,35,36
 682 163 682 163 747.5 211 c 128,-1,37
 813 259 813 259 848 344.5 c 128,-1,38
 883 430 883 430 883 543 c 0,39,40
 883 657 883 657 848.5 742 c 128,-1,41
 814 827 814 827 748.5 874 c 128,-1,42
 683 921 683 921 590 921 c 0,43,44
 500 921 500 921 435 874.5 c 128,-1,45
 370 828 370 828 336 743 c 128,-1,46
 302 658 302 658 302 543 c 256,47,48
 302 428 302 428 336 343 c 128,-1,49
 370 258 370 258 435.5 210.5 c 128,-1,50
 501 163 501 163 590 163 c 0,35,36
EndSplineSet
EndChar

StartChar: dyogh
Encoding: 676 676 613
Width: 2028
GlyphClass: 2
Flags: W
AnchorPoint: "Anchor-1" 534 1287 basechar 0
LayerCount: 2
Fore
SplineSet
1101 -84 m 1,0,1
 1115 -136 1115 -136 1158 -173 c 128,-1,2
 1201 -210 1201 -210 1263.5 -229.5 c 128,-1,3
 1326 -249 1326 -249 1397 -249 c 0,4,5
 1490 -249 1490 -249 1560.5 -217.5 c 128,-1,6
 1631 -186 1631 -186 1671 -126 c 128,-1,7
 1711 -66 1711 -66 1711 17 c 0,8,9
 1711 98 1711 98 1672.5 160 c 128,-1,10
 1634 222 1634 222 1556.5 257.5 c 128,-1,11
 1479 293 1479 293 1361 293 c 2,12,-1
 1243 293 l 1,13,-1
 1243 467 l 1,14,-1
 1601 891 l 1,15,-1
 1601 897 l 1,16,-1
 994 897 l 1,17,-1
 994 1088 l 1,18,-1
 1876 1088 l 1,19,-1
 1876 927 l 1,20,-1
 1467 454 l 1,21,-1
 1467 447 l 1,22,23
 1608 438 1608 438 1712.5 378.5 c 128,-1,24
 1817 319 1817 319 1874 224 c 128,-1,25
 1931 129 1931 129 1931 11 c 0,26,27
 1931 -119 1931 -119 1862.5 -219.5 c 128,-1,28
 1794 -320 1794 -320 1673 -377 c 128,-1,29
 1552 -434 1552 -434 1397 -434 c 0,30,31
 1264 -434 1264 -434 1153 -391.5 c 128,-1,32
 1042 -349 1042 -349 970.5 -270 c 128,-1,33
 899 -191 899 -191 881 -84 c 1,34,-1
 1101 -84 l 1,0,1
545 -21 m 0,35,36
 408 -21 408 -21 303.5 48.5 c 128,-1,37
 199 118 199 118 140.5 244.5 c 128,-1,38
 82 371 82 371 82 542 c 0,39,40
 82 715 82 715 141.5 841 c 128,-1,41
 201 967 201 967 305 1035.5 c 128,-1,42
 409 1104 409 1104 544 1104 c 0,43,44
 631 1104 631 1104 693.5 1077.5 c 128,-1,45
 756 1051 756 1051 798.5 1008.5 c 128,-1,46
 841 966 841 966 867 920 c 1,47,-1
 874 920 l 1,48,-1
 874 1490 l 1,49,-1
 1090 1490 l 1,50,-1
 1090 0 l 1,51,-1
 879 0 l 1,52,-1
 879 168 l 1,53,-1
 869 168 l 1,54,55
 842 120 842 120 798.5 76.5 c 128,-1,56
 755 33 755 33 692.5 6 c 128,-1,57
 630 -21 630 -21 545 -21 c 0,35,36
590 163 m 0,58,59
 682 163 682 163 747.5 211 c 128,-1,60
 813 259 813 259 848 344.5 c 128,-1,61
 883 430 883 430 883 543 c 0,62,63
 883 657 883 657 848.5 742 c 128,-1,64
 814 827 814 827 748.5 874 c 128,-1,65
 683 921 683 921 590 921 c 0,66,67
 500 921 500 921 435 874.5 c 128,-1,68
 370 828 370 828 336 743 c 128,-1,69
 302 658 302 658 302 543 c 256,70,71
 302 428 302 428 336 343 c 128,-1,72
 370 258 370 258 435.5 210.5 c 128,-1,73
 501 163 501 163 590 163 c 0,58,59
EndSplineSet
EndChar

StartChar: e
Encoding: 101 101 615
Width: 1159
GlyphClass: 2
Flags: W
AnchorPoint: "Anchor-4" 1065 295 basechar 0
AnchorPoint: "Anchor-3" 588 0 basechar 0
AnchorPoint: "Anchor-1" 583 1087 basechar 0
AnchorPoint: "Anchor-0" 583 0 basechar 0
LayerCount: 2
Fore
SplineSet
600 -24 m 0,0,1
 440 -24 440 -24 323.5 47.5 c 128,-1,2
 207 119 207 119 144.5 246 c 128,-1,3
 82 373 82 373 82 539 c 0,4,5
 82 706 82 706 145 834 c 128,-1,6
 208 962 208 962 322 1034 c 128,-1,7
 436 1106 436 1106 585 1106 c 0,8,9
 689 1106 689 1106 779 1070.5 c 128,-1,10
 869 1035 869 1035 937 964.5 c 128,-1,11
 1005 894 1005 894 1043 790.5 c 128,-1,12
 1081 687 1081 687 1081 550 c 2,13,-1
 1081 482 l 1,14,-1
 191 482 l 1,15,-1
 191 644 l 1,16,-1
 969 644 l 1,17,-1
 872 592 l 1,18,19
 872 693 872 693 838.5 768 c 128,-1,20
 805 843 805 843 741 885 c 128,-1,21
 677 927 677 927 587 927 c 0,22,23
 496 927 496 927 431 885 c 128,-1,24
 366 843 366 843 331 770 c 128,-1,25
 296 697 296 697 296 604 c 2,26,-1
 296 503 l 2,27,28
 296 396 296 396 333.5 317.5 c 128,-1,29
 371 239 371 239 439.5 197 c 128,-1,30
 508 155 508 155 603 155 c 0,31,32
 668 155 668 155 719.5 175 c 128,-1,33
 771 195 771 195 807 231.5 c 128,-1,34
 843 268 843 268 860 319 c 1,35,-1
 1065 295 l 1,36,37
 1042 201 1042 201 977.5 129 c 128,-1,38
 913 57 913 57 816.5 16.5 c 128,-1,39
 720 -24 720 -24 600 -24 c 0,0,1
EndSplineSet
Substitution2: "'sups' Superscript in Latin lookup 39 subtable" e.sups
Substitution2: "'subs' Subscript in Latin lookup 38 subtable" e.subs
Substitution2: "'sinf' Scientific Inferiors in Latin lookup 18 subtable" e.subs
AlternateSubs2: "'aalt' Access All Alternates in Latin lookup 1 subtable" e.sups e.subs
EndChar

StartChar: uni0247
Encoding: 583 583 617
Width: 1159
GlyphClass: 2
Flags: W
AnchorPoint: "Anchor-4" 1065 295 basechar 0
AnchorPoint: "Anchor-3" 588 0 basechar 0
AnchorPoint: "Anchor-1" 583 1087 basechar 0
AnchorPoint: "Anchor-0" 583 0 basechar 0
LayerCount: 2
Fore
SplineSet
142 -418 m 1,0,-1
 873 1490 l 1,1,-1
 1015 1490 l 1,2,-1
 285 -418 l 1,3,-1
 142 -418 l 1,0,-1
600 -24 m 0,4,5
 440 -24 440 -24 323.5 47.5 c 128,-1,6
 207 119 207 119 144.5 246 c 128,-1,7
 82 373 82 373 82 539 c 0,8,9
 82 706 82 706 145 834 c 128,-1,10
 208 962 208 962 322 1034 c 128,-1,11
 436 1106 436 1106 585 1106 c 0,12,13
 689 1106 689 1106 779 1070.5 c 128,-1,14
 869 1035 869 1035 937 964.5 c 128,-1,15
 1005 894 1005 894 1043 790.5 c 128,-1,16
 1081 687 1081 687 1081 550 c 2,17,-1
 1081 482 l 1,18,-1
 191 482 l 1,19,-1
 191 644 l 1,20,-1
 969 644 l 1,21,-1
 872 592 l 1,22,23
 872 693 872 693 838.5 768 c 128,-1,24
 805 843 805 843 741 885 c 128,-1,25
 677 927 677 927 587 927 c 0,26,27
 496 927 496 927 431 885 c 128,-1,28
 366 843 366 843 331 770 c 128,-1,29
 296 697 296 697 296 604 c 2,30,-1
 296 503 l 2,31,32
 296 396 296 396 333.5 317.5 c 128,-1,33
 371 239 371 239 439.5 197 c 128,-1,34
 508 155 508 155 603 155 c 0,35,36
 668 155 668 155 719.5 175 c 128,-1,37
 771 195 771 195 807 231.5 c 128,-1,38
 843 268 843 268 860 319 c 1,39,-1
 1065 295 l 1,40,41
 1042 201 1042 201 977.5 129 c 128,-1,42
 913 57 913 57 816.5 16.5 c 128,-1,43
 720 -24 720 -24 600 -24 c 0,4,5
EndSplineSet
EndChar

StartChar: eturn
Encoding: 477 477 646
Width: 1159
GlyphClass: 2
Flags: W
AnchorPoint: "Anchor-4" 803 9 basechar 0
AnchorPoint: "Anchor-3" 608 0 basechar 0
AnchorPoint: "Anchor-1" 604 1087 basechar 0
AnchorPoint: "Anchor-0" 605 0 basechar 0
LayerCount: 2
Fore
SplineSet
559 1111 m 0,0,1
 721 1111 721 1111 837 1039.5 c 128,-1,2
 953 968 953 968 1015 841.5 c 128,-1,3
 1077 715 1077 715 1077 548 c 0,4,5
 1077 383 1077 383 1014 254.5 c 128,-1,6
 951 126 951 126 837.5 53.5 c 128,-1,7
 724 -19 724 -19 575 -19 c 0,8,9
 470 -19 470 -19 380 17 c 128,-1,10
 290 53 290 53 222.5 123 c 128,-1,11
 155 193 155 193 116.5 297.5 c 128,-1,12
 78 402 78 402 78 538 c 2,13,-1
 78 606 l 1,14,-1
 968 606 l 1,15,-1
 968 444 l 1,16,-1
 190 444 l 1,17,-1
 288 495 l 1,18,19
 288 396 288 396 322 320 c 128,-1,20
 356 244 356 244 419.5 202 c 128,-1,21
 483 160 483 160 573 160 c 256,22,23
 663 160 663 160 728.5 202.5 c 128,-1,24
 794 245 794 245 828.5 318 c 128,-1,25
 863 391 863 391 863 484 c 2,26,-1
 863 584 l 2,27,28
 863 693 863 693 826.5 770.5 c 128,-1,29
 790 848 790 848 721 890 c 128,-1,30
 652 932 652 932 557 932 c 0,31,32
 491 932 491 932 439.5 912.5 c 128,-1,33
 388 893 388 893 352.5 856 c 128,-1,34
 317 819 317 819 299 768 c 1,35,-1
 94 792 l 1,36,37
 118 887 118 887 182.5 958.5 c 128,-1,38
 247 1030 247 1030 343.5 1070.5 c 128,-1,39
 440 1111 440 1111 559 1111 c 0,0,1
EndSplineSet
EndChar

StartChar: _part.f_base
Encoding: 1114123 -1 647
Width: 736
GlyphClass: 2
Flags: W
AnchorPoint: "Anchor-1" 391 1521 basechar 0
AnchorPoint: "Anchor-0" 317 0 basechar 0
LayerCount: 2
Fore
SplineSet
209 0 m 1,0,-1
 209 1237 l 2,1,2
 209 1330 209 1330 250 1394.5 c 128,-1,3
 291 1459 291 1459 362.5 1492 c 128,-1,4
 434 1525 434 1525 525 1525 c 0,5,6
 579 1525 579 1525 621 1520 c 128,-1,7
 663 1515 663 1515 680 1510 c 1,8,-1
 654 1334 l 1,9,10
 642 1337 642 1337 614.5 1339.5 c 128,-1,11
 587 1342 587 1342 559 1342 c 0,12,13
 487 1342 487 1342 455.5 1308.5 c 128,-1,14
 424 1275 424 1275 424 1205 c 2,15,-1
 424 0 l 1,16,-1
 209 0 l 1,0,-1
EndSplineSet
EndChar

StartChar: f
Encoding: 102 102 648
Width: 725
GlyphClass: 2
Flags: W
AnchorPoint: "Anchor-1" 401 1521 basechar 0
AnchorPoint: "Anchor-0" 326 0 basechar 0
LayerCount: 2
Fore
SplineSet
667 1087 m 1,0,-1
 667 910 l 1,1,-1
 19 910 l 1,2,-1
 19 1087 l 1,3,-1
 667 1087 l 1,0,-1
219 0 m 1,4,-1
 219 1237 l 2,5,6
 219 1330 219 1330 259.5 1394.5 c 128,-1,7
 300 1459 300 1459 372 1492 c 128,-1,8
 444 1525 444 1525 535 1525 c 0,9,10
 589 1525 589 1525 631 1520 c 128,-1,11
 673 1515 673 1515 691 1510 c 1,12,-1
 665 1334 l 1,13,14
 651 1337 651 1337 623.5 1339.5 c 128,-1,15
 596 1342 596 1342 569 1342 c 0,16,17
 497 1342 497 1342 466 1308.5 c 128,-1,18
 435 1275 435 1275 435 1205 c 2,19,-1
 435 0 l 1,20,-1
 219 0 l 1,4,-1
EndSplineSet
Substitution2: "'cv12' Character Variants 12 in Latin lookup 66 subtable" f.1
Substitution2: "'salt' Stylistic Alternatives in Latin lookup 46 subtable" f.1
Substitution2: "'sups' Superscript in Latin lookup 39 subtable" f.sups
Substitution2: "'subs' Subscript in Latin lookup 38 subtable" f.subs
Substitution2: "Single Substitution lookup 36 subtable" f.1
Substitution2: "Single Substitution lookup 35 subtable" f.i.1
Substitution2: "Single Substitution lookup 34 subtable" f.i
Substitution2: "'sinf' Scientific Inferiors in Latin lookup 18 subtable" f.subs
AlternateSubs2: "'aalt' Access All Alternates in Latin lookup 1 subtable" f.sups f.subs
EndChar

StartChar: f.1
Encoding: 60941 60941 649
Width: 639
GlyphClass: 2
Flags: W
AnchorPoint: "Anchor-1" 316 1521 basechar 0
AnchorPoint: "Anchor-0" 242 0 basechar 0
LayerCount: 2
Fore
SplineSet
581 1087 m 1,0,-1
 581 910 l 1,1,-1
 230 910 l 1,2,-1
 230 1087 l 1,3,-1
 581 1087 l 1,0,-1
133 0 m 1,4,-1
 133 1237 l 2,5,6
 133 1330 133 1330 174.5 1394.5 c 128,-1,7
 216 1459 216 1459 287 1492 c 128,-1,8
 358 1525 358 1525 450 1525 c 0,9,10
 504 1525 504 1525 546 1520 c 128,-1,11
 588 1515 588 1515 605 1510 c 1,12,-1
 579 1334 l 1,13,14
 567 1337 567 1337 539 1339.5 c 128,-1,15
 511 1342 511 1342 484 1342 c 0,16,17
 412 1342 412 1342 380.5 1308.5 c 128,-1,18
 349 1275 349 1275 349 1205 c 2,19,-1
 349 0 l 1,20,-1
 133 0 l 1,4,-1
EndSplineSet
EndChar

StartChar: f.i
Encoding: 60942 60942 650
Width: 675
GlyphClass: 2
Flags: W
AnchorPoint: "Anchor-1" 401 1521 basechar 0
AnchorPoint: "Anchor-0" 326 0 basechar 0
LayerCount: 2
Fore
SplineSet
218 0 m 1,0,-1
 218 1237 l 2,1,2
 218 1330 218 1330 258.5 1394.5 c 128,-1,3
 299 1459 299 1459 371 1492 c 128,-1,4
 443 1525 443 1525 535 1525 c 0,5,6
 559 1525 559 1525 582.5 1524 c 128,-1,7
 606 1523 606 1523 628 1520 c 1,8,-1
 616 1340 l 1,9,10
 605 1341 605 1341 593 1341.5 c 128,-1,11
 581 1342 581 1342 568 1342 c 0,12,13
 496 1342 496 1342 465 1308.5 c 128,-1,14
 434 1275 434 1275 434 1205 c 2,15,-1
 434 0 l 1,16,-1
 218 0 l 1,0,-1
19 910 m 1,17,-1
 19 1087 l 1,18,-1
 890 1087 l 1,19,-1
 890 910 l 1,20,-1
 19 910 l 1,17,-1
EndSplineSet
Substitution2: "Single Substitution lookup 35 subtable" f.i.1
EndChar

StartChar: f.i.1
Encoding: 60943 60943 651
Width: 591
GlyphClass: 2
Flags: W
AnchorPoint: "Anchor-1" 316 1521 basechar 0
AnchorPoint: "Anchor-0" 242 0 basechar 0
LayerCount: 2
Fore
SplineSet
133 0 m 1,0,-1
 133 1237 l 2,1,2
 133 1330 133 1330 174.5 1394.5 c 128,-1,3
 216 1459 216 1459 287 1492 c 128,-1,4
 358 1525 358 1525 450 1525 c 0,5,6
 475 1525 475 1525 498.5 1524 c 128,-1,7
 522 1523 522 1523 543 1520 c 1,8,-1
 532 1340 l 1,9,10
 520 1341 520 1341 508 1341.5 c 128,-1,11
 496 1342 496 1342 484 1342 c 0,12,13
 412 1342 412 1342 380.5 1308.5 c 128,-1,14
 349 1275 349 1275 349 1205 c 2,15,-1
 349 0 l 1,16,-1
 133 0 l 1,0,-1
237 910 m 1,17,-1
 237 1087 l 1,18,-1
 813 1087 l 1,19,-1
 813 910 l 1,20,-1
 237 910 l 1,17,-1
EndSplineSet
EndChar

StartChar: g
Encoding: 103 103 659
Width: 1224
GlyphClass: 2
Flags: W
AnchorPoint: "Anchor-1" 590 1087 basechar 0
AnchorPoint: "Anchor-0" 602 -432 basechar 0
LayerCount: 2
Fore
SplineSet
598 -437 m 0,0,1
 468 -437 468 -437 371.5 -401.5 c 128,-1,2
 275 -366 275 -366 214.5 -301.5 c 128,-1,3
 154 -237 154 -237 131 -152 c 1,4,-1
 328 -108 l 1,5,6
 345 -149 345 -149 379 -184.5 c 128,-1,7
 413 -220 413 -220 467 -241 c 128,-1,8
 521 -262 521 -262 598 -262 c 0,9,10
 726 -262 726 -262 801.5 -197.5 c 128,-1,11
 877 -133 877 -133 877 -4 c 2,12,-1
 877 185 l 1,13,-1
 867 185 l 1,14,15
 839 136 839 136 796.5 94.5 c 128,-1,16
 754 53 754 53 692 27.5 c 128,-1,17
 630 2 630 2 544 2 c 0,18,19
 410 2 410 2 305.5 67.5 c 128,-1,20
 201 133 201 133 141.5 255.5 c 128,-1,21
 82 378 82 378 82 547 c 0,22,23
 82 717 82 717 141.5 842 c 128,-1,24
 201 967 201 967 305.5 1035.5 c 128,-1,25
 410 1104 410 1104 545 1104 c 0,26,27
 632 1104 632 1104 694.5 1078 c 128,-1,28
 757 1052 757 1052 800.5 1008.5 c 128,-1,29
 844 965 844 965 872 916 c 1,30,-1
 880 916 l 1,31,-1
 880 1087 l 1,32,-1
 1091 1087 l 1,33,-1
 1091 -1 l 2,34,35
 1091 -154 1091 -154 1025.5 -250.5 c 128,-1,36
 960 -347 960 -347 848 -392 c 128,-1,37
 736 -437 736 -437 598 -437 c 0,0,1
591 184 m 0,38,39
 683 184 683 184 748.5 228 c 128,-1,40
 814 272 814 272 849 354.5 c 128,-1,41
 884 437 884 437 884 549 c 256,42,43
 884 661 884 661 849.5 744.5 c 128,-1,44
 815 828 815 828 749.5 875 c 128,-1,45
 684 922 684 922 591 922 c 0,46,47
 501 922 501 922 435.5 875.5 c 128,-1,48
 370 829 370 829 336 745.5 c 128,-1,49
 302 662 302 662 302 549 c 256,50,51
 302 436 302 436 336.5 353.5 c 128,-1,52
 371 271 371 271 436 227.5 c 128,-1,53
 501 184 501 184 591 184 c 0,38,39
EndSplineSet
Substitution2: "'smcp' Lowercase to Small Capitals in Latin lookup 69 subtable" g.sc
Substitution2: "'sups' Superscript in Latin lookup 39 subtable" g.sups
Substitution2: "'subs' Subscript in Latin lookup 38 subtable" g.subs
Substitution2: "'sinf' Scientific Inferiors in Latin lookup 18 subtable" g.subs
AlternateSubs2: "'aalt' Access All Alternates in Latin lookup 1 subtable" g.sc g.sups g.subs
EndChar

StartChar: uni0260
Encoding: 608 608 660
Width: 1224
GlyphClass: 2
Flags: W
AnchorPoint: "Anchor-1" 590 1087 basechar 0
AnchorPoint: "Anchor-0" 602 -432 basechar 0
LayerCount: 2
Fore
SplineSet
875 865 m 1,0,-1
 875 1224 l 2,1,2
 875 1359 875 1359 956 1428 c 128,-1,3
 1037 1497 1037 1497 1190 1497 c 0,4,5
 1229 1497 1229 1497 1259 1495.5 c 128,-1,6
 1289 1494 1289 1494 1310 1492 c 1,7,-1
 1310 1317 l 1,8,9
 1294 1318 1294 1318 1267.5 1318.5 c 128,-1,10
 1241 1319 1241 1319 1223 1319 c 0,11,12
 1153 1319 1153 1319 1122 1296 c 128,-1,13
 1091 1273 1091 1273 1091 1222 c 2,14,-1
 1091 865 l 1,15,-1
 875 865 l 1,0,-1
598 -437 m 0,16,17
 468 -437 468 -437 371.5 -401.5 c 128,-1,18
 275 -366 275 -366 214.5 -301.5 c 128,-1,19
 154 -237 154 -237 131 -152 c 1,20,-1
 328 -108 l 1,21,22
 345 -149 345 -149 379 -184.5 c 128,-1,23
 413 -220 413 -220 467 -241 c 128,-1,24
 521 -262 521 -262 598 -262 c 0,25,26
 726 -262 726 -262 801.5 -197.5 c 128,-1,27
 877 -133 877 -133 877 -4 c 2,28,-1
 877 185 l 1,29,-1
 867 185 l 1,30,31
 839 136 839 136 796.5 94.5 c 128,-1,32
 754 53 754 53 692 27.5 c 128,-1,33
 630 2 630 2 544 2 c 0,34,35
 410 2 410 2 305.5 67.5 c 128,-1,36
 201 133 201 133 141.5 255.5 c 128,-1,37
 82 378 82 378 82 547 c 0,38,39
 82 717 82 717 141.5 842 c 128,-1,40
 201 967 201 967 305.5 1035.5 c 128,-1,41
 410 1104 410 1104 545 1104 c 0,42,43
 632 1104 632 1104 694.5 1078 c 128,-1,44
 757 1052 757 1052 800.5 1008.5 c 128,-1,45
 844 965 844 965 872 916 c 1,46,-1
 880 916 l 1,47,-1
 880 1087 l 1,48,-1
 1091 1087 l 1,49,-1
 1091 -1 l 2,50,51
 1091 -154 1091 -154 1025.5 -250.5 c 128,-1,52
 960 -347 960 -347 848 -392 c 128,-1,53
 736 -437 736 -437 598 -437 c 0,16,17
591 184 m 0,54,55
 683 184 683 184 748.5 228 c 128,-1,56
 814 272 814 272 849 354.5 c 128,-1,57
 884 437 884 437 884 549 c 256,58,59
 884 661 884 661 849.5 744.5 c 128,-1,60
 815 828 815 828 749.5 875 c 128,-1,61
 684 922 684 922 591 922 c 0,62,63
 501 922 501 922 435.5 875.5 c 128,-1,64
 370 829 370 829 336 745.5 c 128,-1,65
 302 662 302 662 302 549 c 256,66,67
 302 436 302 436 336.5 353.5 c 128,-1,68
 371 271 371 271 436 227.5 c 128,-1,69
 501 184 501 184 591 184 c 0,54,55
EndSplineSet
Substitution2: "'smcp' Lowercase to Small Capitals in Latin lookup 69 subtable" uni0260.sc
Substitution2: "'c2sc' Capitals to Small Capitals in Latin lookup 68 subtable" uni0260.sc
Substitution2: "'aalt' Access All Alternates in Latin lookup 0 subtable" uni0260.sc
EndChar

StartChar: g.sc
Encoding: 610 610 669
Width: 1114
GlyphClass: 2
Flags: W
AnchorPoint: "Anchor-1" 565 1087 basechar 0
AnchorPoint: "Anchor-0" 563 0 basechar 0
LayerCount: 2
Fore
SplineSet
574 -16 m 0,0,1
 423 -16 423 -16 307 53 c 128,-1,2
 191 122 191 122 126 248 c 128,-1,3
 61 374 61 374 61 543 c 0,4,5
 61 716 61 716 128 842 c 128,-1,6
 195 968 195 968 310.5 1035.5 c 128,-1,7
 426 1103 426 1103 571 1103 c 0,8,9
 693 1103 693 1103 793 1056.5 c 128,-1,10
 893 1010 893 1010 958.5 926.5 c 128,-1,11
 1024 843 1024 843 1039 732 c 1,12,-1
 823 732 l 1,13,14
 808 788 808 788 774 828.5 c 128,-1,15
 740 869 740 869 690 891.5 c 128,-1,16
 640 914 640 914 574 914 c 0,17,18
 486 914 486 914 418.5 870 c 128,-1,19
 351 826 351 826 313.5 743 c 128,-1,20
 276 660 276 660 276 544 c 0,21,22
 276 429 276 429 313 346 c 128,-1,23
 350 263 350 263 418 218 c 128,-1,24
 486 173 486 173 578 173 c 0,25,26
 696 173 696 173 768.5 240 c 128,-1,27
 841 307 841 307 841 416 c 1,28,-1
 889 410 l 1,29,-1
 599 410 l 1,30,-1
 599 575 l 1,31,-1
 1048 575 l 1,32,-1
 1048 439 l 2,33,34
 1048 301 1048 301 986.5 199 c 128,-1,35
 925 97 925 97 818.5 40.5 c 128,-1,36
 712 -16 712 -16 574 -16 c 0,0,1
EndSplineSet
EndChar

StartChar: uni0260.sc
Encoding: 60947 60947 670
Width: 1198
GlyphClass: 2
Flags: W
AnchorPoint: "Anchor-1" 565 1087 basechar 0
AnchorPoint: "Anchor-0" 563 0 basechar 0
LayerCount: 2
Fore
SplineSet
893 732 m 1,0,-1
 856 957 l 2,1,2
 839 1047 839 1047 859.5 1114.5 c 128,-1,3
 880 1182 880 1182 940.5 1219.5 c 128,-1,4
 1001 1257 1001 1257 1097 1257 c 0,5,6
 1134 1257 1134 1257 1159 1255.5 c 128,-1,7
 1184 1254 1184 1254 1206 1251 c 1,8,-1
 1206 1077 l 1,9,10
 1189 1078 1189 1078 1167.5 1078.5 c 128,-1,11
 1146 1079 1146 1079 1131 1079 c 0,12,13
 1060 1079 1060 1079 1036 1041 c 128,-1,14
 1012 1003 1012 1003 1031 903 c 1,15,-1
 1039 732 l 1,16,-1
 893 732 l 1,0,-1
574 -16 m 0,17,18
 423 -16 423 -16 307 53 c 128,-1,19
 191 122 191 122 126 248 c 128,-1,20
 61 374 61 374 61 543 c 0,21,22
 61 716 61 716 128 842 c 128,-1,23
 195 968 195 968 310.5 1035.5 c 128,-1,24
 426 1103 426 1103 571 1103 c 0,25,26
 693 1103 693 1103 793 1056.5 c 128,-1,27
 893 1010 893 1010 958.5 926.5 c 128,-1,28
 1024 843 1024 843 1039 732 c 1,29,-1
 823 732 l 1,30,31
 808 788 808 788 774 828.5 c 128,-1,32
 740 869 740 869 690 891.5 c 128,-1,33
 640 914 640 914 574 914 c 0,34,35
 486 914 486 914 418.5 870 c 128,-1,36
 351 826 351 826 313.5 743 c 128,-1,37
 276 660 276 660 276 544 c 0,38,39
 276 429 276 429 313 346 c 128,-1,40
 350 263 350 263 418 218 c 128,-1,41
 486 173 486 173 578 173 c 0,42,43
 696 173 696 173 768.5 240 c 128,-1,44
 841 307 841 307 841 416 c 1,45,-1
 889 410 l 1,46,-1
 599 410 l 1,47,-1
 599 575 l 1,48,-1
 1048 575 l 1,49,-1
 1048 439 l 2,50,51
 1048 301 1048 301 986.5 199 c 128,-1,52
 925 97 925 97 818.5 40.5 c 128,-1,53
 712 -16 712 -16 574 -16 c 0,17,18
EndSplineSet
EndChar

StartChar: h
Encoding: 104 104 671
Width: 1190
GlyphClass: 2
Flags: W
AnchorPoint: "Anchor-3" 241 0 basechar 0
AnchorPoint: "Anchor-1" 241 1490 basechar 0
AnchorPoint: "Anchor-0" 595 0 basechar 0
LayerCount: 2
Fore
SplineSet
349 635 m 2,0,-1
 349 0 l 1,1,-1
 133 0 l 1,2,-1
 133 1490 l 1,3,-1
 348 1490 l 1,4,-1
 348 820 l 1,5,-1
 308 820 l 1,6,7
 357 966 357 966 450 1035 c 128,-1,8
 543 1104 543 1104 674 1104 c 0,9,10
 786 1104 786 1104 872.5 1056.5 c 128,-1,11
 959 1009 959 1009 1008 916 c 128,-1,12
 1057 823 1057 823 1057 684 c 2,13,-1
 1057 0 l 1,14,-1
 840 0 l 1,15,-1
 840 658 l 2,16,17
 840 782 840 782 778 848 c 128,-1,18
 716 914 716 914 607 914 c 0,19,20
 534 914 534 914 475.5 883.5 c 128,-1,21
 417 853 417 853 383 791 c 128,-1,22
 349 729 349 729 349 635 c 2,0,-1
EndSplineSet
Substitution2: "'smcp' Lowercase to Small Capitals in Latin lookup 69 subtable" h.sc
Substitution2: "'sups' Superscript in Latin lookup 39 subtable" h.sups
Substitution2: "'subs' Subscript in Latin lookup 38 subtable" h.subs
Substitution2: "'sinf' Scientific Inferiors in Latin lookup 18 subtable" h.subs
AlternateSubs2: "'aalt' Access All Alternates in Latin lookup 1 subtable" h.sups h.subs h.sc
EndChar

StartChar: uni0452
Encoding: 1106 1106 674
Width: 1190
GlyphClass: 2
Flags: W
AnchorPoint: "Anchor-3" 241 0 basechar 0
AnchorPoint: "Anchor-1" 241 1490 basechar 0
AnchorPoint: "Anchor-0" 595 0 basechar 0
LayerCount: 2
Fore
SplineSet
748 -423 m 0,0,1
 709 -423 709 -423 678 -422 c 128,-1,2
 647 -421 647 -421 625 -418 c 1,3,-1
 625 -243 l 1,4,5
 643 -244 643 -244 669 -244.5 c 128,-1,6
 695 -245 695 -245 713 -245 c 0,7,8
 782 -245 782 -245 811 -222 c 128,-1,9
 840 -199 840 -199 840 -147 c 2,10,-1
 840 0 l 1,11,-1
 1057 0 l 1,12,-1
 1057 -149 l 2,13,14
 1057 -284 1057 -284 979 -353.5 c 128,-1,15
 901 -423 901 -423 748 -423 c 0,0,1
349 635 m 2,16,-1
 349 0 l 1,17,-1
 133 0 l 1,18,-1
 133 1490 l 1,19,-1
 348 1490 l 1,20,-1
 348 820 l 1,21,-1
 308 820 l 1,22,23
 357 966 357 966 450 1035 c 128,-1,24
 543 1104 543 1104 674 1104 c 0,25,26
 786 1104 786 1104 872.5 1056.5 c 128,-1,27
 959 1009 959 1009 1008 916 c 128,-1,28
 1057 823 1057 823 1057 684 c 2,29,-1
 1057 0 l 1,30,-1
 840 0 l 1,31,-1
 840 658 l 2,32,33
 840 782 840 782 778 848 c 128,-1,34
 716 914 716 914 607 914 c 0,35,36
 534 914 534 914 475.5 883.5 c 128,-1,37
 417 853 417 853 383 791 c 128,-1,38
 349 729 349 729 349 635 c 2,16,-1
-12 1205 m 1,39,-1
 -12 1361 l 1,40,-1
 663 1361 l 1,41,-1
 663 1205 l 1,42,-1
 -12 1205 l 1,39,-1
EndSplineSet
EndChar

StartChar: uni0266
Encoding: 614 614 675
Width: 1189
GlyphClass: 2
Flags: W
AnchorPoint: "Anchor-1" 595 1087 basechar 0
AnchorPoint: "Anchor-0" 595 0 basechar 0
LayerCount: 2
Fore
SplineSet
133 865 m 1,0,-1
 133 1224 l 2,1,2
 133 1359 133 1359 214 1428 c 128,-1,3
 295 1497 295 1497 448 1497 c 0,4,5
 487 1497 487 1497 517 1495.5 c 128,-1,6
 547 1494 547 1494 569 1492 c 1,7,-1
 569 1317 l 1,8,9
 552 1318 552 1318 526 1318.5 c 128,-1,10
 500 1319 500 1319 481 1319 c 0,11,12
 411 1319 411 1319 380 1296 c 128,-1,13
 349 1273 349 1273 349 1222 c 2,14,-1
 349 865 l 1,15,-1
 133 865 l 1,0,-1
349 635 m 2,16,-1
 349 0 l 1,17,-1
 133 0 l 1,18,-1
 133 1087 l 1,19,-1
 342 1087 l 1,20,-1
 343 820 l 1,21,-1
 308 820 l 1,22,23
 357 966 357 966 450 1035 c 128,-1,24
 543 1104 543 1104 674 1104 c 0,25,26
 786 1104 786 1104 872 1056.5 c 128,-1,27
 958 1009 958 1009 1007 916 c 128,-1,28
 1056 823 1056 823 1056 684 c 2,29,-1
 1056 0 l 1,30,-1
 840 0 l 1,31,-1
 840 658 l 2,32,33
 840 782 840 782 778 848 c 128,-1,34
 716 914 716 914 607 914 c 0,35,36
 534 914 534 914 475.5 883.5 c 128,-1,37
 417 853 417 853 383 791 c 128,-1,38
 349 729 349 729 349 635 c 2,16,-1
EndSplineSet
EndChar

StartChar: uni0267
Encoding: 615 615 676
Width: 1189
GlyphClass: 2
Flags: W
AnchorPoint: "Anchor-1" 595 1087 basechar 0
AnchorPoint: "Anchor-0" 595 0 basechar 0
LayerCount: 2
Fore
SplineSet
748 -423 m 0,0,1
 709 -423 709 -423 678 -422 c 128,-1,2
 647 -421 647 -421 625 -418 c 1,3,-1
 625 -243 l 1,4,5
 643 -244 643 -244 669 -244.5 c 128,-1,6
 695 -245 695 -245 713 -245 c 0,7,8
 782 -245 782 -245 811 -222 c 128,-1,9
 840 -199 840 -199 840 -147 c 2,10,-1
 840 0 l 1,11,-1
 1057 0 l 1,12,-1
 1057 -149 l 2,13,14
 1057 -284 1057 -284 979 -353.5 c 128,-1,15
 901 -423 901 -423 748 -423 c 0,0,1
349 635 m 2,16,-1
 349 0 l 1,17,-1
 133 0 l 1,18,-1
 133 1087 l 1,19,-1
 342 1087 l 1,20,-1
 343 820 l 1,21,-1
 308 820 l 1,22,23
 357 966 357 966 450 1035 c 128,-1,24
 543 1104 543 1104 674 1104 c 0,25,26
 786 1104 786 1104 872 1056.5 c 128,-1,27
 958 1009 958 1009 1007 916 c 128,-1,28
 1056 823 1056 823 1056 684 c 2,29,-1
 1056 0 l 1,30,-1
 840 0 l 1,31,-1
 840 658 l 2,32,33
 840 782 840 782 778 848 c 128,-1,34
 716 914 716 914 607 914 c 0,35,36
 534 914 534 914 475.5 883.5 c 128,-1,37
 417 853 417 853 383 791 c 128,-1,38
 349 729 349 729 349 635 c 2,16,-1
133 865 m 1,39,-1
 133 1224 l 2,40,41
 133 1359 133 1359 214 1428 c 128,-1,42
 295 1497 295 1497 448 1497 c 0,43,44
 487 1497 487 1497 517 1495.5 c 128,-1,45
 547 1494 547 1494 569 1492 c 1,46,-1
 569 1317 l 1,47,48
 552 1318 552 1318 526 1318.5 c 128,-1,49
 500 1319 500 1319 481 1319 c 0,50,51
 411 1319 411 1319 380 1296 c 128,-1,52
 349 1273 349 1273 349 1222 c 2,53,-1
 349 865 l 1,54,-1
 133 865 l 1,39,-1
EndSplineSet
EndChar

StartChar: uni0195
Encoding: 405 405 677
Width: 1932
Flags: W
LayerCount: 2
Fore
SplineSet
1251 -20 m 0,0,1
 1136 -20 1136 -20 1045.5 30.5 c 128,-1,2
 955 81 955 81 904 183 c 128,-1,3
 853 285 853 285 853 440 c 2,4,-1
 853 659 l 2,5,6
 853 783 853 783 789 849.5 c 128,-1,7
 725 916 725 916 613 916 c 0,8,9
 538 916 538 916 479 885 c 128,-1,10
 420 854 420 854 384.5 792.5 c 128,-1,11
 349 731 349 731 349 637 c 2,12,-1
 349 0 l 1,13,-1
 133 0 l 1,14,-1
 133 1490 l 1,15,-1
 348 1490 l 1,16,-1
 348 907 l 1,17,-1
 357 907 l 1,18,19
 394 995 394 995 474 1049.5 c 128,-1,20
 554 1104 554 1104 681 1104 c 0,21,22
 793 1104 793 1104 881 1057 c 128,-1,23
 969 1010 969 1010 1019.5 916 c 128,-1,24
 1070 822 1070 822 1070 684 c 2,25,-1
 1070 440 l 2,26,27
 1070 327 1070 327 1101 268.5 c 128,-1,28
 1132 210 1132 210 1177 188.5 c 128,-1,29
 1222 167 1222 167 1263 167 c 0,30,31
 1353 167 1353 167 1424.5 247.5 c 128,-1,32
 1496 328 1496 328 1539 506 c 128,-1,33
 1582 684 1582 684 1582 975 c 2,34,-1
 1582 1087 l 1,35,-1
 1799 1087 l 1,36,-1
 1799 975 l 2,37,38
 1799 625 1799 625 1731 405.5 c 128,-1,39
 1663 186 1663 186 1540.5 83 c 128,-1,40
 1418 -20 1418 -20 1251 -20 c 0,0,1
EndSplineSet
EndChar

StartChar: hturn
Encoding: 613 613 678
Width: 1190
GlyphClass: 2
Flags: W
AnchorPoint: "Anchor-3" 949 1087 basechar 0
AnchorPoint: "Anchor-1" 592 1087 basechar 0
AnchorPoint: "Anchor-0" 595 1087 basechar 0
LayerCount: 2
Fore
SplineSet
841 452 m 2,0,-1
 841 1087 l 1,1,-1
 1057 1087 l 1,2,-1
 1057 -403 l 1,3,-1
 842 -403 l 1,4,-1
 842 268 l 1,5,-1
 882 268 l 1,6,7
 833 123 833 123 740 53 c 128,-1,8
 647 -17 647 -17 516 -17 c 0,9,10
 404 -17 404 -17 317.5 30.5 c 128,-1,11
 231 78 231 78 182 172 c 128,-1,12
 133 266 133 266 133 403 c 2,13,-1
 133 1087 l 1,14,-1
 350 1087 l 1,15,-1
 350 430 l 2,16,17
 350 307 350 307 411.5 240 c 128,-1,18
 473 173 473 173 583 173 c 0,19,20
 657 173 657 173 715 203.5 c 128,-1,21
 773 234 773 234 807 297 c 128,-1,22
 841 360 841 360 841 452 c 2,0,-1
EndSplineSet
EndChar

StartChar: hturnlthook
Encoding: 686 686 679
Width: 1299
Flags: W
LayerCount: 2
Fore
SplineSet
951 -418 m 1,0,-1
 951 268 l 1,1,-1
 991 268 l 1,2,3
 941 122 941 122 847.5 52.5 c 128,-1,4
 754 -17 754 -17 625 -17 c 0,5,6
 513 -17 513 -17 426.5 30.5 c 128,-1,7
 340 78 340 78 291 172 c 128,-1,8
 242 266 242 266 242 403 c 2,9,-1
 242 784 l 2,10,11
 242 860 242 860 201 888.5 c 128,-1,12
 160 917 160 917 86 917 c 0,13,14
 75 917 75 917 63 916.5 c 128,-1,15
 51 916 51 916 39.5 915.5 c 128,-1,16
 28 915 28 915 19 914 c 1,17,-1
 19 1089 l 1,18,19
 42 1093 42 1093 70 1093.5 c 128,-1,20
 98 1094 98 1094 132 1094 c 0,21,22
 205 1094 205 1094 264.5 1075.5 c 128,-1,23
 324 1057 324 1057 368 1020 c 128,-1,24
 412 983 412 983 435 926 c 128,-1,25
 458 869 458 869 458 791 c 2,26,-1
 458 430 l 2,27,28
 458 307 458 307 520 240 c 128,-1,29
 582 173 582 173 692 173 c 0,30,31
 765 173 765 173 823.5 203.5 c 128,-1,32
 882 234 882 234 915.5 297 c 128,-1,33
 949 360 949 360 949 452 c 2,34,-1
 949 1087 l 1,35,-1
 1166 1087 l 1,36,-1
 1166 -418 l 1,37,-1
 951 -418 l 1,0,-1
EndSplineSet
EndChar

StartChar: hturnhook2
Encoding: 687 687 680
Width: 1299
Flags: W
LayerCount: 2
Fore
SplineSet
1252 -423 m 0,0,1
 1104 -423 1104 -423 1027.5 -354.5 c 128,-1,2
 951 -286 951 -286 951 -155 c 2,3,-1
 951 268 l 1,4,-1
 991 268 l 1,5,6
 941 122 941 122 847.5 52.5 c 128,-1,7
 754 -17 754 -17 625 -17 c 0,8,9
 513 -17 513 -17 426.5 30.5 c 128,-1,10
 340 78 340 78 291 172 c 128,-1,11
 242 266 242 266 242 403 c 2,12,-1
 242 784 l 2,13,14
 242 860 242 860 201 888.5 c 128,-1,15
 160 917 160 917 86 917 c 0,16,17
 75 917 75 917 63 916.5 c 128,-1,18
 51 916 51 916 39.5 915.5 c 128,-1,19
 28 915 28 915 19 914 c 1,20,-1
 19 1089 l 1,21,22
 42 1093 42 1093 70 1093.5 c 128,-1,23
 98 1094 98 1094 132 1094 c 0,24,25
 205 1094 205 1094 264.5 1075.5 c 128,-1,26
 324 1057 324 1057 368 1020 c 128,-1,27
 412 983 412 983 435 926 c 128,-1,28
 458 869 458 869 458 791 c 2,29,-1
 458 430 l 2,30,31
 458 307 458 307 520 240 c 128,-1,32
 582 173 582 173 692 173 c 0,33,34
 765 173 765 173 823.5 203.5 c 128,-1,35
 882 234 882 234 915.5 297 c 128,-1,36
 949 360 949 360 949 452 c 2,37,-1
 949 1087 l 1,38,-1
 1166 1087 l 1,39,-1
 1166 -150 l 2,40,41
 1166 -201 1166 -201 1194.5 -223.5 c 128,-1,42
 1223 -246 1223 -246 1292 -246 c 0,43,44
 1309 -246 1309 -246 1336.5 -245.5 c 128,-1,45
 1364 -245 1364 -245 1381 -244 c 1,46,-1
 1381 -418 l 1,47,48
 1367 -419 1367 -419 1346.5 -420.5 c 128,-1,49
 1326 -422 1326 -422 1302 -422.5 c 128,-1,50
 1278 -423 1278 -423 1252 -423 c 0,0,1
EndSplineSet
EndChar

StartChar: dotlessi
Encoding: 305 305 691
Width: 482
GlyphClass: 2
Flags: W
AnchorPoint: "Anchor-4" 349 0 basechar 0
AnchorPoint: "Anchor-1" 242 1087 basechar 0
AnchorPoint: "Anchor-0" 242 0 basechar 0
LayerCount: 2
Fore
SplineSet
133 0 m 1,0,-1
 133 1087 l 1,1,-1
 349 1087 l 1,2,-1
 349 0 l 1,3,-1
 133 0 l 1,0,-1
EndSplineSet
EndChar

StartChar: uni0237
Encoding: 567 567 713
Width: 483
GlyphClass: 2
Flags: W
AnchorPoint: "Anchor-1" 242 1087 basechar 0
AnchorPoint: "Anchor-0" 185 -447 basechar 0
LayerCount: 2
Fore
SplineSet
134 1087 m 1,0,-1
 349 1087 l 1,1,-1
 349 -100 l 2,2,3
 350 -200 350 -200 311.5 -271 c 128,-1,4
 273 -342 273 -342 199.5 -380 c 128,-1,5
 126 -418 126 -418 19 -418 c 2,6,-1
 -48 -418 l 1,7,-1
 -48 -234 l 1,8,-1
 1 -234 l 2,9,10
 70 -234 70 -234 102 -197 c 128,-1,11
 134 -160 134 -160 134 -86 c 2,12,-1
 134 1087 l 1,0,-1
EndSplineSet
EndChar

StartChar: i.sc
Encoding: 60950 60950 720
Width: 647
GlyphClass: 2
Flags: W
AnchorPoint: "Anchor-4" 595 0 basechar 0
AnchorPoint: "Anchor-1" 324 1087 basechar 0
AnchorPoint: "Anchor-0" 324 0 basechar 0
LayerCount: 2
Fore
SplineSet
52 0 m 1,0,-1
 52 179 l 1,1,-1
 216 179 l 1,2,-1
 216 909 l 1,3,-1
 52 909 l 1,4,-1
 52 1087 l 1,5,-1
 595 1087 l 1,6,-1
 595 909 l 1,7,-1
 432 909 l 1,8,-1
 432 179 l 1,9,-1
 595 179 l 1,10,-1
 595 0 l 1,11,-1
 52 0 l 1,0,-1
EndSplineSet
EndChar

StartChar: jcrosstail.ccmp
Encoding: 57423 57423 722
Width: 758
GlyphClass: 2
Flags: W
AnchorPoint: "Anchor-4" 614 0 basechar 0
AnchorPoint: "Anchor-1" 506 1087 basechar 0
AnchorPoint: "Anchor-0" 431 -460 basechar 0
LayerCount: 2
Fore
SplineSet
290 -422 m 0,0,1
 191 -422 191 -422 121 -387 c 128,-1,2
 51 -352 51 -352 14.5 -291 c 128,-1,3
 -22 -230 -22 -230 -22 -154 c 0,4,5
 -22 -70 -22 -70 19 -9 c 128,-1,6
 60 52 60 52 131 85.5 c 128,-1,7
 202 119 202 119 291 119 c 2,8,-1
 843 119 l 1,9,-1
 843 -58 l 1,10,-1
 300 -58 l 2,11,12
 251 -58 251 -58 219 -86 c 128,-1,13
 187 -114 187 -114 187 -159 c 0,14,15
 187 -201 187 -201 215.5 -228 c 128,-1,16
 244 -255 244 -255 288 -255 c 0,17,18
 349 -255 349 -255 374 -209.5 c 128,-1,19
 399 -164 399 -164 399 -118 c 2,20,-1
 399 246 l 1,21,-1
 610 246 l 1,22,-1
 610 -84 l 2,23,24
 610 -149 610 -149 591.5 -210 c 128,-1,25
 573 -271 573 -271 533.5 -319 c 128,-1,26
 494 -367 494 -367 433.5 -394.5 c 128,-1,27
 373 -422 373 -422 290 -422 c 0,0,1
398 0 m 1,28,-1
 398 1087 l 1,29,-1
 614 1087 l 1,30,-1
 614 0 l 1,31,-1
 398 0 l 1,28,-1
EndSplineSet
EndChar

StartChar: k
Encoding: 107 107 729
Width: 1107
GlyphClass: 2
Flags: W
AnchorPoint: "Anchor-1" 242 1490 basechar 0
AnchorPoint: "Anchor-0" 573 0 basechar 0
LayerCount: 2
Fore
SplineSet
332 366 m 1,0,-1
 332 625 l 1,1,-1
 360 625 l 1,2,-1
 807 1087 l 1,3,-1
 1069 1087 l 1,4,-1
 566 562 l 1,5,-1
 531 562 l 1,6,-1
 332 366 l 1,0,-1
133 0 m 1,7,-1
 133 1490 l 1,8,-1
 349 1490 l 1,9,-1
 349 0 l 1,10,-1
 133 0 l 1,7,-1
834 0 m 1,11,-1
 437 514 l 1,12,-1
 585 665 l 1,13,-1
 1100 0 l 1,14,-1
 834 0 l 1,11,-1
EndSplineSet
Substitution2: "'sups' Superscript in Latin lookup 39 subtable" k.sups
Substitution2: "'subs' Subscript in Latin lookup 38 subtable" k.subs
Substitution2: "'sinf' Scientific Inferiors in Latin lookup 18 subtable" k.subs
AlternateSubs2: "'aalt' Access All Alternates in Latin lookup 1 subtable" k.sups k.subs
EndChar

StartChar: uni0199
Encoding: 409 409 730
Width: 1107
GlyphClass: 2
Flags: W
AnchorPoint: "Anchor-1" 242 1087 basechar 0
AnchorPoint: "Anchor-0" 573 0 basechar 0
LayerCount: 2
Fore
SplineSet
133 865 m 1,0,-1
 133 1224 l 2,1,2
 133 1359 133 1359 214 1428 c 128,-1,3
 295 1497 295 1497 448 1497 c 0,4,5
 487 1497 487 1497 517 1495.5 c 128,-1,6
 547 1494 547 1494 569 1492 c 1,7,-1
 569 1317 l 1,8,9
 552 1318 552 1318 526 1318.5 c 128,-1,10
 500 1319 500 1319 481 1319 c 0,11,12
 411 1319 411 1319 380 1296 c 128,-1,13
 349 1273 349 1273 349 1222 c 2,14,-1
 349 865 l 1,15,-1
 133 865 l 1,0,-1
332 366 m 1,16,-1
 332 625 l 1,17,-1
 360 625 l 1,18,-1
 807 1087 l 1,19,-1
 1069 1087 l 1,20,-1
 566 562 l 1,21,-1
 531 562 l 1,22,-1
 332 366 l 1,16,-1
133 0 m 1,23,-1
 133 1087 l 1,24,-1
 349 1087 l 1,25,-1
 349 0 l 1,26,-1
 133 0 l 1,23,-1
834 0 m 1,27,-1
 437 514 l 1,28,-1
 585 665 l 1,29,-1
 1100 0 l 1,30,-1
 834 0 l 1,27,-1
EndSplineSet
EndChar

StartChar: kturn
Encoding: 670 670 736
Width: 1107
GlyphClass: 2
Flags: W
AnchorPoint: "Anchor-1" 572 1087 basechar 0
AnchorPoint: "Anchor-0" 885 -372 basechar 0
LayerCount: 2
Fore
SplineSet
775 721 m 1,0,-1
 775 462 l 1,1,-1
 747 462 l 1,2,-1
 301 0 l 1,3,-1
 38 0 l 1,4,-1
 541 526 l 1,5,-1
 577 526 l 1,6,-1
 775 721 l 1,0,-1
974 1087 m 1,7,-1
 974 -403 l 1,8,-1
 758 -403 l 1,9,-1
 758 1087 l 1,10,-1
 974 1087 l 1,7,-1
273 1087 m 1,11,-1
 671 574 l 1,12,-1
 522 422 l 1,13,-1
 7 1087 l 1,14,-1
 273 1087 l 1,11,-1
EndSplineSet
EndChar

StartChar: k.base
Encoding: 60951 60951 737
Width: 1107
GlyphClass: 2
Flags: W
AnchorPoint: "Anchor-1" 242 1087 basechar 0
AnchorPoint: "Anchor-0" 573 0 basechar 0
LayerCount: 2
Fore
SplineSet
332 366 m 1,0,-1
 332 625 l 1,1,-1
 360 625 l 1,2,-1
 807 1087 l 1,3,-1
 1069 1087 l 1,4,-1
 566 562 l 1,5,-1
 531 562 l 1,6,-1
 332 366 l 1,0,-1
133 0 m 1,7,-1
 133 1087 l 1,8,-1
 349 1087 l 1,9,-1
 349 0 l 1,10,-1
 133 0 l 1,7,-1
834 0 m 1,11,-1
 437 514 l 1,12,-1
 585 665 l 1,13,-1
 1100 0 l 1,14,-1
 834 0 l 1,11,-1
EndSplineSet
EndChar

StartChar: l
Encoding: 1114124 -1 738
Width: 482
GlyphClass: 2
Flags: W
AnchorPoint: "Anchor-1" 242 1490 basechar 0
AnchorPoint: "Anchor-0" 241 0 basechar 0
LayerCount: 2
Fore
SplineSet
349 1490 m 1,0,-1
 349 0 l 1,1,-1
 133 0 l 1,2,-1
 133 1490 l 1,3,-1
 349 1490 l 1,0,-1
EndSplineSet
Substitution2: "'smcp' Lowercase to Small Capitals in Latin lookup 69 subtable" l.sc
Substitution2: "'c2sc' Capitals to Small Capitals in Latin lookup 68 subtable" l.sc
Substitution2: "'cv05' Character Variants 05 in Latin lookup 59 subtable" l.ss02
Substitution2: "'ss04' Style Set 4 in Latin lookup 50 subtable" l.ss02
Substitution2: "'ss02' Style Set 2 in Latin lookup 48 subtable" l.ss02
Substitution2: "'salt' Stylistic Alternatives in Latin lookup 46 subtable" l.ss02
Substitution2: "'sups' Superscript in Latin lookup 39 subtable" l.sups
Substitution2: "'subs' Subscript in Latin lookup 38 subtable" l.subs
Substitution2: "'sinf' Scientific Inferiors in Latin lookup 18 subtable" l.subs
AlternateSubs2: "'aalt' Access All Alternates in Latin lookup 1 subtable" l.sc l.sups l.subs
EndChar

StartChar: lrthook
Encoding: 621 621 742
Width: 482
GlyphClass: 2
Flags: W
AnchorPoint: "Anchor-1" 242 1490 basechar 0
AnchorPoint: "Anchor-0" 241 0 basechar 0
LayerCount: 2
Fore
SplineSet
443 -423 m 0,0,1
 290 -423 290 -423 211.5 -353.5 c 128,-1,2
 133 -284 133 -284 133 -149 c 2,3,-1
 133 0 l 1,4,-1
 349 0 l 1,5,-1
 349 -147 l 2,6,7
 349 -199 349 -199 378.5 -222 c 128,-1,8
 408 -245 408 -245 477 -245 c 0,9,10
 495 -245 495 -245 521 -244.5 c 128,-1,11
 547 -244 547 -244 565 -243 c 1,12,-1
 565 -418 l 1,13,14
 543 -421 543 -421 512.5 -422 c 128,-1,15
 482 -423 482 -423 443 -423 c 0,0,1
349 1490 m 1,16,-1
 349 0 l 1,17,-1
 133 0 l 1,18,-1
 133 1490 l 1,19,-1
 349 1490 l 1,16,-1
EndSplineSet
EndChar

StartChar: uni026C
Encoding: 1114128 -1 743
Width: 879
Flags: W
LayerCount: 2
Fore
SplineSet
861 578 m 1,0,-1
 318 578 l 2,1,2
 229 578 229 578 159 611.5 c 128,-1,3
 89 645 89 645 48 706 c 128,-1,4
 7 767 7 767 7 849 c 0,5,6
 7 927 7 927 44.5 990 c 128,-1,7
 82 1053 82 1053 152.5 1089.5 c 128,-1,8
 223 1126 223 1126 321 1126 c 0,9,10
 398 1126 398 1126 455.5 1102 c 128,-1,11
 513 1078 513 1078 552 1033.5 c 128,-1,12
 591 989 591 989 610.5 929.5 c 128,-1,13
 630 870 630 870 630 801 c 2,14,-1
 630 450 l 1,15,-1
 429 450 l 1,16,-1
 429 837 l 2,17,18
 429 884 429 884 402 918.5 c 128,-1,19
 375 953 375 953 319 953 c 0,20,21
 290 953 290 953 266.5 939 c 128,-1,22
 243 925 243 925 229.5 901.5 c 128,-1,23
 216 878 216 878 216 851 c 0,24,25
 216 813 216 813 247 784 c 128,-1,26
 278 755 278 755 329 755 c 2,27,-1
 861 755 l 1,28,-1
 861 578 l 1,0,-1
647 1490 m 1,29,-1
 647 0 l 1,30,-1
 429 0 l 1,31,-1
 429 1490 l 1,32,-1
 647 1490 l 1,29,-1
EndSplineSet
Substitution2: "'cv05' Character Variants 05 in Latin lookup 59 subtable" uni026C.ss02
Substitution2: "'ss04' Style Set 4 in Latin lookup 50 subtable" uni026C.ss02
Substitution2: "'ss02' Style Set 2 in Latin lookup 48 subtable" uni026C.ss02
Substitution2: "'salt' Stylistic Alternatives in Latin lookup 46 subtable" uni026C.ss02
EndChar

StartChar: uni0234
Encoding: 564 564 744
Width: 802
GlyphClass: 2
Flags: W
AnchorPoint: "Anchor-1" 242 1490 basechar 0
AnchorPoint: "Anchor-0" 241 0 basechar 0
LayerCount: 2
Fore
SplineSet
475 -418 m 0,0,1
 353 -418 353 -418 277.5 -371 c 128,-1,2
 202 -324 202 -324 167.5 -248 c 128,-1,3
 133 -172 133 -172 133 -86 c 2,4,-1
 133 234 l 1,5,-1
 349 234 l 1,6,-1
 349 -120 l 2,7,8
 349 -186 349 -186 387.5 -221 c 128,-1,9
 426 -256 426 -256 477 -256 c 0,10,11
 526 -256 526 -256 555.5 -226.5 c 128,-1,12
 585 -197 585 -197 585 -152 c 0,13,14
 585 -111 585 -111 560.5 -82 c 128,-1,15
 536 -53 536 -53 489 -48 c 0,16,17
 455 -43 455 -43 423.5 -50.5 c 128,-1,18
 392 -58 392 -58 361 -76.5 c 128,-1,19
 330 -95 330 -95 296 -125 c 2,20,-1
 13 -391 l 1,21,-1
 -108 -255 l 1,22,-1
 141 -22 l 2,23,24
 213 45 213 45 302.5 82.5 c 128,-1,25
 392 120 392 120 481 120 c 0,26,27
 618 120 618 120 705.5 44 c 128,-1,28
 793 -32 793 -32 793 -155 c 0,29,30
 793 -275 793 -275 708 -346.5 c 128,-1,31
 623 -418 623 -418 475 -418 c 0,0,1
349 1490 m 1,32,-1
 349 0 l 1,33,-1
 133 0 l 1,34,-1
 133 1490 l 1,35,-1
 349 1490 l 1,32,-1
EndSplineSet
EndChar

StartChar: l.ss02
Encoding: 57424 57424 753
AltUni2: 00006c.ffffffff.0
Width: 543
GlyphClass: 2
Flags: W
AnchorPoint: "Anchor-1" 242 1490 basechar 0
AnchorPoint: "Anchor-0" 304 0 basechar 0
LayerCount: 2
Fore
SplineSet
420 -4 m 0,0,1
 271 -4 271 -4 202 60 c 128,-1,2
 133 124 133 124 133 258 c 2,3,-1
 133 1490 l 1,4,-1
 349 1490 l 1,5,-1
 349 291 l 2,6,7
 349 226 349 226 369 201 c 128,-1,8
 389 176 389 176 445 176 c 0,9,10
 463 176 463 176 476.5 177 c 128,-1,11
 490 178 490 178 500 180 c 1,12,-1
 520 6 l 1,13,14
 500 2 500 2 474 -1 c 128,-1,15
 448 -4 448 -4 420 -4 c 0,0,1
EndSplineSet
EndChar

StartChar: uni026C.ss02
Encoding: 57428 57428 757
AltUni2: 00026c.ffffffff.0
Width: 874
GlyphClass: 2
Flags: W
AnchorPoint: "Anchor-1" 547 1490 basechar 0
AnchorPoint: "Anchor-0" 610 0 basechar 0
LayerCount: 2
Fore
SplineSet
373 587 m 2,0,1
 258 587 258 587 178.5 621.5 c 128,-1,2
 99 656 99 656 59 720 c 128,-1,3
 19 784 19 784 19 869 c 0,4,5
 19 950 19 950 52.5 1011.5 c 128,-1,6
 86 1073 86 1073 144.5 1108.5 c 128,-1,7
 203 1144 203 1144 279 1144 c 0,8,9
 365 1144 365 1144 415 1100.5 c 128,-1,10
 465 1057 465 1057 487 984 c 128,-1,11
 509 911 509 911 509 820 c 2,12,-1
 509 772 l 1,13,-1
 440 772 l 1,14,-1
 440 855 l 2,15,16
 440 901 440 901 411.5 936 c 128,-1,17
 383 971 383 971 325 971 c 0,18,19
 281 971 281 971 252.5 940.5 c 128,-1,20
 224 910 224 910 224 867 c 0,21,22
 224 826 224 826 256 791.5 c 128,-1,23
 288 757 288 757 337 757 c 2,24,-1
 819 759 l 1,25,-1
 819 587 l 1,26,-1
 373 587 l 2,0,1
725 -4 m 0,27,28
 576 -4 576 -4 508 60 c 128,-1,29
 440 124 440 124 440 258 c 2,30,-1
 440 1490 l 1,31,-1
 656 1490 l 1,32,-1
 656 291 l 2,33,34
 656 226 656 226 675.5 201 c 128,-1,35
 695 176 695 176 751 176 c 0,36,37
 769 176 769 176 782 177 c 128,-1,38
 795 178 795 178 806 180 c 1,39,-1
 826 6 l 1,40,41
 806 2 806 2 779.5 -1 c 128,-1,42
 753 -4 753 -4 725 -4 c 0,27,28
EndSplineSet
EndChar

StartChar: l.sc
Encoding: 60952 60952 767
Width: 954
Flags: W
LayerCount: 2
Fore
SplineSet
133 0 m 1,0,-1
 133 1087 l 1,1,-1
 349 1087 l 1,2,-1
 349 189 l 1,3,-1
 884 189 l 1,4,-1
 884 0 l 1,5,-1
 133 0 l 1,0,-1
EndSplineSet
EndChar

StartChar: m
Encoding: 109 109 768
Width: 1784
GlyphClass: 2
Flags: W
AnchorPoint: "Anchor-1" 892 1087 basechar 0
AnchorPoint: "Anchor-0" 892 0 basechar 0
LayerCount: 2
Fore
SplineSet
133 0 m 1,0,-1
 133 1087 l 1,1,-1
 341 1087 l 1,2,-1
 344 846 l 1,3,-1
 326 846 l 1,4,5
 353 934 353 934 403 991.5 c 128,-1,6
 453 1049 453 1049 519 1078 c 128,-1,7
 585 1107 585 1107 658 1107 c 0,8,9
 780 1107 780 1107 861.5 1034.5 c 128,-1,10
 943 962 943 962 967 842 c 1,11,-1
 936 842 l 1,12,13
 958 924 958 924 1010 983 c 128,-1,14
 1062 1042 1062 1042 1136 1074.5 c 128,-1,15
 1210 1107 1210 1107 1297 1107 c 0,16,17
 1396 1107 1396 1107 1476 1064 c 128,-1,18
 1556 1021 1556 1021 1603 936.5 c 128,-1,19
 1650 852 1650 852 1650 724 c 2,20,-1
 1650 0 l 1,21,-1
 1435 0 l 1,22,-1
 1435 705 l 2,23,24
 1435 817 1435 817 1372 867.5 c 128,-1,25
 1309 918 1309 918 1223 918 c 0,26,27
 1155 918 1155 918 1104 888.5 c 128,-1,28
 1053 859 1053 859 1026 807.5 c 128,-1,29
 999 756 999 756 999 688 c 2,30,-1
 999 0 l 1,31,-1
 786 0 l 1,32,-1
 786 719 l 2,33,34
 786 809 786 809 728 863.5 c 128,-1,35
 670 918 670 918 580 918 c 0,36,37
 519 918 519 918 466 889.5 c 128,-1,38
 413 861 413 861 381 805 c 128,-1,39
 349 749 349 749 349 666 c 2,40,-1
 349 0 l 1,41,-1
 133 0 l 1,0,-1
EndSplineSet
Substitution2: "'smcp' Lowercase to Small Capitals in Latin lookup 69 subtable" m.sc
Substitution2: "'c2sc' Capitals to Small Capitals in Latin lookup 68 subtable" m.sc
Substitution2: "'sups' Superscript in Latin lookup 39 subtable" m.sups
Substitution2: "'subs' Subscript in Latin lookup 38 subtable" m.subs
Substitution2: "'sinf' Scientific Inferiors in Latin lookup 18 subtable" m.subs
AlternateSubs2: "'aalt' Access All Alternates in Latin lookup 1 subtable" m.sups m.subs m.sc
EndChar

StartChar: uni0271
Encoding: 625 625 769
Width: 1784
GlyphClass: 2
Flags: W
AnchorPoint: "Anchor-1" 892 1087 basechar 0
AnchorPoint: "Anchor-0" 892 0 basechar 0
LayerCount: 2
Fore
SplineSet
1342 -423 m 0,0,1
 1304 -423 1304 -423 1273 -422 c 128,-1,2
 1242 -421 1242 -421 1220 -418 c 1,3,-1
 1220 -243 l 1,4,5
 1236 -244 1236 -244 1263 -244.5 c 128,-1,6
 1290 -245 1290 -245 1307 -245 c 0,7,8
 1377 -245 1377 -245 1406 -222 c 128,-1,9
 1435 -199 1435 -199 1435 -147 c 2,10,-1
 1435 0 l 1,11,-1
 1650 0 l 1,12,-1
 1650 -149 l 2,13,14
 1650 -284 1650 -284 1573 -353.5 c 128,-1,15
 1496 -423 1496 -423 1342 -423 c 0,0,1
133 0 m 1,16,-1
 133 1087 l 1,17,-1
 341 1087 l 1,18,-1
 344 846 l 1,19,-1
 326 846 l 1,20,21
 353 934 353 934 403 991.5 c 128,-1,22
 453 1049 453 1049 519 1078 c 128,-1,23
 585 1107 585 1107 658 1107 c 0,24,25
 780 1107 780 1107 861.5 1034.5 c 128,-1,26
 943 962 943 962 967 842 c 1,27,-1
 936 842 l 1,28,29
 958 924 958 924 1010 983 c 128,-1,30
 1062 1042 1062 1042 1136 1074.5 c 128,-1,31
 1210 1107 1210 1107 1298 1107 c 0,32,33
 1397 1107 1397 1107 1476.5 1064 c 128,-1,34
 1556 1021 1556 1021 1603 936.5 c 128,-1,35
 1650 852 1650 852 1650 724 c 2,36,-1
 1650 0 l 1,37,-1
 1435 0 l 1,38,-1
 1435 705 l 2,39,40
 1435 818 1435 818 1372 868 c 128,-1,41
 1309 918 1309 918 1224 918 c 0,42,43
 1155 918 1155 918 1104 889 c 128,-1,44
 1053 860 1053 860 1026 808 c 128,-1,45
 999 756 999 756 999 688 c 2,46,-1
 999 0 l 1,47,-1
 786 0 l 1,48,-1
 786 719 l 2,49,50
 786 809 786 809 728 863.5 c 128,-1,51
 670 918 670 918 581 918 c 0,52,53
 519 918 519 918 466 889.5 c 128,-1,54
 413 861 413 861 381 805 c 128,-1,55
 349 749 349 749 349 666 c 2,56,-1
 349 0 l 1,57,-1
 133 0 l 1,16,-1
EndSplineSet
EndChar

StartChar: mturn
Encoding: 623 623 770
Width: 1784
GlyphClass: 2
Flags: W
AnchorPoint: "Anchor-1" 890 1087 basechar 0
AnchorPoint: "Anchor-0" 889 0 basechar 0
LayerCount: 2
Fore
SplineSet
1650 1087 m 1,0,-1
 1650 0 l 1,1,-1
 1443 0 l 1,2,-1
 1440 241 l 1,3,-1
 1459 241 l 1,4,5
 1433 154 1433 154 1382.5 96 c 128,-1,6
 1332 38 1332 38 1265 9 c 128,-1,7
 1198 -20 1198 -20 1126 -20 c 0,8,9
 1004 -20 1004 -20 923 53 c 128,-1,10
 842 126 842 126 818 245 c 1,11,-1
 848 245 l 1,12,13
 827 164 827 164 775 104.5 c 128,-1,14
 723 45 723 45 649 12.5 c 128,-1,15
 575 -20 575 -20 487 -20 c 0,16,17
 388 -20 388 -20 308 23 c 128,-1,18
 228 66 228 66 180.5 151.5 c 128,-1,19
 133 237 133 237 133 363 c 2,20,-1
 133 1087 l 1,21,-1
 350 1087 l 1,22,-1
 350 384 l 2,23,24
 350 270 350 270 412.5 219.5 c 128,-1,25
 475 169 475 169 561 169 c 0,26,27
 631 169 631 169 681 199 c 128,-1,28
 731 229 731 229 758.5 280.5 c 128,-1,29
 786 332 786 332 786 399 c 2,30,-1
 786 1087 l 1,31,-1
 999 1087 l 1,32,-1
 999 369 l 2,33,34
 999 279 999 279 1057 224 c 128,-1,35
 1115 169 1115 169 1203 169 c 0,36,37
 1266 169 1266 169 1318.5 198 c 128,-1,38
 1371 227 1371 227 1403 283 c 128,-1,39
 1435 339 1435 339 1435 421 c 2,40,-1
 1435 1087 l 1,41,-1
 1650 1087 l 1,0,-1
EndSplineSet
EndChar

StartChar: mturndescend
Encoding: 624 624 771
Width: 1784
GlyphClass: 2
Flags: W
AnchorPoint: "Anchor-1" 890 1087 basechar 0
AnchorPoint: "Anchor-0" 889 0 basechar 0
LayerCount: 2
Fore
SplineSet
1437 -418 m 1,0,-1
 1437 0 l 1,1,-1
 1645 0 l 1,2,-1
 1645 -418 l 1,3,-1
 1437 -418 l 1,0,-1
1650 1087 m 1,4,-1
 1650 0 l 1,5,-1
 1443 0 l 1,6,-1
 1440 241 l 1,7,-1
 1459 241 l 1,8,9
 1433 154 1433 154 1382.5 96 c 128,-1,10
 1332 38 1332 38 1265 9 c 128,-1,11
 1198 -20 1198 -20 1126 -20 c 0,12,13
 1004 -20 1004 -20 923 53 c 128,-1,14
 842 126 842 126 818 245 c 1,15,-1
 848 245 l 1,16,17
 827 164 827 164 775 104.5 c 128,-1,18
 723 45 723 45 649 12.5 c 128,-1,19
 575 -20 575 -20 487 -20 c 0,20,21
 388 -20 388 -20 308 23 c 128,-1,22
 228 66 228 66 180.5 151.5 c 128,-1,23
 133 237 133 237 133 363 c 2,24,-1
 133 1087 l 1,25,-1
 350 1087 l 1,26,-1
 350 384 l 2,27,28
 350 270 350 270 412.5 219.5 c 128,-1,29
 475 169 475 169 561 169 c 0,30,31
 631 169 631 169 681 199 c 128,-1,32
 731 229 731 229 758.5 280.5 c 128,-1,33
 786 332 786 332 786 399 c 2,34,-1
 786 1087 l 1,35,-1
 999 1087 l 1,36,-1
 999 369 l 2,37,38
 999 279 999 279 1057 224 c 128,-1,39
 1115 169 1115 169 1203 169 c 0,40,41
 1266 169 1266 169 1318.5 198 c 128,-1,42
 1371 227 1371 227 1403 283 c 128,-1,43
 1435 339 1435 339 1435 421 c 2,44,-1
 1435 1087 l 1,45,-1
 1650 1087 l 1,4,-1
EndSplineSet
EndChar

StartChar: n
Encoding: 110 110 775
Width: 1189
GlyphClass: 2
Flags: W
AnchorPoint: "Anchor-1" 595 1087 basechar 0
AnchorPoint: "Anchor-0" 595 0 basechar 0
LayerCount: 2
Fore
SplineSet
349 635 m 2,0,-1
 349 0 l 1,1,-1
 133 0 l 1,2,-1
 133 1087 l 1,3,-1
 342 1087 l 1,4,-1
 343 820 l 1,5,-1
 308 820 l 1,6,7
 357 966 357 966 450 1035 c 128,-1,8
 543 1104 543 1104 674 1104 c 0,9,10
 786 1104 786 1104 872 1056.5 c 128,-1,11
 958 1009 958 1009 1007 916 c 128,-1,12
 1056 823 1056 823 1056 684 c 2,13,-1
 1056 0 l 1,14,-1
 840 0 l 1,15,-1
 840 658 l 2,16,17
 840 782 840 782 778 848 c 128,-1,18
 716 914 716 914 607 914 c 0,19,20
 534 914 534 914 475.5 883.5 c 128,-1,21
 417 853 417 853 383 791 c 128,-1,22
 349 729 349 729 349 635 c 2,0,-1
EndSplineSet
Substitution2: "'smcp' Lowercase to Small Capitals in Latin lookup 69 subtable" n.sc
Substitution2: "'c2sc' Capitals to Small Capitals in Latin lookup 68 subtable" n.sc
Substitution2: "'sups' Superscript in Latin lookup 39 subtable" n.sups
Substitution2: "'subs' Subscript in Latin lookup 38 subtable" n.subs
Substitution2: "'numr' Numerators in Latin lookup 19 subtable" n.numr
Substitution2: "'sinf' Scientific Inferiors in Latin lookup 18 subtable" n.subs
AlternateSubs2: "'aalt' Access All Alternates in Latin lookup 1 subtable" n.sc n.numr n.sups n.subs
EndChar

StartChar: nrthook
Encoding: 627 627 777
Width: 1189
GlyphClass: 2
Flags: W
AnchorPoint: "Anchor-1" 595 1087 basechar 0
AnchorPoint: "Anchor-0" 595 0 basechar 0
LayerCount: 2
Fore
SplineSet
1151 -423 m 0,0,1
 997 -423 997 -423 919 -353.5 c 128,-1,2
 841 -284 841 -284 841 -149 c 2,3,-1
 841 0 l 1,4,-1
 1057 0 l 1,5,-1
 1057 -147 l 2,6,7
 1057 -199 1057 -199 1085.5 -222 c 128,-1,8
 1114 -245 1114 -245 1184 -245 c 0,9,10
 1202 -245 1202 -245 1228 -244.5 c 128,-1,11
 1254 -244 1254 -244 1271 -243 c 1,12,-1
 1271 -418 l 1,13,14
 1250 -421 1250 -421 1219.5 -422 c 128,-1,15
 1189 -423 1189 -423 1151 -423 c 0,0,1
349 635 m 2,16,-1
 349 0 l 1,17,-1
 133 0 l 1,18,-1
 133 1087 l 1,19,-1
 342 1087 l 1,20,-1
 343 820 l 1,21,-1
 308 820 l 1,22,23
 357 966 357 966 450 1035 c 128,-1,24
 543 1104 543 1104 674 1104 c 0,25,26
 786 1104 786 1104 872 1056.5 c 128,-1,27
 958 1009 958 1009 1007 916 c 128,-1,28
 1056 823 1056 823 1056 684 c 2,29,-1
 1056 0 l 1,30,-1
 840 0 l 1,31,-1
 840 658 l 2,32,33
 840 782 840 782 778 848 c 128,-1,34
 716 914 716 914 607 914 c 0,35,36
 534 914 534 914 475.5 883.5 c 128,-1,37
 417 853 417 853 383 791 c 128,-1,38
 349 729 349 729 349 635 c 2,16,-1
EndSplineSet
EndChar

StartChar: eng
Encoding: 331 331 778
Width: 1189
GlyphClass: 2
Flags: W
AnchorPoint: "Anchor-1" 595 1087 basechar 0
AnchorPoint: "Anchor-0" 595 0 basechar 0
LayerCount: 2
Fore
SplineSet
624 -418 m 1,0,-1
 624 -233 l 1,1,2
 644 -235 644 -235 672.5 -236 c 128,-1,3
 701 -237 701 -237 716 -237 c 0,4,5
 786 -237 786 -237 813 -213.5 c 128,-1,6
 840 -190 840 -190 840 -139 c 2,7,-1
 840 0 l 1,8,-1
 1057 0 l 1,9,-1
 1057 -149 l 2,10,11
 1057 -284 1057 -284 978 -353.5 c 128,-1,12
 899 -423 899 -423 746 -423 c 0,13,14
 708 -423 708 -423 677 -422 c 128,-1,15
 646 -421 646 -421 624 -418 c 1,0,-1
349 635 m 2,16,-1
 349 0 l 1,17,-1
 133 0 l 1,18,-1
 133 1087 l 1,19,-1
 342 1087 l 1,20,-1
 343 820 l 1,21,-1
 308 820 l 1,22,23
 357 966 357 966 450 1035 c 128,-1,24
 543 1104 543 1104 674 1104 c 0,25,26
 786 1104 786 1104 872 1056.5 c 128,-1,27
 958 1009 958 1009 1007 916 c 128,-1,28
 1056 823 1056 823 1056 684 c 2,29,-1
 1056 0 l 1,30,-1
 840 0 l 1,31,-1
 840 658 l 2,32,33
 840 782 840 782 778 848 c 128,-1,34
 716 914 716 914 607 914 c 0,35,36
 534 914 534 914 475.5 883.5 c 128,-1,37
 417 853 417 853 383 791 c 128,-1,38
 349 729 349 729 349 635 c 2,16,-1
EndSplineSet
EndChar

StartChar: uni0235
Encoding: 565 565 779
Width: 1509
GlyphClass: 2
Flags: W
AnchorPoint: "Anchor-1" 595 1087 basechar 0
AnchorPoint: "Anchor-0" 595 0 basechar 0
LayerCount: 2
Fore
SplineSet
1182 -418 m 0,0,1
 1060 -418 1060 -418 985 -371 c 128,-1,2
 910 -324 910 -324 875.5 -248 c 128,-1,3
 841 -172 841 -172 841 -86 c 2,4,-1
 841 234 l 1,5,-1
 1057 234 l 1,6,-1
 1057 -120 l 2,7,8
 1057 -186 1057 -186 1094.5 -221 c 128,-1,9
 1132 -256 1132 -256 1184 -256 c 0,10,11
 1232 -256 1232 -256 1262.5 -226.5 c 128,-1,12
 1293 -197 1293 -197 1293 -152 c 0,13,14
 1293 -111 1293 -111 1267.5 -82 c 128,-1,15
 1242 -53 1242 -53 1195 -48 c 0,16,17
 1162 -43 1162 -43 1131 -50.5 c 128,-1,18
 1100 -58 1100 -58 1069 -76.5 c 128,-1,19
 1038 -95 1038 -95 1003 -125 c 2,20,-1
 720 -391 l 1,21,-1
 599 -255 l 1,22,-1
 849 -22 l 2,23,24
 919 45 919 45 1009 82.5 c 128,-1,25
 1099 120 1099 120 1188 120 c 0,26,27
 1326 120 1326 120 1413 44 c 128,-1,28
 1500 -32 1500 -32 1500 -155 c 0,29,30
 1500 -275 1500 -275 1415.5 -346.5 c 128,-1,31
 1331 -418 1331 -418 1182 -418 c 0,0,1
349 635 m 2,32,-1
 349 0 l 1,33,-1
 133 0 l 1,34,-1
 133 1087 l 1,35,-1
 342 1087 l 1,36,-1
 343 820 l 1,37,-1
 308 820 l 1,38,39
 357 966 357 966 450 1035 c 128,-1,40
 543 1104 543 1104 674 1104 c 0,41,42
 786 1104 786 1104 872 1056.5 c 128,-1,43
 958 1009 958 1009 1007 916 c 128,-1,44
 1056 823 1056 823 1056 684 c 2,45,-1
 1056 0 l 1,46,-1
 840 0 l 1,47,-1
 840 658 l 2,48,49
 840 782 840 782 778 848 c 128,-1,50
 716 914 716 914 607 914 c 0,51,52
 534 914 534 914 475.5 883.5 c 128,-1,53
 417 853 417 853 383 791 c 128,-1,54
 349 729 349 729 349 635 c 2,32,-1
EndSplineSet
EndChar

StartChar: nlfthook
Encoding: 626 626 780
Width: 1189
GlyphClass: 2
Flags: W
AnchorPoint: "Anchor-1" 595 1087 basechar 0
AnchorPoint: "Anchor-0" 595 0 basechar 0
LayerCount: 2
Fore
SplineSet
42 -423 m 0,0,1
 3 -423 3 -423 -28.5 -422 c 128,-1,2
 -60 -421 -60 -421 -82 -418 c 1,3,-1
 -82 -243 l 1,4,5
 -64 -244 -64 -244 -38 -244.5 c 128,-1,6
 -12 -245 -12 -245 7 -245 c 0,7,8
 76 -245 76 -245 104.5 -222 c 128,-1,9
 133 -199 133 -199 133 -147 c 2,10,-1
 133 0 l 1,11,-1
 350 0 l 1,12,-1
 350 -149 l 2,13,14
 350 -284 350 -284 272 -353.5 c 128,-1,15
 194 -423 194 -423 42 -423 c 0,0,1
349 635 m 2,16,-1
 349 0 l 1,17,-1
 133 0 l 1,18,-1
 133 1087 l 1,19,-1
 342 1087 l 1,20,-1
 343 820 l 1,21,-1
 308 820 l 1,22,23
 357 966 357 966 450 1035 c 128,-1,24
 543 1104 543 1104 674 1104 c 0,25,26
 786 1104 786 1104 872 1056.5 c 128,-1,27
 958 1009 958 1009 1007 916 c 128,-1,28
 1056 823 1056 823 1056 684 c 2,29,-1
 1056 0 l 1,30,-1
 840 0 l 1,31,-1
 840 658 l 2,32,33
 840 782 840 782 778 848 c 128,-1,34
 716 914 716 914 607 914 c 0,35,36
 534 914 534 914 475.5 883.5 c 128,-1,37
 417 853 417 853 383 791 c 128,-1,38
 349 729 349 729 349 635 c 2,16,-1
EndSplineSet
EndChar

StartChar: n.sc
Encoding: 60953 60953 791
Width: 1255
GlyphClass: 2
Flags: W
AnchorPoint: "Anchor-1" 628 1087 basechar 0
AnchorPoint: "Anchor-0" 628 0 basechar 0
LayerCount: 2
Fore
SplineSet
133 0 m 1,0,-1
 133 1087 l 1,1,-1
 388 1087 l 1,2,-1
 759 514 l 2,3,4
 818 421 818 421 864 340 c 128,-1,5
 910 259 910 259 952 179 c 1,6,-1
 914 179 l 1,7,8
 913 233 913 233 912 287 c 128,-1,9
 911 341 911 341 910.5 396.5 c 128,-1,10
 910 452 910 452 910 514 c 2,11,-1
 910 1087 l 1,12,-1
 1121 1087 l 1,13,-1
 1121 0 l 1,14,-1
 871 0 l 1,15,-1
 500 575 l 2,16,17
 438 669 438 669 391.5 750.5 c 128,-1,18
 345 832 345 832 303 911 c 1,19,-1
 342 911 l 1,20,21
 344 830 344 830 345 748.5 c 128,-1,22
 346 667 346 667 346 575 c 2,23,-1
 346 0 l 1,24,-1
 133 0 l 1,0,-1
EndSplineSet
EndChar

StartChar: o
Encoding: 111 111 792
Width: 1191
GlyphClass: 2
Flags: W
AnchorPoint: "Anchor-4" 1110 540 basechar 0
AnchorPoint: "Anchor-1" 596 1087 basechar 0
AnchorPoint: "Anchor-0" 596 0 basechar 0
LayerCount: 2
Fore
SplineSet
596 -24 m 0,0,1
 442 -24 442 -24 326.5 47.5 c 128,-1,2
 211 119 211 119 146.5 246 c 128,-1,3
 82 373 82 373 82 540 c 0,4,5
 82 709 82 709 146.5 836.5 c 128,-1,6
 211 964 211 964 326.5 1035 c 128,-1,7
 442 1106 442 1106 596 1106 c 0,8,9
 751 1106 751 1106 866.5 1035 c 128,-1,10
 982 964 982 964 1046 836.5 c 128,-1,11
 1110 709 1110 709 1110 540 c 0,12,13
 1110 373 1110 373 1046 246 c 128,-1,14
 982 119 982 119 866.5 47.5 c 128,-1,15
 751 -24 751 -24 596 -24 c 0,0,1
596 161 m 256,16,17
 692 161 692 161 758 210.5 c 128,-1,18
 824 260 824 260 857.5 345.5 c 128,-1,19
 891 431 891 431 891 540 c 0,20,21
 891 650 891 650 857.5 736 c 128,-1,22
 824 822 824 822 758 872 c 128,-1,23
 692 922 692 922 596 922 c 256,24,25
 500 922 500 922 434.5 872.5 c 128,-1,26
 369 823 369 823 335 737 c 128,-1,27
 301 651 301 651 301 540 c 0,28,29
 301 430 301 430 335 345 c 128,-1,30
 369 260 369 260 434.5 210.5 c 128,-1,31
 500 161 500 161 596 161 c 256,16,17
EndSplineSet
Substitution2: "Single Substitution lookup 44 subtable" ordmasculine
Substitution2: "'sups' Superscript in Latin lookup 39 subtable" o.sups
Substitution2: "'subs' Subscript in Latin lookup 38 subtable" o.subs
Substitution2: "'sinf' Scientific Inferiors in Latin lookup 18 subtable" o.subs
AlternateSubs2: "'aalt' Access All Alternates in Latin lookup 1 subtable" ordmasculine o.sups o.subs
EndChar

StartChar: ohorn
Encoding: 417 417 796
Width: 1189
GlyphClass: 2
Flags: W
AnchorPoint: "Anchor-4" 1110 540 basechar 0
AnchorPoint: "Anchor-1" 596 1087 basechar 0
AnchorPoint: "Anchor-0" 596 0 basechar 0
LayerCount: 2
Fore
SplineSet
595 972 m 1,0,-1
 595 1106 l 1,1,2
 639 1106 639 1106 673.5 1104 c 128,-1,3
 708 1102 708 1102 741.5 1099 c 128,-1,4
 775 1096 775 1096 816 1093 c 128,-1,5
 857 1090 857 1090 913 1090 c 0,6,7
 951 1090 951 1090 951 1126 c 2,8,-1
 951 1331 l 1,9,-1
 1140 1331 l 1,10,-1
 1140 1140 l 2,11,12
 1140 1057 1140 1057 1091.5 1014.5 c 128,-1,13
 1043 972 1043 972 948 972 c 0,14,15
 862 972 862 972 771.5 972 c 128,-1,16
 681 972 681 972 595 972 c 1,0,-1
596 -24 m 0,17,18
 442 -24 442 -24 326.5 47.5 c 128,-1,19
 211 119 211 119 146.5 246 c 128,-1,20
 82 373 82 373 82 540 c 0,21,22
 82 709 82 709 146.5 836.5 c 128,-1,23
 211 964 211 964 326.5 1035 c 128,-1,24
 442 1106 442 1106 596 1106 c 0,25,26
 751 1106 751 1106 866.5 1035 c 128,-1,27
 982 964 982 964 1046 836.5 c 128,-1,28
 1110 709 1110 709 1110 540 c 0,29,30
 1110 373 1110 373 1046 246 c 128,-1,31
 982 119 982 119 866.5 47.5 c 128,-1,32
 751 -24 751 -24 596 -24 c 0,17,18
596 161 m 256,33,34
 692 161 692 161 758 210.5 c 128,-1,35
 824 260 824 260 857.5 345.5 c 128,-1,36
 891 431 891 431 891 540 c 0,37,38
 891 650 891 650 857.5 736 c 128,-1,39
 824 822 824 822 758 872 c 128,-1,40
 692 922 692 922 596 922 c 256,41,42
 500 922 500 922 434.5 872.5 c 128,-1,43
 369 823 369 823 335 737 c 128,-1,44
 301 651 301 651 301 540 c 0,45,46
 301 430 301 430 335 345 c 128,-1,47
 369 260 369 260 434.5 210.5 c 128,-1,48
 500 161 500 161 596 161 c 256,33,34
EndSplineSet
EndChar

StartChar: uni1EE1
Encoding: 7905 7905 826
Width: 1189
GlyphClass: 2
Flags: W
AnchorPoint: "Anchor-4" 1110 540 basechar 0
AnchorPoint: "Anchor-1" 596 1498 basechar 0
AnchorPoint: "Anchor-0" 596 0 basechar 0
LayerCount: 2
Fore
SplineSet
596 -24 m 0,0,1
 442 -24 442 -24 326.5 47.5 c 128,-1,2
 211 119 211 119 146.5 246 c 128,-1,3
 82 373 82 373 82 540 c 0,4,5
 82 709 82 709 146.5 836.5 c 128,-1,6
 211 964 211 964 326.5 1035 c 128,-1,7
 442 1106 442 1106 596 1106 c 0,8,9
 751 1106 751 1106 866.5 1035 c 128,-1,10
 982 964 982 964 1046 836.5 c 128,-1,11
 1110 709 1110 709 1110 540 c 0,12,13
 1110 373 1110 373 1046 246 c 128,-1,14
 982 119 982 119 866.5 47.5 c 128,-1,15
 751 -24 751 -24 596 -24 c 0,0,1
596 161 m 256,16,17
 692 161 692 161 758 210.5 c 128,-1,18
 824 260 824 260 857.5 345.5 c 128,-1,19
 891 431 891 431 891 540 c 0,20,21
 891 650 891 650 857.5 736 c 128,-1,22
 824 822 824 822 758 872 c 128,-1,23
 692 922 692 922 596 922 c 256,24,25
 500 922 500 922 434.5 872.5 c 128,-1,26
 369 823 369 823 335 737 c 128,-1,27
 301 651 301 651 301 540 c 0,28,29
 301 430 301 430 335 345 c 128,-1,30
 369 260 369 260 434.5 210.5 c 128,-1,31
 500 161 500 161 596 161 c 256,16,17
595 972 m 1,32,-1
 595 1106 l 1,33,34
 639 1106 639 1106 673.5 1104 c 128,-1,35
 708 1102 708 1102 741.5 1099 c 128,-1,36
 775 1096 775 1096 816 1093 c 128,-1,37
 857 1090 857 1090 913 1090 c 0,38,39
 951 1090 951 1090 951 1126 c 2,40,-1
 951 1331 l 1,41,-1
 1140 1331 l 1,42,-1
 1140 1140 l 2,43,44
 1140 1057 1140 1057 1091.5 1014.5 c 128,-1,45
 1043 972 1043 972 948 972 c 0,46,47
 862 972 862 972 771.5 972 c 128,-1,48
 681 972 681 972 595 972 c 1,32,-1
722 1282 m 0,49,50
 685 1282 685 1282 651 1294.5 c 128,-1,51
 617 1307 617 1307 587.5 1323.5 c 128,-1,52
 558 1340 558 1340 533 1352.5 c 128,-1,53
 508 1365 508 1365 490 1365 c 0,54,55
 464 1365 464 1365 451 1340.5 c 128,-1,56
 438 1316 438 1316 436 1286 c 1,57,-1
 310 1286 l 1,58,59
 313 1380 313 1380 353 1438.5 c 128,-1,60
 393 1497 393 1497 472 1497 c 0,61,62
 511 1497 511 1497 543 1484 c 128,-1,63
 575 1471 575 1471 602.5 1454.5 c 128,-1,64
 630 1438 630 1438 654.5 1425 c 128,-1,65
 679 1412 679 1412 703 1412 c 0,66,67
 729 1412 729 1412 742 1431 c 128,-1,68
 755 1450 755 1450 759 1493 c 1,69,-1
 883 1493 l 1,70,71
 881 1396 881 1396 838 1339 c 128,-1,72
 795 1282 795 1282 722 1282 c 0,49,50
EndSplineSet
Ligature2: "'ccmp' Glyph Composition/Decomposition in Latin lookup 6 subtable" ohorn tildecomb
EndChar

StartChar: obar
Encoding: 629 629 839
Width: 1191
GlyphClass: 2
Flags: W
AnchorPoint: "Anchor-4" 1110 540 basechar 0
AnchorPoint: "Anchor-1" 596 1087 basechar 0
AnchorPoint: "Anchor-0" 596 0 basechar 0
LayerCount: 2
Fore
SplineSet
977 618 m 1,0,-1
 977 469 l 1,1,-1
 215 469 l 1,2,-1
 215 618 l 1,3,-1
 977 618 l 1,0,-1
596 -24 m 0,4,5
 442 -24 442 -24 326.5 47.5 c 128,-1,6
 211 119 211 119 146.5 246 c 128,-1,7
 82 373 82 373 82 540 c 0,8,9
 82 709 82 709 146.5 836.5 c 128,-1,10
 211 964 211 964 326.5 1035 c 128,-1,11
 442 1106 442 1106 596 1106 c 0,12,13
 751 1106 751 1106 866.5 1035 c 128,-1,14
 982 964 982 964 1046 836.5 c 128,-1,15
 1110 709 1110 709 1110 540 c 0,16,17
 1110 373 1110 373 1046 246 c 128,-1,18
 982 119 982 119 866.5 47.5 c 128,-1,19
 751 -24 751 -24 596 -24 c 0,4,5
596 161 m 256,20,21
 692 161 692 161 758 210.5 c 128,-1,22
 824 260 824 260 857.5 345.5 c 128,-1,23
 891 431 891 431 891 540 c 0,24,25
 891 650 891 650 857.5 736 c 128,-1,26
 824 822 824 822 758 872 c 128,-1,27
 692 922 692 922 596 922 c 256,28,29
 500 922 500 922 434.5 872.5 c 128,-1,30
 369 823 369 823 335 737 c 128,-1,31
 301 651 301 651 301 540 c 0,32,33
 301 430 301 430 335 345 c 128,-1,34
 369 260 369 260 434.5 210.5 c 128,-1,35
 500 161 500 161 596 161 c 256,20,21
EndSplineSet
EndChar

StartChar: oe.sc
Encoding: 60954 60954 843
Width: 1624
Flags: W
LayerCount: 2
Fore
SplineSet
583 0 m 2,0,1
 429 0 429 0 316.5 70.5 c 128,-1,2
 204 141 204 141 143 263 c 128,-1,3
 82 385 82 385 82 537 c 2,4,-1
 82 552 l 2,5,6
 82 705 82 705 142.5 826 c 128,-1,7
 203 947 203 947 314.5 1017 c 128,-1,8
 426 1087 426 1087 579 1087 c 2,9,-1
 928 1087 l 1,10,-1
 928 907 l 1,11,-1
 580 907 l 2,12,13
 493 907 493 907 429.5 859.5 c 128,-1,14
 366 812 366 812 332 732 c 128,-1,15
 298 652 298 652 298 551 c 2,16,-1
 298 537 l 2,17,18
 298 437 298 437 333 356 c 128,-1,19
 368 275 368 275 431.5 228 c 128,-1,20
 495 181 495 181 584 181 c 2,21,-1
 928 181 l 1,22,-1
 928 0 l 1,23,-1
 583 0 l 2,0,1
937 0 m 1,24,-1
 937 181 l 1,25,-1
 1573 181 l 1,26,-1
 1573 0 l 1,27,-1
 937 0 l 1,24,-1
797 0 m 1,28,-1
 797 1087 l 1,29,-1
 1005 1087 l 1,30,-1
 1005 0 l 1,31,-1
 797 0 l 1,28,-1
937 465 m 1,32,-1
 937 639 l 1,33,-1
 1485 639 l 1,34,-1
 1485 465 l 1,35,-1
 937 465 l 1,32,-1
937 907 m 1,36,-1
 937 1087 l 1,37,-1
 1573 1087 l 1,38,-1
 1573 907 l 1,39,-1
 937 907 l 1,36,-1
EndSplineSet
EndChar

StartChar: p
Encoding: 112 112 845
Width: 1223
GlyphClass: 2
Flags: W
AnchorPoint: "Anchor-1" 660 1087 basechar 0
AnchorPoint: "Anchor-0" 241 -416 basechar 0
LayerCount: 2
Fore
SplineSet
133 -418 m 1,0,-1
 133 1087 l 1,1,-1
 344 1087 l 1,2,-1
 344 921 l 1,3,-1
 355 921 l 1,4,5
 382 967 382 967 424.5 1009 c 128,-1,6
 467 1051 467 1051 530.5 1077.5 c 128,-1,7
 594 1104 594 1104 679 1104 c 0,8,9
 815 1104 815 1104 919.5 1035.5 c 128,-1,10
 1024 967 1024 967 1082.5 841 c 128,-1,11
 1141 715 1141 715 1141 542 c 0,12,13
 1141 371 1141 371 1082.5 244.5 c 128,-1,14
 1024 118 1024 118 920.5 48.5 c 128,-1,15
 817 -21 817 -21 679 -21 c 0,16,17
 595 -21 595 -21 532.5 6 c 128,-1,18
 470 33 470 33 427.5 76.5 c 128,-1,19
 385 120 385 120 356 168 c 1,20,-1
 349 168 l 1,21,-1
 349 -418 l 1,22,-1
 133 -418 l 1,0,-1
633 163 m 256,23,24
 724 163 724 163 788.5 210.5 c 128,-1,25
 853 258 853 258 888 343 c 128,-1,26
 923 428 923 428 923 543 c 256,27,28
 923 658 923 658 888.5 743 c 128,-1,29
 854 828 854 828 789 874.5 c 128,-1,30
 724 921 724 921 633 921 c 0,31,32
 541 921 541 921 475.5 874 c 128,-1,33
 410 827 410 827 375 742 c 128,-1,34
 340 657 340 657 340 543 c 0,35,36
 340 430 340 430 375 344.5 c 128,-1,37
 410 259 410 259 476 211 c 128,-1,38
 542 163 542 163 633 163 c 256,23,24
EndSplineSet
Substitution2: "'sups' Superscript in Latin lookup 39 subtable" p.sups
Substitution2: "'subs' Subscript in Latin lookup 38 subtable" p.subs
Substitution2: "'sinf' Scientific Inferiors in Latin lookup 18 subtable" p.subs
AlternateSubs2: "'aalt' Access All Alternates in Latin lookup 1 subtable" p.sups p.subs
EndChar

StartChar: uni048F
Encoding: 1167 1167 846
Width: 1220
GlyphClass: 2
Flags: W
AnchorPoint: "Anchor-1" 662 1087 basechar 0
AnchorPoint: "Anchor-0" 243 -416 basechar 0
LayerCount: 2
Fore
SplineSet
769 412 m 1,0,-1
 1125 6 l 1,1,-1
 1011 -97 l 1,2,-1
 656 309 l 1,3,-1
 769 412 l 1,0,-1
136 -418 m 1,4,-1
 136 1087 l 1,5,-1
 346 1087 l 1,6,-1
 346 921 l 1,7,-1
 357 921 l 1,8,9
 384 967 384 967 426.5 1009 c 128,-1,10
 469 1051 469 1051 532.5 1077.5 c 128,-1,11
 596 1104 596 1104 681 1104 c 0,12,13
 817 1104 817 1104 921.5 1035.5 c 128,-1,14
 1026 967 1026 967 1084.5 841 c 128,-1,15
 1143 715 1143 715 1143 542 c 0,16,17
 1143 371 1143 371 1085 244.5 c 128,-1,18
 1027 118 1027 118 923 48.5 c 128,-1,19
 819 -21 819 -21 682 -21 c 0,20,21
 597 -21 597 -21 534.5 6 c 128,-1,22
 472 33 472 33 429.5 76.5 c 128,-1,23
 387 120 387 120 359 168 c 1,24,-1
 351 168 l 1,25,-1
 351 -418 l 1,26,-1
 136 -418 l 1,4,-1
635 163 m 0,27,28
 727 163 727 163 791 210.5 c 128,-1,29
 855 258 855 258 890 343 c 128,-1,30
 925 428 925 428 925 543 c 256,31,32
 925 658 925 658 890.5 743 c 128,-1,33
 856 828 856 828 791 874.5 c 128,-1,34
 726 921 726 921 635 921 c 256,35,36
 544 921 544 921 478 874 c 128,-1,37
 412 827 412 827 377 742 c 128,-1,38
 342 657 342 657 342 543 c 0,39,40
 342 430 342 430 377 344.5 c 128,-1,41
 412 259 412 259 478 211 c 128,-1,42
 544 163 544 163 635 163 c 0,27,28
EndSplineSet
EndChar

StartChar: uni01A5
Encoding: 421 421 847
Width: 1223
GlyphClass: 2
Flags: W
AnchorPoint: "Anchor-1" 660 1087 basechar 0
AnchorPoint: "Anchor-0" 241 -416 basechar 0
LayerCount: 2
Fore
SplineSet
133 865 m 1,0,-1
 133 1224 l 2,1,2
 133 1359 133 1359 214 1428 c 128,-1,3
 295 1497 295 1497 448 1497 c 0,4,5
 487 1497 487 1497 517 1495.5 c 128,-1,6
 547 1494 547 1494 569 1492 c 1,7,-1
 569 1317 l 1,8,9
 552 1318 552 1318 526 1318.5 c 128,-1,10
 500 1319 500 1319 481 1319 c 0,11,12
 411 1319 411 1319 380 1296 c 128,-1,13
 349 1273 349 1273 349 1222 c 2,14,-1
 349 865 l 1,15,-1
 133 865 l 1,0,-1
133 -418 m 1,16,-1
 133 1087 l 1,17,-1
 344 1087 l 1,18,-1
 344 921 l 1,19,-1
 355 921 l 1,20,21
 382 967 382 967 424.5 1009 c 128,-1,22
 467 1051 467 1051 530.5 1077.5 c 128,-1,23
 594 1104 594 1104 679 1104 c 0,24,25
 815 1104 815 1104 919.5 1035.5 c 128,-1,26
 1024 967 1024 967 1082.5 841 c 128,-1,27
 1141 715 1141 715 1141 542 c 0,28,29
 1141 371 1141 371 1082.5 244.5 c 128,-1,30
 1024 118 1024 118 920.5 48.5 c 128,-1,31
 817 -21 817 -21 679 -21 c 0,32,33
 595 -21 595 -21 532.5 6 c 128,-1,34
 470 33 470 33 427.5 76.5 c 128,-1,35
 385 120 385 120 356 168 c 1,36,-1
 349 168 l 1,37,-1
 349 -418 l 1,38,-1
 133 -418 l 1,16,-1
633 163 m 256,39,40
 724 163 724 163 788.5 210.5 c 128,-1,41
 853 258 853 258 888 343 c 128,-1,42
 923 428 923 428 923 543 c 256,43,44
 923 658 923 658 888.5 743 c 128,-1,45
 854 828 854 828 789 874.5 c 128,-1,46
 724 921 724 921 633 921 c 0,47,48
 541 921 541 921 475.5 874 c 128,-1,49
 410 827 410 827 375 742 c 128,-1,50
 340 657 340 657 340 543 c 0,51,52
 340 430 340 430 375 344.5 c 128,-1,53
 410 259 410 259 476 211 c 128,-1,54
 542 163 542 163 633 163 c 256,39,40
EndSplineSet
EndChar

StartChar: q
Encoding: 113 113 851
Width: 1223
GlyphClass: 2
Flags: W
AnchorPoint: "Anchor-1" 611 1087 basechar 0
AnchorPoint: "Anchor-0" 983 -416 basechar 0
LayerCount: 2
Fore
SplineSet
1090 -418 m 1,0,-1
 874 -418 l 1,1,-1
 874 168 l 1,2,-1
 867 168 l 1,3,4
 840 120 840 120 797 76.5 c 128,-1,5
 754 33 754 33 692 6 c 128,-1,6
 630 -21 630 -21 545 -21 c 0,7,8
 408 -21 408 -21 303.5 48.5 c 128,-1,9
 199 118 199 118 140.5 244.5 c 128,-1,10
 82 371 82 371 82 542 c 0,11,12
 82 715 82 715 141.5 841 c 128,-1,13
 201 967 201 967 305 1035.5 c 128,-1,14
 409 1104 409 1104 544 1104 c 0,15,16
 631 1104 631 1104 694 1077.5 c 128,-1,17
 757 1051 757 1051 800 1009 c 128,-1,18
 843 967 843 967 869 921 c 1,19,-1
 879 921 l 1,20,-1
 879 1087 l 1,21,-1
 1090 1087 l 1,22,-1
 1090 -418 l 1,0,-1
590 163 m 0,23,24
 682 163 682 163 747.5 211 c 128,-1,25
 813 259 813 259 848 344.5 c 128,-1,26
 883 430 883 430 883 543 c 0,27,28
 883 657 883 657 848.5 742 c 128,-1,29
 814 827 814 827 748.5 874 c 128,-1,30
 683 921 683 921 590 921 c 0,31,32
 500 921 500 921 435 874.5 c 128,-1,33
 370 828 370 828 336 743 c 128,-1,34
 302 658 302 658 302 543 c 256,35,36
 302 428 302 428 336 343 c 128,-1,37
 370 258 370 258 435.5 210.5 c 128,-1,38
 501 163 501 163 590 163 c 0,23,24
EndSplineSet
Substitution2: "'sups' Superscript in Latin lookup 39 subtable" q.sups
Substitution2: "'subs' Subscript in Latin lookup 38 subtable" q.subs
Substitution2: "'sinf' Scientific Inferiors in Latin lookup 18 subtable" q.subs
AlternateSubs2: "'aalt' Access All Alternates in Latin lookup 1 subtable" q.sups q.subs
EndChar

StartChar: uni02A0
Encoding: 672 672 852
Width: 1223
GlyphClass: 2
Flags: W
AnchorPoint: "Anchor-1" 611 1087 basechar 0
AnchorPoint: "Anchor-0" 983 -416 basechar 0
LayerCount: 2
Fore
SplineSet
871 865 m 1,0,-1
 871 1224 l 2,1,2
 871 1359 871 1359 952 1428 c 128,-1,3
 1033 1497 1033 1497 1185 1497 c 0,4,5
 1224 1497 1224 1497 1254 1495.5 c 128,-1,6
 1284 1494 1284 1494 1306 1492 c 1,7,-1
 1306 1317 l 1,8,9
 1290 1318 1290 1318 1263.5 1318.5 c 128,-1,10
 1237 1319 1237 1319 1219 1319 c 0,11,12
 1149 1319 1149 1319 1117.5 1296 c 128,-1,13
 1086 1273 1086 1273 1086 1222 c 2,14,-1
 1086 865 l 1,15,-1
 871 865 l 1,0,-1
1090 -418 m 1,16,-1
 874 -418 l 1,17,-1
 874 168 l 1,18,-1
 867 168 l 1,19,20
 840 120 840 120 797 76.5 c 128,-1,21
 754 33 754 33 692 6 c 128,-1,22
 630 -21 630 -21 545 -21 c 0,23,24
 408 -21 408 -21 303.5 48.5 c 128,-1,25
 199 118 199 118 140.5 244.5 c 128,-1,26
 82 371 82 371 82 542 c 0,27,28
 82 715 82 715 141.5 841 c 128,-1,29
 201 967 201 967 305 1035.5 c 128,-1,30
 409 1104 409 1104 544 1104 c 0,31,32
 631 1104 631 1104 694 1077.5 c 128,-1,33
 757 1051 757 1051 800 1009 c 128,-1,34
 843 967 843 967 869 921 c 1,35,-1
 879 921 l 1,36,-1
 879 1087 l 1,37,-1
 1090 1087 l 1,38,-1
 1090 -418 l 1,16,-1
590 163 m 0,39,40
 682 163 682 163 747.5 211 c 128,-1,41
 813 259 813 259 848 344.5 c 128,-1,42
 883 430 883 430 883 543 c 0,43,44
 883 657 883 657 848.5 742 c 128,-1,45
 814 827 814 827 748.5 874 c 128,-1,46
 683 921 683 921 590 921 c 0,47,48
 500 921 500 921 435 874.5 c 128,-1,49
 370 828 370 828 336 743 c 128,-1,50
 302 658 302 658 302 543 c 256,51,52
 302 428 302 428 336 343 c 128,-1,53
 370 258 370 258 435.5 210.5 c 128,-1,54
 501 163 501 163 590 163 c 0,39,40
EndSplineSet
EndChar

StartChar: qrthook
Encoding: 587 587 853
Width: 1223
GlyphClass: 2
Flags: W
AnchorPoint: "Anchor-4" 1090 0 basechar 0
AnchorPoint: "Anchor-1" 598 1087 basechar 0
AnchorPoint: "Anchor-0" 598 0 basechar 0
LayerCount: 2
Fore
SplineSet
1184 -423 m 0,0,1
 1031 -423 1031 -423 954 -353.5 c 128,-1,2
 877 -284 877 -284 877 -149 c 2,3,-1
 877 189 l 1,4,-1
 1090 189 l 1,5,-1
 1090 -147 l 2,6,7
 1090 -199 1090 -199 1119 -222 c 128,-1,8
 1148 -245 1148 -245 1218 -245 c 0,9,10
 1236 -245 1236 -245 1262 -244.5 c 128,-1,11
 1288 -244 1288 -244 1305 -243 c 1,12,-1
 1305 -418 l 1,13,14
 1283 -421 1283 -421 1253 -422 c 128,-1,15
 1223 -423 1223 -423 1184 -423 c 0,0,1
544 -21 m 0,16,17
 408 -21 408 -21 304 48.5 c 128,-1,18
 200 118 200 118 141 244.5 c 128,-1,19
 82 371 82 371 82 542 c 0,20,21
 82 715 82 715 141.5 841 c 128,-1,22
 201 967 201 967 305.5 1035.5 c 128,-1,23
 410 1104 410 1104 545 1104 c 0,24,25
 632 1104 632 1104 694.5 1077.5 c 128,-1,26
 757 1051 757 1051 800 1009 c 128,-1,27
 843 967 843 967 869 921 c 1,28,-1
 877 921 l 1,29,-1
 877 1087 l 1,30,-1
 1090 1087 l 1,31,-1
 1090 0 l 1,32,-1
 877 0 l 1,33,-1
 877 168 l 1,34,-1
 869 168 l 1,35,36
 842 120 842 120 798.5 76.5 c 128,-1,37
 755 33 755 33 692 6 c 128,-1,38
 629 -21 629 -21 544 -21 c 0,16,17
591 163 m 0,39,40
 683 163 683 163 748.5 211 c 128,-1,41
 814 259 814 259 849 344.5 c 128,-1,42
 884 430 884 430 884 543 c 0,43,44
 884 657 884 657 849.5 742 c 128,-1,45
 815 827 815 827 749.5 874 c 128,-1,46
 684 921 684 921 591 921 c 0,47,48
 501 921 501 921 435.5 874.5 c 128,-1,49
 370 828 370 828 336 743.5 c 128,-1,50
 302 659 302 659 302 543 c 0,51,52
 302 428 302 428 336.5 343 c 128,-1,53
 371 258 371 258 436 210.5 c 128,-1,54
 501 163 501 163 591 163 c 0,39,40
EndSplineSet
EndChar

StartChar: r
Encoding: 114 114 854
Width: 744
GlyphClass: 2
Flags: W
AnchorPoint: "Anchor-1" 411 1087 basechar 0
AnchorPoint: "Anchor-0" 241 0 basechar 0
LayerCount: 2
Fore
SplineSet
133 0 m 1,0,-1
 133 1087 l 1,1,-1
 341 1087 l 1,2,-1
 341 912 l 1,3,-1
 349 912 l 1,4,5
 379 1001 379 1001 449 1051 c 128,-1,6
 519 1101 519 1101 618 1101 c 0,7,8
 641 1101 641 1101 665 1099.5 c 128,-1,9
 689 1098 689 1098 704 1097 c 1,10,-1
 704 893 l 1,11,12
 692 896 692 896 659 900 c 128,-1,13
 626 904 626 904 590 904 c 0,14,15
 523 904 523 904 468 874.5 c 128,-1,16
 413 845 413 845 381 788.5 c 128,-1,17
 349 732 349 732 349 651 c 2,18,-1
 349 0 l 1,19,-1
 133 0 l 1,0,-1
EndSplineSet
Substitution2: "'smcp' Lowercase to Small Capitals in Latin lookup 69 subtable" r.sc
Substitution2: "'c2sc' Capitals to Small Capitals in Latin lookup 68 subtable" r.sc
Substitution2: "'sups' Superscript in Latin lookup 39 subtable" r.sups
Substitution2: "'subs' Subscript in Latin lookup 38 subtable" r.subs
Substitution2: "'sinf' Scientific Inferiors in Latin lookup 18 subtable" r.subs
AlternateSubs2: "'aalt' Access All Alternates in Latin lookup 1 subtable" r.sc r.sups r.subs
EndChar

StartChar: rrthook
Encoding: 57437 57437 855
Width: 744
GlyphClass: 2
Flags: W
AnchorPoint: "Anchor-1" 411 1087 basechar 0
AnchorPoint: "Anchor-0" 241 0 basechar 0
LayerCount: 2
Fore
SplineSet
443 -423 m 0,0,1
 290 -423 290 -423 211.5 -353.5 c 128,-1,2
 133 -284 133 -284 133 -149 c 2,3,-1
 133 0 l 1,4,-1
 349 0 l 1,5,-1
 349 -147 l 2,6,7
 349 -199 349 -199 378.5 -222 c 128,-1,8
 408 -245 408 -245 477 -245 c 0,9,10
 495 -245 495 -245 521 -244.5 c 128,-1,11
 547 -244 547 -244 565 -243 c 1,12,-1
 565 -418 l 1,13,14
 543 -421 543 -421 512.5 -422 c 128,-1,15
 482 -423 482 -423 443 -423 c 0,0,1
133 0 m 1,16,-1
 133 1087 l 1,17,-1
 341 1087 l 1,18,-1
 341 912 l 1,19,-1
 349 912 l 1,20,21
 379 1001 379 1001 449 1051 c 128,-1,22
 519 1101 519 1101 618 1101 c 0,23,24
 641 1101 641 1101 665 1099.5 c 128,-1,25
 689 1098 689 1098 704 1097 c 1,26,-1
 704 893 l 1,27,28
 692 896 692 896 659 900 c 128,-1,29
 626 904 626 904 590 904 c 0,30,31
 523 904 523 904 468 874.5 c 128,-1,32
 413 845 413 845 381 788.5 c 128,-1,33
 349 732 349 732 349 651 c 2,34,-1
 349 0 l 1,35,-1
 133 0 l 1,16,-1
EndSplineSet
EndChar

StartChar: rturn
Encoding: 633 633 857
Width: 744
GlyphClass: 2
Flags: W
AnchorPoint: "Anchor-1" 501 1087 basechar 0
AnchorPoint: "Anchor-0" 380 0 basechar 0
LayerCount: 2
Fore
SplineSet
611 1087 m 1,0,-1
 611 0 l 1,1,-1
 403 0 l 1,2,-1
 403 175 l 1,3,-1
 395 175 l 1,4,5
 365 87 365 87 295 36.5 c 128,-1,6
 225 -14 225 -14 126 -14 c 0,7,8
 104 -14 104 -14 80 -12 c 128,-1,9
 56 -10 56 -10 40 -9 c 1,10,-1
 40 194 l 1,11,12
 53 192 53 192 85.5 187.5 c 128,-1,13
 118 183 118 183 154 183 c 0,14,15
 222 183 222 183 276.5 213 c 128,-1,16
 331 243 331 243 363 299.5 c 128,-1,17
 395 356 395 356 395 436 c 2,18,-1
 395 1087 l 1,19,-1
 611 1087 l 1,0,-1
EndSplineSet
EndChar

StartChar: rturnrthook
Encoding: 635 635 858
Width: 744
GlyphClass: 2
Flags: W
AnchorPoint: "Anchor-1" 501 1087 basechar 0
AnchorPoint: "Anchor-0" 380 0 basechar 0
LayerCount: 2
Fore
SplineSet
693 -423 m 0,0,1
 546 -423 546 -423 472 -354.5 c 128,-1,2
 398 -286 398 -286 398 -155 c 2,3,-1
 398 0 l 1,4,-1
 606 0 l 1,5,-1
 606 -150 l 2,6,7
 606 -201 606 -201 634.5 -223.5 c 128,-1,8
 663 -246 663 -246 732 -246 c 0,9,10
 749 -246 749 -246 777 -245.5 c 128,-1,11
 805 -245 805 -245 821 -244 c 1,12,-1
 821 -418 l 1,13,14
 807 -419 807 -419 787 -420.5 c 128,-1,15
 767 -422 767 -422 743.5 -422.5 c 128,-1,16
 720 -423 720 -423 693 -423 c 0,0,1
611 1087 m 1,17,-1
 611 0 l 1,18,-1
 403 0 l 1,19,-1
 403 175 l 1,20,-1
 395 175 l 1,21,22
 365 87 365 87 295 36.5 c 128,-1,23
 225 -14 225 -14 126 -14 c 0,24,25
 104 -14 104 -14 80 -12 c 128,-1,26
 56 -10 56 -10 40 -9 c 1,27,-1
 40 194 l 1,28,29
 53 192 53 192 85.5 187.5 c 128,-1,30
 118 183 118 183 154 183 c 0,31,32
 222 183 222 183 276.5 213 c 128,-1,33
 331 243 331 243 363 299.5 c 128,-1,34
 395 356 395 356 395 436 c 2,35,-1
 395 1087 l 1,36,-1
 611 1087 l 1,17,-1
EndSplineSet
EndChar

StartChar: rfishhookrev
Encoding: 639 639 859
Width: 709
Flags: W
LayerCount: 2
Fore
SplineSet
576 0 m 1,0,-1
 360 0 l 1,1,-1
 360 692 l 2,2,3
 360 777 360 777 332 822 c 128,-1,4
 304 867 304 867 256 885 c 128,-1,5
 208 903 208 903 149 903 c 0,6,7
 113 903 113 903 86 902 c 128,-1,8
 59 901 59 901 40 899 c 1,9,-1
 40 1092 l 1,10,11
 49 1093 49 1093 67 1094.5 c 128,-1,12
 85 1096 85 1096 110.5 1097 c 128,-1,13
 136 1098 136 1098 166 1098 c 0,14,15
 274 1098 274 1098 367 1060 c 128,-1,16
 460 1022 460 1022 518 934 c 128,-1,17
 576 846 576 846 576 701 c 2,18,-1
 576 0 l 1,0,-1
EndSplineSet
EndChar

StartChar: uni027E
Encoding: 638 638 860
Width: 709
Flags: W
LayerCount: 2
Fore
SplineSet
133 0 m 1,0,-1
 133 701 l 2,1,2
 133 846 133 846 191 934 c 128,-1,3
 249 1022 249 1022 342.5 1060 c 128,-1,4
 436 1098 436 1098 544 1098 c 0,5,6
 574 1098 574 1098 599 1097 c 128,-1,7
 624 1096 624 1096 642 1094.5 c 128,-1,8
 660 1093 660 1093 669 1092 c 1,9,-1
 669 899 l 1,10,11
 651 901 651 901 623.5 902 c 128,-1,12
 596 903 596 903 560 903 c 0,13,14
 502 903 502 903 454 885 c 128,-1,15
 406 867 406 867 377.5 822 c 128,-1,16
 349 777 349 777 349 692 c 2,17,-1
 349 0 l 1,18,-1
 133 0 l 1,0,-1
EndSplineSet
EndChar

StartChar: rdescend
Encoding: 57438 57438 861
Width: 744
GlyphClass: 2
Flags: W
AnchorPoint: "Anchor-1" 411 1087 basechar 0
AnchorPoint: "Anchor-0" 241 0 basechar 0
LayerCount: 2
Fore
SplineSet
133 -418 m 1,0,-1
 133 0 l 1,1,-1
 345 0 l 1,2,-1
 345 -418 l 1,3,-1
 133 -418 l 1,0,-1
133 0 m 1,4,-1
 133 1087 l 1,5,-1
 341 1087 l 1,6,-1
 341 912 l 1,7,-1
 349 912 l 1,8,9
 379 1001 379 1001 449 1051 c 128,-1,10
 519 1101 519 1101 618 1101 c 0,11,12
 641 1101 641 1101 665 1099.5 c 128,-1,13
 689 1098 689 1098 704 1097 c 1,14,-1
 704 893 l 1,15,16
 692 896 692 896 659 900 c 128,-1,17
 626 904 626 904 590 904 c 0,18,19
 523 904 523 904 468 874.5 c 128,-1,20
 413 845 413 845 381 788.5 c 128,-1,21
 349 732 349 732 349 651 c 2,22,-1
 349 0 l 1,23,-1
 133 0 l 1,4,-1
EndSplineSet
EndChar

StartChar: r.sc
Encoding: 60955 60955 871
Width: 1122
Flags: W
LayerCount: 2
Fore
SplineSet
133 0 m 1,0,-1
 133 1087 l 1,1,-1
 611 1087 l 2,2,3
 822 1087 822 1087 932 992 c 128,-1,4
 1042 897 1042 897 1042 735 c 0,5,6
 1042 576 1042 576 930.5 484.5 c 128,-1,7
 819 393 819 393 606 393 c 2,8,-1
 254 393 l 1,9,-1
 254 562 l 1,10,-1
 586 562 l 2,11,12
 713 562 713 562 771 604.5 c 128,-1,13
 829 647 829 647 829 734 c 256,14,15
 829 821 829 821 772 864.5 c 128,-1,16
 715 908 715 908 589 908 c 2,17,-1
 344 908 l 1,18,-1
 344 0 l 1,19,-1
 133 0 l 1,0,-1
848 0 m 1,20,-1
 543 490 l 1,21,-1
 778 490 l 1,22,-1
 1091 0 l 1,23,-1
 848 0 l 1,20,-1
EndSplineSet
EndChar

StartChar: rinv.sc
Encoding: 60956 60956 872
Width: 1122
Flags: W
LayerCount: 2
Fore
SplineSet
133 0 m 1,0,-1
 133 1087 l 1,1,-1
 344 1087 l 1,2,-1
 344 180 l 1,3,-1
 589 180 l 2,4,5
 715 180 715 180 772 224 c 128,-1,6
 829 268 829 268 829 354 c 256,7,8
 829 440 829 440 771 483 c 128,-1,9
 713 526 713 526 586 526 c 2,10,-1
 254 526 l 1,11,-1
 254 694 l 1,12,-1
 606 694 l 2,13,14
 818 694 818 694 930 603 c 128,-1,15
 1042 512 1042 512 1042 353 c 0,16,17
 1042 191 1042 191 932 95.5 c 128,-1,18
 822 0 822 0 611 0 c 2,19,-1
 133 0 l 1,0,-1
543 597 m 1,20,-1
 848 1087 l 1,21,-1
 1091 1087 l 1,22,-1
 778 597 l 1,23,-1
 543 597 l 1,20,-1
EndSplineSet
EndChar

StartChar: s
Encoding: 115 115 873
Width: 1054
GlyphClass: 2
Flags: W
AnchorPoint: "Anchor-3" 534 0 basechar 0
AnchorPoint: "Anchor-1" 532 1087 basechar 0
AnchorPoint: "Anchor-0" 532 0 basechar 0
LayerCount: 2
Fore
SplineSet
530 -24 m 0,0,1
 408 -24 408 -24 313 13.5 c 128,-1,2
 218 51 218 51 158 123.5 c 128,-1,3
 98 196 98 196 83 302 c 1,4,-1
 292 324 l 1,5,6
 307 237 307 237 368 193 c 128,-1,7
 429 149 429 149 528 149 c 0,8,9
 633 149 633 149 693.5 191.5 c 128,-1,10
 754 234 754 234 754 298 c 0,11,12
 754 351 754 351 713.5 385 c 128,-1,13
 673 419 673 419 598 435 c 2,14,-1
 417 476 l 2,15,16
 265 510 265 510 188.5 586.5 c 128,-1,17
 112 663 112 663 112 781 c 0,18,19
 112 878 112 878 165 951 c 128,-1,20
 218 1024 218 1024 312.5 1065 c 128,-1,21
 407 1106 407 1106 531 1106 c 0,22,23
 650 1106 650 1106 739 1067 c 128,-1,24
 828 1028 828 1028 881.5 958.5 c 128,-1,25
 935 889 935 889 949 794 c 1,26,-1
 750 772 l 1,27,28
 739 840 739 840 684 888 c 128,-1,29
 629 936 629 936 533 936 c 0,30,31
 443 936 443 936 385.5 894.5 c 128,-1,32
 328 853 328 853 328 790 c 0,33,34
 328 736 328 736 368.5 702 c 128,-1,35
 409 668 409 668 490 649 c 2,36,-1
 671 609 l 2,37,38
 826 575 826 575 900 501.5 c 128,-1,39
 974 428 974 428 974 313 c 0,40,41
 974 212 974 212 917 136 c 128,-1,42
 860 60 860 60 759.5 18 c 128,-1,43
 659 -24 659 -24 530 -24 c 0,0,1
EndSplineSet
Substitution2: "'sups' Superscript in Latin lookup 39 subtable" s.sups
Substitution2: "'subs' Subscript in Latin lookup 38 subtable" s.subs
Substitution2: "'sinf' Scientific Inferiors in Latin lookup 18 subtable" s.subs
AlternateSubs2: "'aalt' Access All Alternates in Latin lookup 1 subtable" s.sups s.subs
EndChar

StartChar: srthook
Encoding: 642 642 874
Width: 1054
GlyphClass: 2
Flags: W
AnchorPoint: "Anchor-3" 534 0 basechar 0
AnchorPoint: "Anchor-1" 532 1087 basechar 0
AnchorPoint: "Anchor-0" 532 0 basechar 0
LayerCount: 2
Fore
SplineSet
384 -423 m 0,0,1
 237 -423 237 -423 160 -354.5 c 128,-1,2
 83 -286 83 -286 83 -155 c 2,3,-1
 83 302 l 1,4,-1
 283 304 l 1,5,-1
 283 -150 l 2,6,7
 283 -201 283 -201 315.5 -223.5 c 128,-1,8
 348 -246 348 -246 418 -246 c 0,9,10
 430 -246 430 -246 448.5 -245.5 c 128,-1,11
 467 -245 467 -245 485 -244.5 c 128,-1,12
 503 -244 503 -244 514 -244 c 1,13,-1
 514 -418 l 1,14,15
 500 -420 500 -420 479.5 -421 c 128,-1,16
 459 -422 459 -422 435 -422.5 c 128,-1,17
 411 -423 411 -423 384 -423 c 0,0,1
530 -24 m 0,18,19
 408 -24 408 -24 313 13.5 c 128,-1,20
 218 51 218 51 158 123.5 c 128,-1,21
 98 196 98 196 83 302 c 1,22,-1
 292 324 l 1,23,24
 307 237 307 237 368 193 c 128,-1,25
 429 149 429 149 528 149 c 0,26,27
 633 149 633 149 693.5 191.5 c 128,-1,28
 754 234 754 234 754 298 c 0,29,30
 754 351 754 351 713.5 385 c 128,-1,31
 673 419 673 419 598 435 c 2,32,-1
 417 476 l 2,33,34
 265 510 265 510 188.5 586.5 c 128,-1,35
 112 663 112 663 112 781 c 0,36,37
 112 878 112 878 165 951 c 128,-1,38
 218 1024 218 1024 312.5 1065 c 128,-1,39
 407 1106 407 1106 531 1106 c 0,40,41
 650 1106 650 1106 739 1067 c 128,-1,42
 828 1028 828 1028 881.5 958.5 c 128,-1,43
 935 889 935 889 949 794 c 1,44,-1
 750 772 l 1,45,46
 739 840 739 840 684 888 c 128,-1,47
 629 936 629 936 533 936 c 0,48,49
 443 936 443 936 385.5 894.5 c 128,-1,50
 328 853 328 853 328 790 c 0,51,52
 328 736 328 736 368.5 702 c 128,-1,53
 409 668 409 668 490 649 c 2,54,-1
 671 609 l 2,55,56
 826 575 826 575 900 501.5 c 128,-1,57
 974 428 974 428 974 313 c 0,58,59
 974 212 974 212 917 136 c 128,-1,60
 860 60 860 60 759.5 18 c 128,-1,61
 659 -24 659 -24 530 -24 c 0,18,19
EndSplineSet
EndChar

StartChar: uni023F
Encoding: 575 575 875
Width: 1054
GlyphClass: 2
Flags: W
AnchorPoint: "Anchor-3" 534 0 basechar 0
AnchorPoint: "Anchor-1" 532 1087 basechar 0
AnchorPoint: "Anchor-0" 532 0 basechar 0
LayerCount: 2
Fore
SplineSet
260 274 m 1,0,1
 352 106 352 106 412.5 2 c 128,-1,2
 473 -102 473 -102 512.5 -157.5 c 128,-1,3
 552 -213 552 -213 581.5 -233.5 c 128,-1,4
 611 -254 611 -254 641 -254 c 0,5,6
 688 -254 688 -254 727.5 -229.5 c 128,-1,7
 767 -205 767 -205 794 -181 c 1,8,-1
 868 -311 l 1,9,10
 831 -347 831 -347 769.5 -382.5 c 128,-1,11
 708 -418 708 -418 638 -418 c 0,12,13
 567 -418 567 -418 512 -386.5 c 128,-1,14
 457 -355 457 -355 412 -299.5 c 128,-1,15
 367 -244 367 -244 325 -172 c 2,16,-1
 119 187 l 1,17,-1
 260 274 l 1,0,1
530 -24 m 0,18,19
 408 -24 408 -24 313 13.5 c 128,-1,20
 218 51 218 51 158 123.5 c 128,-1,21
 98 196 98 196 83 302 c 1,22,-1
 292 324 l 1,23,24
 307 237 307 237 368 193 c 128,-1,25
 429 149 429 149 528 149 c 0,26,27
 633 149 633 149 693.5 191.5 c 128,-1,28
 754 234 754 234 754 298 c 0,29,30
 754 351 754 351 713.5 385 c 128,-1,31
 673 419 673 419 598 435 c 2,32,-1
 417 476 l 2,33,34
 265 510 265 510 188.5 586.5 c 128,-1,35
 112 663 112 663 112 781 c 0,36,37
 112 878 112 878 165 951 c 128,-1,38
 218 1024 218 1024 312.5 1065 c 128,-1,39
 407 1106 407 1106 531 1106 c 0,40,41
 650 1106 650 1106 739 1067 c 128,-1,42
 828 1028 828 1028 881.5 958.5 c 128,-1,43
 935 889 935 889 949 794 c 1,44,-1
 750 772 l 1,45,46
 739 840 739 840 684 888 c 128,-1,47
 629 936 629 936 533 936 c 0,48,49
 443 936 443 936 385.5 894.5 c 128,-1,50
 328 853 328 853 328 790 c 0,51,52
 328 736 328 736 368.5 702 c 128,-1,53
 409 668 409 668 490 649 c 2,54,-1
 671 609 l 2,55,56
 826 575 826 575 900 501.5 c 128,-1,57
 974 428 974 428 974 313 c 0,58,59
 974 212 974 212 917 136 c 128,-1,60
 860 60 860 60 759.5 18 c 128,-1,61
 659 -24 659 -24 530 -24 c 0,18,19
EndSplineSet
EndChar

